<?xml version="1.0" standalone="no"?>
<!DOCTYPE svg PUBLIC "-//W3C//DTD SVG 20010904//EN"
 "http://www.w3.org/TR/2001/REC-SVG-20010904/DTD/svg10.dtd">
<svg version="1.0" xmlns="http://www.w3.org/2000/svg"
 width="961.000000pt" height="961.000000pt" viewBox="0 0 961.000000 961.000000"
 preserveAspectRatio="xMidYMid meet">
<metadata>
Created by potrace 1.14, written by Peter Selinger 2001-2017
</metadata>
<g transform="translate(0.000000,961.000000) scale(0.100000,-0.100000)"
fill="#000000" stroke="none">
<path d="M0 4810 l0 -4800 4800 0 4800 0 0 4800 0 4800 -4800 0 -4800 0 0
-4800z m2580 870 l0 -490 2215 0 2215 0 0 490 0 490 23 -5 c12 -3 179 -37 371
-75 192 -39 353 -73 358 -76 4 -3 8 -581 8 -1285 l0 -1279 -380 0 -380 0 0
490 0 490 -1788 0 -1787 0 -418 375 c-230 206 -422 375 -428 375 -5 0 -9 -334
-9 -865 l0 -865 -375 0 -375 0 0 1283 0 1284 368 75 c202 42 370 76 375 77 4
0 7 -219 7 -489z"/>
</g>
</svg>
