<?xml version="1.0" standalone="no"?>
<!DOCTYPE svg PUBLIC "-//W3C//DTD SVG 20010904//EN"
 "http://www.w3.org/TR/2001/REC-SVG-20010904/DTD/svg10.dtd">
<svg version="1.0" xmlns="http://www.w3.org/2000/svg"
 width="261.000000pt" height="261.000000pt" viewBox="0 0 261.000000 261.000000"
 preserveAspectRatio="xMidYMid meet">
<metadata>
Created by potrace 1.14, written by Peter Selinger 2001-2017
</metadata>
<g transform="translate(0.000000,261.000000) scale(0.100000,-0.100000)"
fill="#000000" stroke="none">
<path d="M630 1680 c-19 -4 -61 -13 -92 -20 l-58 -11 0 -360 0 -359 105 0 105
0 0 380 c0 298 -3 380 -12 379 -7 -1 -29 -5 -48 -9z"/>
<path d="M1920 1555 l0 -135 -611 0 c-340 0 -609 -4 -607 -9 2 -4 56 -54 121
-110 l118 -101 490 0 489 0 0 -135 0 -135 105 0 105 0 0 360 c0 198 -2 360 -4
360 -2 0 -48 9 -101 20 -53 11 -99 20 -101 20 -2 0 -4 -61 -4 -135z"/>
</g>
</svg>
