<svg width="2176" height="539" viewBox="0 0 2176 539" fill="none" xmlns="http://www.w3.org/2000/svg">
<g clip-path="url(#clip0_2094_155)">
<g clip-path="url(#clip1_2094_155)">
<path d="M1993.97 622.781L1949.63 530.932L1894.16 442.251L1828.34 358.445L1753.23 281.154L1670.17 211.875L1580.7 151.903L1486.54 102.281L1389.5 63.7639L1291.37 36.7969" stroke="#956934"/>
<path d="M2056.97 853.211L2034.85 755.304L2000.25 656.967L1953.31 559.973L1894.52 466.167L1824.7 377.4L1745 295.451L1656.88 221.95L1562.01 158.306L1462.26 105.651L1359.59 64.7976L1255.96 36.2196L1153.26 20.0556L1053.27 16.1245" stroke="#956934"/>
<path d="M2062.47 1096.83L2064.6 1001.45L2054.3 902.161L2031.12 800.491L1994.84 698.151L1945.62 597.011L1883.96 499.035L1810.72 406.19L1727.14 320.374L1634.77 243.329L1535.4 176.565L1431.04 121.289L1323.76 78.3676L1215.66 48.3026L1108.75 31.2306L1004.88 26.9497L905.707 34.9566L812.627 54.5006" stroke="#956934"/>
<path d="M2033.77 1246.33L2047.72 1154.5L2049.62 1057.13L2038.71 955.551L2014.49 851.301L1976.74 746.161L1925.61 642.061L1861.61 541.051L1785.66 445.186L1699.05 356.457L1603.41 276.692L1500.64 207.477L1392.83 150.084L1282.17 105.423L1170.83 74.0195L1060.91 56.0165L954.337 51.1987L852.817 59.0361L757.777 78.7401L670.364 109.325" stroke="#956934"/>
<path d="M1945.77 1469.73L1980.91 1391.83L2005.84 1306.29L2019.47 1213.92L2020.84 1115.77L2009.18 1013.16L1983.96 907.661L1944.97 801.071L1892.36 695.371L1826.67 592.641L1748.84 494.989L1660.22 404.462L1562.48 322.944L1457.58 252.072L1347.68 193.161L1235.02 147.154L1121.85 114.6L1010.31 95.6518L902.347 90.0928L799.707 97.3868L703.816 116.729L615.834 147.114L536.62 187.399L466.758 236.366" stroke="#956934"/>
<path d="M1861.87 1596.43L1905.42 1527.61L1939.86 1450.52L1964.03 1365.71L1976.86 1273.96L1977.38 1176.31L1964.82 1074.06L1938.67 968.771L1898.73 862.241L1845.17 756.441L1778.53 653.451L1699.8 555.399L1610.32 464.34L1511.8 382.176L1406.23 310.561L1295.77 250.832L1182.7 203.951L1069.27 170.485L957.617 150.604L849.707 144.108L747.277 150.47L651.735 168.898L564.236 198.393L485.619 237.82L416.45 285.965L357.048 341.587" stroke="#956934"/>
<path d="M1759.97 1707.83L1809.96 1649.16L1852.03 1582L1885.02 1506.64L1907.81 1423.63L1919.35 1333.7L1918.7 1237.89L1905.15 1137.45L1878.19 1033.92L1837.67 929.041L1783.76 824.751L1717.04 723.091L1638.48 626.15L1549.44 535.949L1451.61 454.364L1346.97 383.033L1237.64 323.284L1125.86 276.084L1013.86 242.014L903.737 221.265L797.417 213.668L696.597 218.73L602.667 235.695L516.745 263.602L439.652 301.354L371.939 347.771L313.91 401.645L265.659 461.778" stroke="#956934"/>
<path d="M1643.77 1800.93L1698.09 1752.84L1745.68 1696.35L1785.43 1631.6L1816.24 1558.9L1837.04 1478.74L1846.85 1391.87L1844.79 1299.26L1830.2 1202.13L1802.63 1101.94L1761.97 1000.37L1708.43 899.271L1642.58 800.605L1565.4 706.367L1478.21 618.499L1382.65 538.808L1280.62 468.876L1174.2 409.996L1065.53 363.121L956.727 328.837L849.837 307.362L746.697 298.568L648.937 302.018L557.906 317.018L474.679 342.677L400.05 377.963L334.554 421.762L278.49 472.922L231.955 530.301L194.878 592.793" stroke="#956934"/>
<path d="M1455.97 1903.43L1517.23 1873.66L1573.81 1835.97L1624.75 1790.27L1669.06 1736.56L1705.71 1674.97L1733.67 1605.82L1751.97 1529.59L1759.69 1446.98L1756.06 1358.93L1740.49 1266.58L1712.62 1171.31L1672.37 1074.71L1619.99 978.481L1556.06 884.48L1481.53 794.556L1397.66 710.531L1306 634.095L1208.35 566.739L1106.65 509.691L1002.9 463.867L899.097 429.852L797.147 407.889L698.797 397.903L605.561 399.528L518.725 412.157L439.312 434.992L368.084 467.097L305.564 507.45L252.051 554.987L207.653 608.641L172.32 667.375L145.871 730.198" stroke="#956934"/>
<path d="M1323.87 1945.83L1384.55 1925.21L1441.42 1897.31L1493.65 1861.96L1540.35 1819.09L1580.6 1768.73L1613.47 1711.03L1638.03 1646.3L1653.41 1575.01L1658.82 1497.84L1653.59 1415.65L1637.23 1329.5L1609.47 1240.68L1570.29 1150.62L1519.97 1060.89L1459.08 973.161L1388.51 889.118L1309.44 810.415L1223.31 738.589L1131.75 675.004L1036.54 620.794L939.487 576.821L842.437 543.652L747.107 521.555L655.098 510.508L567.811 510.232L486.438 520.221L411.937 539.793L345.035 568.131L286.241 604.328L235.858 647.433L194.016 696.479L160.694 750.516L135.75 808.629L118.947 869.956L109.976 933.696" stroke="#956934"/>
<path d="M1890.37 433.461L1895.64 453.125L1890.66 481.432L1874.36 518.856L1845.8 565.678L1804.28 621.912L1749.45 687.235L1681.41 760.928L1600.79 841.832L1508.82 928.35L1407.35 1018.49L1298.75 1109.95L1185.83 1200.27L1071.67 1286.96L959.347 1367.74L851.807 1440.61L751.627 1504.02L660.888 1556.93L581.098 1598.8" stroke="#956934"/>
<path d="M1826.67 352.421L1827.69 366.746L1818.99 390.512L1799.61 424.365L1768.74 468.763L1725.81 523.885L1670.6 589.55L1603.32 665.143L1524.71 749.558L1436.05 841.185L1339.19 937.949L1236.48 1037.4L1130.62 1136.85L1024.52 1233.58L921.057 1324.98L822.927 1408.77L732.427 1483.12L651.373 1546.71L581.038 1598.8" stroke="#956934"/>
<path d="M1754.07 277.701L1750.21 287.034L1737.26 306.517L1714.4 336.959L1680.98 378.981L1636.6 432.921L1581.17 498.736L1515.03 575.917L1438.99 663.419L1354.39 759.636L1263.07 862.436L1167.28 969.226L1069.59 1077.15L972.677 1183.22L879.177 1284.58L791.507 1378.64L711.65 1463.31L641.158 1537.03L581.038 1598.81" stroke="#956934"/>
<path d="M1673.87 210.741L1664.6 215.566L1646.97 231.148L1620.34 258.441L1584.22 298.208L1538.38 350.932L1482.89 416.7L1418.22 495.109L1345.26 585.182L1265.38 685.332L1180.37 793.392L1092.37 906.682L1003.76 1022.18L916.977 1136.69L834.357 1247.12L757.997 1350.62L689.596 1444.84L630.382 1527.96L581.118 1598.79" stroke="#956934"/>
<path d="M1587.37 152.781L1572.32 153.7L1549.72 165.872L1519.11 190.363L1480.2 228.062L1432.94 279.571L1377.56 345.097L1314.65 424.337L1245.19 516.393L1170.56 619.723L1092.47 732.143L1012.93 850.923L934.096 972.923L858.146 1094.79L787.106 1213.23L722.726 1325.16L666.378 1427.99L619.006 1519.67L581.107 1598.8" stroke="#956934"/>
<path d="M1496.27 104.801L1475.22 102.51L1447.49 111.844L1412.83 133.955L1371.13 169.823L1322.52 220.152L1267.41 285.246L1206.51 364.901L1140.86 458.3L1071.84 563.96L1001.09 679.73L930.447 802.86L861.867 930.15L797.217 1058.14L738.197 1183.37L686.235 1302.58L642.364 1412.94L607.228 1512.22L581.068 1598.8" stroke="#956934"/>
<path d="M1375.27 62.7979L1342.4 69.9237L1303.71 90.1227L1259.3 124.44L1209.47 173.648L1154.79 238.135L1096.08 317.782L1034.44 411.859L971.247 518.959L908.047 636.999L846.537 763.259L788.407 894.519L735.257 1027.28L688.477 1157.96L649.135 1283.17L617.954 1399.9L595.277 1505.71L581.088 1598.8" stroke="#956934"/>
<path d="M1274.27 35.0117L1236.39 40.5859L1193.83 59.3679L1146.86 92.4339L1095.96 140.603L1041.85 204.323L985.447 283.549L927.917 377.642L870.607 485.292L814.987 604.502L762.587 732.622L714.881 866.492L673.196 1002.6L638.605 1137.32L611.867 1267.17L593.387 1389.01L583.217 1500.21L581.088 1598.8" stroke="#956934"/>
<path d="M1174.07 19.293L1131.43 23.971L1085.23 41.834L1035.92 73.959L984.147 121.185L930.737 183.997L876.706 262.415L823.267 355.887L771.747 463.207L723.537 582.497L680.026 711.237L642.484 846.337L611.984 984.357L589.317 1121.69L574.945 1254.78L568.977 1380.39L571.19 1495.78L581.068 1598.8" stroke="#956934"/>
<path d="M1029.37 19.8867L979.867 37.3097L928.497 68.7967L876.037 115.181L823.437 176.967L771.787 254.226L722.337 346.489L676.383 452.669L635.264 571.019L600.234 699.169L572.39 834.169L552.584 972.689L541.359 1111.18L538.912 1246.09L545.083 1374.15L559.39 1492.48L581.078 1598.8" stroke="#956934"/>
<path d="M931.767 27.8486L879.347 45.2756L826.237 76.4096L773.307 122.056L721.607 182.722L672.294 258.515L626.635 349.044L585.928 453.344L551.442 569.814L524.332 696.254L505.549 829.904L495.766 967.574L495.318 1105.81L504.174 1241.16L521.938 1370.31L547.892 1490.32L581.058 1598.79" stroke="#956934"/>
<path d="M785.167 64.9609L730.627 95.9999L677.449 141.01L626.721 200.483L579.662 274.554L537.551 362.901L501.678 464.671L473.267 578.431L453.396 702.171L442.905 833.321L442.329 968.881L451.84 1105.56L471.221 1239.99L499.878 1368.91L536.889 1489.34L581.068 1598.79" stroke="#956934"/>
<path d="M698.427 95.4009L642.816 126.571L589.582 171.039L539.88 229.273L494.955 301.418L456.099 387.215L424.593 485.923L401.63 596.273L388.233 716.433L385.169 844.063L392.876 976.383L411.406 1110.28L440.406 1242.53L479.127 1369.93L526.473 1489.54L581.076 1598.8" stroke="#956934"/>
<path d="M563.647 166.981L510.555 210.995L461.911 267.962L418.979 338.031L383.057 420.991L355.417 516.206L337.234 622.556L329.499 738.416L332.935 861.656L347.925 989.726L374.449 1119.74L412.065 1248.63L459.911 1373.32L516.757 1490.91L581.079 1598.81" stroke="#956934"/>
<path d="M440.947 259.661L393.377 315.354L352.281 383.245L318.956 463.162L294.669 554.559L280.582 656.459L277.675 767.419L286.659 885.539L307.894 1008.51L341.334 1133.66L386.49 1258.13L442.437 1378.98L507.85 1493.39L581.081 1598.8" stroke="#956934"/>
<path d="M334.586 370.231L295.16 435.887L264.094 512.626L242.647 599.979L231.98 697.096L233.076 802.716L246.654 915.146L273.086 1032.31L312.336 1151.76L363.917 1270.86L426.876 1386.85L499.842 1497L581.081 1598.82" stroke="#956934"/>
<path d="M247.707 494.761L218.569 568.253L199.468 651.426L191.568 743.54L195.865 843.488L213.106 949.778L243.702 1060.55L287.659 1173.62L344.524 1286.53L413.37 1396.73L492.814 1501.63L581.073 1598.8" stroke="#956934"/>
</g>
<rect y="259.661" width="2176" height="279.651" fill="url(#paint0_linear_2094_155)"/>
</g>
<defs>
<linearGradient id="paint0_linear_2094_155" x1="1088" y1="259.661" x2="1088" y2="539.312" gradientUnits="userSpaceOnUse">
<stop stop-color="#FFFDF5" stop-opacity="0"/>
<stop offset="1" stop-color="#FFFDF5"/>
</linearGradient>
<clipPath id="clip0_2094_155">
<rect width="2176" height="539" fill="white"/>
</clipPath>
<clipPath id="clip1_2094_155">
<rect width="1959.41" height="1958.56" fill="white" transform="translate(108.297 15.7188)"/>
</clipPath>
</defs>
</svg>
