<svg width="44" height="37" viewBox="0 0 44 37" fill="none" xmlns="http://www.w3.org/2000/svg">
<path d="M33.1255 0.612598C33.1195 0.61293 33.1155 0.612931 33.1134 0.615083C33.1692 0.961468 33.6441 1.15704 33.8026 1.47087C34.0261 1.70779 34.398 2.18325 34.6298 2.53004C34.8615 2.87684 35.1052 3.21842 35.1715 3.28909C35.2377 3.35977 35.4317 3.5945 35.6019 3.81001C35.9676 4.27294 36.8579 5.16813 37.4519 5.67046C37.6843 5.86692 37.9644 6.10803 38.0759 6.20627C38.3709 6.46637 38.4978 6.44928 38.3588 6.16658C38.3215 6.09077 38.2315 5.81335 38.1581 5.5514C38.0847 5.28946 37.9975 5.02051 37.9646 4.95359C37.8109 4.48667 37.6452 4.05793 37.377 3.64142C37.2355 3.36706 37.0756 3.09745 36.8788 2.87989C36.644 2.50759 36.2727 2.21341 35.9502 1.95963C35.1757 1.38898 34.3294 1.04951 33.4448 0.716833C33.3005 0.65334 33.1677 0.610582 33.1256 0.612651L33.1255 0.612598ZM10.6086 0.885462C10.0419 0.907203 9.50157 1.36234 8.98105 1.55522C8.24334 1.91277 7.83504 2.20231 7.32205 2.72855C6.87886 3.18315 6.18276 4.28026 6.11043 4.63861C6.05114 4.93264 5.84166 5.6707 5.72591 5.98801C5.67019 6.14081 5.6026 6.3462 5.57598 6.44443C5.50574 6.70369 5.61955 6.66474 6.00644 6.30056C6.19456 6.12349 6.47173 5.88403 6.6207 5.76724C6.76967 5.65046 6.9635 5.4833 7.05116 5.39516C7.13882 5.30701 7.38323 5.06856 7.59529 4.8668C7.80735 4.66504 8.13587 4.27828 8.32563 4.00603C8.51538 3.73378 8.87169 3.22967 9.11642 2.88479C9.43748 2.42987 9.73323 1.96229 10.1418 1.58001C10.461 1.23198 10.7222 0.920672 10.7222 0.887936C10.6842 0.885336 10.6464 0.884008 10.6086 0.885462ZM37.1594 2.64414L37.498 3.02614C37.6847 3.23642 37.8606 3.42601 37.8873 3.44783C38.2286 3.95514 38.4329 4.51117 38.5378 5.11479C38.5991 5.31125 38.7066 5.70416 38.7773 5.98793C38.848 6.27171 38.9692 6.73607 39.0481 7.01986C39.2837 7.86717 39.2893 7.89301 39.2367 7.89301C39.209 7.89301 39.0764 7.76434 38.9417 7.60527C38.4391 7.01163 38.3024 6.88886 37.3819 6.23103C37.0839 6.01813 36.7755 5.78589 36.6975 5.71259C36.6195 5.63929 36.4454 5.51195 36.3105 5.42981C36.054 5.27351 35.9004 5.09773 35.4423 4.44009L35.1667 4.0432L35.2199 4.44009C35.2825 4.90487 35.4077 5.27842 35.7398 5.98798C35.9865 6.51511 36.9351 7.58222 37.614 8.09644C38.8249 9.01363 39.9166 10.1011 40.1653 10.639C40.2373 10.7945 40.3145 10.9052 40.3346 10.8846C40.3547 10.864 40.3673 9.81779 40.3636 8.55788C40.3567 6.13784 40.3195 5.84504 39.9283 5.03546C39.4121 3.96681 38.2426 2.89043 37.3867 2.69626L37.1594 2.64414ZM6.5237 2.97653C6.25651 2.98842 5.50065 3.43406 5.05579 3.88441C4.21005 4.74053 3.89754 5.30235 3.72331 6.2757C3.52876 7.3623 3.51496 7.74599 3.62899 8.84555C3.69011 9.43492 3.72118 10.1939 3.69912 10.5324C3.67367 10.9226 3.68799 11.1475 3.73781 11.1475C3.78101 11.1475 3.83868 11.085 3.86598 11.0086C4.04978 10.4943 4.91974 9.50369 5.7257 8.89026C7.06993 7.86714 8.07119 6.64645 8.4971 5.51174C8.76616 4.79496 8.82006 4.46171 8.66396 4.49469C8.59767 4.50872 8.48645 4.62666 8.41487 4.75763C8.23576 5.0854 7.72234 5.57471 6.85259 6.24844C6.04901 6.91485 5.16103 7.48359 4.63978 8.44124C4.41367 8.99633 4.46904 8.61458 4.71959 7.89056C4.86241 7.47783 5.03862 6.85315 5.11136 6.50394C5.31368 5.5325 5.45761 4.95156 5.59503 4.55915C5.76685 4.06856 6.18428 3.40426 6.42214 3.24448C6.53054 3.17163 6.62044 3.07971 6.62044 3.04108C6.62044 2.99239 6.58536 2.97379 6.5237 2.97653ZM40.5356 5.51164C40.4402 5.52897 40.4752 5.67777 40.6395 5.94823C40.6926 6.03554 40.7962 6.32198 40.8693 6.58325C40.9848 6.99597 40.9937 7.23543 40.937 8.40898C40.9011 9.15184 40.8688 10.5219 40.8669 11.4551C40.8646 12.5124 40.8412 13.0509 40.8016 12.8839C40.6315 12.1663 40.5392 11.9412 40.2139 11.4352C40.0206 11.1346 39.5847 10.6345 39.2466 10.3239C38.3527 9.50274 37.4757 8.60265 37.3144 8.34201C37.2366 8.21633 37.1454 8.14556 37.1088 8.18326C37.0409 8.25314 37.2372 9.09463 37.4208 9.52028C37.627 10.1131 37.8346 10.6674 38.1946 11.1797C38.7687 12.1094 39.492 12.9375 40.0519 13.8736C40.3747 14.3642 40.6981 15.0672 40.8718 15.6522C40.9526 15.9247 41.0373 16.1479 41.0604 16.1483C41.5287 15.129 41.622 13.8402 42.0181 12.8541C42.5868 11.5231 42.4709 8.79461 41.7883 7.41672C41.4775 6.72398 41.089 6.05951 40.5574 5.51164C40.5499 5.51164 40.542 5.51049 40.5357 5.51164H40.5356ZM3.39946 5.8614C3.29679 5.88496 2.97133 6.26918 2.70056 6.75441C2.42876 7.25966 2.15798 7.77628 1.93879 8.3023C1.92453 8.4042 1.87348 8.61335 1.82513 8.76616C1.58888 10.2273 1.56494 11.7872 2.125 13.1716C2.21074 13.4336 2.3888 13.9515 2.52161 14.3226C2.65442 14.6937 2.77904 15.0866 2.7973 15.1958C2.82811 15.3799 2.91292 15.739 2.94724 15.8308C2.9554 15.8526 2.98876 15.9919 3.0222 16.1384L3.08266 16.4038L3.17456 16.1781C3.22462 16.0534 3.30995 15.7802 3.36561 15.5728C3.55486 14.9364 4.13091 14.0081 4.4998 13.4916C4.83674 12.9808 5.15768 12.4758 5.21321 12.3704C5.55559 11.8909 5.91144 11.4224 6.15639 10.8795C6.15647 10.8412 6.25681 10.5912 6.37888 10.3239C6.75665 9.49668 6.97569 8.528 6.78516 8.528C6.74771 8.528 6.57255 8.72446 6.39581 8.96457C6.21906 9.20468 6.0482 9.40116 6.01613 9.40116C4.76222 10.3709 3.56696 11.6965 3.25437 13.318C3.15347 13.939 3.13771 13.5231 3.22535 12.5763C3.31599 11.597 3.2754 10.8062 3.05123 9.18041C2.88617 7.9834 2.99039 6.87096 3.33659 6.15908C3.445 5.93618 3.45324 5.84906 3.39946 5.8614ZM42.9203 11.3211C42.8824 11.3214 42.8622 11.5318 42.8356 12.1C42.7411 13.2043 42.4586 14.239 42.0279 15.2503C41.5784 16.2142 41.1956 17.2197 41.0001 18.2716C40.9297 18.7708 40.8633 18.586 40.8429 17.8276C40.8233 17.0988 40.7478 16.77 40.4704 16.2029C40.2997 15.828 40.1894 15.4307 39.9408 15.0916C39.4852 14.4487 39.1325 13.7129 38.7776 13.0129C38.673 12.7946 38.5855 12.5714 38.5842 12.5168C38.58 12.344 38.4466 12.4099 38.398 12.6086C38.3124 12.9583 38.4657 14.1459 38.7849 15.5927C38.9772 16.4643 39.4092 18.0327 39.6604 18.7678C39.8912 19.4435 39.9775 20.1571 39.9264 20.9706C39.8716 21.8418 39.93 21.9741 40.1851 21.5659C40.2602 21.4458 40.7983 20.7015 41.3798 19.9113C41.9614 19.1211 42.5117 18.3175 42.6035 18.1253C43.5645 16.1155 43.7226 13.1422 42.9639 11.3856C42.9461 11.3445 42.9329 11.3211 42.9203 11.3211ZM1.13627 11.6659C0.969633 11.8369 0.662409 13.582 0.66228 14.3573C0.66215 15.1089 0.794313 16.2105 0.942805 16.6989C1.36902 18.2054 2.05326 19.5519 3.15318 20.6901C3.48047 21.105 3.82297 21.5906 3.91496 21.7717C4.20553 22.3435 4.26078 22.2113 4.26078 20.9307C4.26779 20.0929 4.33983 19.3117 4.64772 18.5296L4.87987 17.6961C4.94078 17.4778 5.04713 17.0849 5.11446 16.823C5.18178 16.5611 5.28757 16.1645 5.34904 15.9424C5.47107 15.4471 5.45613 14.9379 5.57395 14.4417C5.69469 13.9288 5.734 12.4969 5.62715 12.4969C5.04686 13.156 3.78363 16.2779 3.65864 16.5054C3.35061 17.3679 3.29717 17.6852 3.32975 18.5172C3.36552 19.4305 3.27286 19.5165 3.14596 18.6883C2.98535 17.6401 2.75606 16.8612 2.40836 16.1905C2.29916 15.9798 2.21006 15.776 2.21006 15.739C2.21006 15.702 2.10559 15.4457 1.9779 15.1685C1.85022 14.8913 1.74575 14.6382 1.74575 14.6054C1.74575 14.5725 1.69668 14.4329 1.63692 14.2953C1.38812 13.7225 1.27413 13.2068 1.22822 12.4373C1.20148 11.9892 1.1602 11.6414 1.13627 11.6659ZM38.7365 17.1802C38.4125 17.7625 38.3229 18.5155 38.1222 19.1472C38.0103 19.728 37.7305 22.3609 37.7305 22.8358C37.7305 23.6443 37.2766 25.869 37.0146 26.3483C36.7875 26.7639 36.7357 26.897 36.7728 26.9585C37.6044 26.4669 38.4179 25.9083 39.2008 25.356C39.4444 25.2174 39.6524 25.0194 39.8973 24.8797C40.0585 24.7488 40.2087 24.6416 40.231 24.6416C41.5246 23.591 42.6346 22.2961 43.1717 20.6727C43.4834 19.711 43.6479 18.1349 43.4837 17.6961C43.4168 17.5172 43.304 17.6961 43.3023 17.9838C43.3009 18.2346 42.9158 19.2444 42.7606 19.4027C42.7392 19.4245 42.6173 19.6004 42.4898 19.7946C42.3622 19.9888 41.8703 20.5603 41.3966 21.0646C40.923 21.569 40.4044 22.1432 40.2455 22.3397C39.9573 22.661 39.7057 22.982 39.4862 23.3592C39.3027 23.6069 39.0066 24.0671 38.9735 24.1108C38.7229 24.4417 38.5897 24.6489 38.5745 24.659C38.5797 24.6365 38.6691 24.4658 38.8453 24.1009C39.0409 23.6958 39.1806 23.2057 39.2806 22.491C39.3802 21.7787 39.3348 21.1858 39.0847 19.9187C38.8875 18.9193 38.8139 18.3213 38.8139 17.7458C38.8139 17.4211 38.7809 17.1802 38.7365 17.1802ZM5.45772 17.7557C5.41109 17.7516 5.38328 17.8395 5.38275 18.026C5.38181 18.357 5.13884 19.7818 4.98614 20.3553C4.92958 20.5677 4.88987 21.2272 4.88941 21.9825C4.89446 22.8149 4.9051 23.6784 5.35615 24.406C5.46878 24.5806 5.54103 24.7447 5.51818 24.7682C5.14354 24.4279 4.9897 23.9195 4.65243 23.5428C4.52706 23.3535 4.21352 22.9605 3.95595 22.6696C3.40888 22.0516 2.17334 20.712 1.91973 20.4594C1.82319 20.3633 1.7456 20.2598 1.7456 20.2312C1.7456 20.2027 1.64651 20.0505 1.52554 19.8914C1.23648 19.5112 0.882724 18.726 0.85324 18.4006C0.840341 18.2582 0.791518 18.0775 0.746836 17.9987C0.619153 17.7736 0.641404 19.4043 0.775856 20.1568C0.917641 20.9503 1.03137 21.2764 1.45057 22.0866C1.84454 22.8481 2.50934 23.6894 3.09985 24.1728C3.33321 24.3638 3.52547 24.5488 3.52547 24.582C4.33105 25.158 5.14486 25.7706 5.95107 26.311C6.00073 26.3126 6.33655 26.5242 6.69834 26.7798C7.57826 27.4014 7.58312 27.4001 7.28841 26.7525C7.18708 26.5299 7.0503 26.2232 6.98612 26.0704C6.75688 25.5246 6.51004 24.1267 6.42507 22.8952C6.30254 21.1195 5.99039 19.0916 5.7044 18.2169C5.60719 17.9196 5.51769 17.7608 5.45774 17.7555L5.45772 17.7557ZM37.2663 21.7617C37.2578 21.7597 37.2496 21.7616 37.2397 21.7642C37.1806 21.7797 37.0922 21.8812 36.9689 22.0768C36.8364 22.2867 36.6412 22.5626 36.5336 22.6895C36.0292 23.4166 35.5658 24.2024 35.2543 25.036C35.2543 25.0823 35.2193 25.1835 35.1769 25.2593C35.1345 25.3351 34.9615 25.8244 34.7924 26.3482C34.4231 27.4921 34.2715 27.9329 34.1806 28.1169C34.143 28.1927 34.0378 28.414 33.946 28.6105C33.6596 29.2233 33.3044 29.7447 32.8771 30.1831C32.7368 30.3271 32.6232 30.4611 32.6232 30.4808C32.6232 30.5458 32.9393 30.5185 33.0802 30.4411C33.2489 30.3485 34.2098 30.1224 34.79 30.0393C35.8791 29.8832 36.2792 29.7783 37.2688 29.3918C37.9432 29.1285 39.2706 28.1896 40.0137 27.4496C40.6572 26.8086 41.2372 25.9813 41.5952 25.1947C41.8202 24.7004 42.1641 23.5283 42.1031 23.4658C42.0871 23.4494 42.003 23.5732 41.9144 23.7411C41.6595 24.2247 41.5871 24.3243 41.1357 24.8226C40.7337 25.2666 39.9977 25.8988 39.7427 26.0182C39.6789 26.0481 39.5222 26.1408 39.3945 26.2241C39.2668 26.3075 38.9012 26.5063 38.582 26.6656C38.2628 26.825 37.9493 26.9865 37.8855 27.0253C37.8217 27.0641 37.583 27.1891 37.3559 27.3031C36.5463 27.7646 35.7536 28.2648 35.0561 28.8883C34.9027 29.0411 34.7571 29.1661 34.732 29.1661C34.6902 29.1661 34.9459 28.8459 35.1431 28.6526C35.8168 27.8331 36.3046 26.8888 36.5192 25.8322C36.586 25.5047 36.6967 24.8618 36.7659 24.4033C36.9369 23.27 37.0995 22.5175 37.2471 22.1585C37.3314 21.9533 37.3448 21.832 37.2906 21.7765C37.2839 21.7695 37.275 21.7636 37.2665 21.7616L37.2663 21.7617ZM6.88011 22.0222C6.68847 22.0313 7.19071 23.1351 7.16547 23.4113C7.42681 24.6273 7.4726 24.8877 7.4726 25.1253C7.4726 25.6732 8.01345 27.4984 8.24646 27.7374C8.49581 28.2242 8.75155 28.6475 9.19443 28.9603L9.75548 29.511L9.27907 29.1836C9.01759 29.0033 8.75191 28.7991 8.68657 28.7321C7.94643 28.276 7.2773 27.6737 6.46169 27.3331C4.00361 26.1708 3.05484 25.4414 2.26588 24.1034C2.07272 23.7758 2.05233 23.758 2.09176 23.967C2.11647 24.098 2.15598 24.3112 2.17882 24.4408C2.62192 25.7759 3.35424 26.9428 4.38191 27.8962C4.6037 28.0926 4.85812 28.321 4.9478 28.4022C5.98284 29.2472 7.2054 29.8296 8.51723 30.0443L9.8715 30.2824C10.0267 30.3112 11.761 30.8033 11.5691 30.5156C11.3461 30.5156 10.5761 29.4616 10.1761 28.6105C10.0838 28.4141 9.97666 28.1927 9.93915 28.1169C9.85313 27.943 9.71349 27.5457 9.32489 26.3631C8.90776 25.0937 8.34469 23.9137 7.84005 23.2525C7.80672 23.2088 7.60756 22.9455 7.39507 22.6671C7.18258 22.3886 7.00814 22.1297 7.00814 22.0916C6.94892 22.0426 6.90734 22.0208 6.87997 22.0221L6.88011 22.0222ZM34.3697 26.3408C34.2447 26.3451 33.6309 26.8008 33.2137 27.2066C32.9809 27.433 32.6566 27.7313 32.4931 27.8689C32.3295 28.0064 31.6788 28.6405 31.0468 29.2778C29.9907 30.3337 28.8581 31.2524 27.3323 31.4682C27.2252 31.4682 27.1188 31.501 27.0953 31.5401C27.0401 31.6317 27.2345 31.7063 27.5257 31.7063C27.7458 31.7063 28.4496 31.8562 29.1025 32.0412C29.2728 32.0894 29.5514 32.1559 29.7216 32.19C29.8919 32.2241 30.362 32.3236 30.7664 32.4108C32.1957 32.7167 33.6969 32.8413 35.1 32.3289C36.3151 31.9011 37.4065 31.1183 38.2294 30.1088C38.5047 29.8108 39.0316 28.8919 38.8993 28.9404C38.858 28.9556 38.6385 29.1463 38.4108 29.3646C37.9767 29.7806 37.8047 29.9098 37.5184 30.0368C37.4232 30.0791 37.1967 30.1876 37.0154 30.2774C36.5046 30.5305 35.5008 30.7262 33.9779 30.8703C32.746 30.9911 31.5085 31.2146 30.2827 31.2969C30.9595 31.0928 31.5864 30.7574 32.1497 30.3196C32.4155 30.0821 33.0961 29.0504 33.3298 28.5311C33.3986 28.3783 33.5523 28.039 33.6732 27.777C33.7941 27.5151 33.8962 27.2814 33.8981 27.2586C33.8999 27.2357 34.0179 27.0295 34.1617 26.7997C34.3055 26.5698 34.4062 26.3658 34.3866 26.3457C34.3828 26.3419 34.378 26.3405 34.3697 26.3408ZM9.79699 26.4946C9.72703 26.5002 9.7763 26.632 9.93483 26.8865C10.2588 27.4067 10.2996 27.4842 10.745 28.3724C11.2937 29.4665 11.6407 30.0071 12.0509 30.4089C12.4346 30.7847 13.1293 31.184 13.5358 31.2622C13.6877 31.2914 13.8671 31.4036 13.8671 31.4036C13.8671 31.4036 13.4788 31.3978 13.277 31.349C12.9404 31.2815 10.6487 31.0477 9.44635 30.9595C7.91526 30.8472 6.63097 30.3752 5.79949 29.615C5.33761 29.1928 5.17115 29.1782 5.46092 29.5853C5.56153 29.7266 5.71642 29.9467 5.80432 30.0764C6.52056 30.9769 7.47847 31.8053 8.5225 32.2519C8.62492 32.3474 9.0413 32.4952 9.67848 32.6612C10.3705 32.8414 11.594 32.8564 12.6917 32.6984C13.1512 32.6322 13.5586 32.5585 13.5962 32.5347C13.6338 32.5108 13.8295 32.4597 14.0315 32.423C14.2336 32.3864 14.6603 32.2798 14.9795 32.1849C15.2987 32.0899 15.923 31.9329 16.3676 31.8351L17.1753 31.6565L16.7932 31.5573C16.5827 31.5023 16.297 31.4062 16.1572 31.344C15.4917 31.0665 14.7839 30.8778 14.2056 30.4014C14.0567 30.2871 13.6197 29.8815 13.2359 29.5009C12.2115 28.4853 11.2019 27.5402 10.6724 27.1022C10.172 26.6882 9.88692 26.4873 9.79695 26.4945L9.79699 26.4946ZM24.4518 31.5276C24.0356 31.5345 23.5839 31.5753 23.1049 31.6616C22.9996 31.6805 22.7867 31.7236 22.6333 31.7757C22.1595 31.9366 22.0305 31.9412 21.7312 31.8054C21.4944 31.6979 21.1601 31.6022 19.8933 31.5995C19.1549 31.6124 18.4369 31.643 17.741 31.8972C17.3159 31.9838 16.9212 32.1905 16.5077 32.3164C16.2417 32.4276 15.8115 32.6028 15.5524 32.7034C15.2933 32.804 14.856 32.9939 14.5802 33.1276C13.914 33.4505 13.004 33.6846 12.1716 33.7452C11.3171 33.8075 10.3712 33.6235 9.5864 33.2442C8.98157 32.9518 8.94312 32.9402 8.94312 33.0507C9.64929 33.9158 10.5892 34.4753 11.596 34.8913C11.9235 35.0696 13.344 35.2893 13.7797 35.2286C14.2826 35.1586 15.1887 34.9676 15.3807 34.8913C16.0416 34.6283 16.3311 34.4846 16.9139 34.1322C17.4358 33.8066 17.9225 33.4386 18.4326 33.1003C19.2681 32.4459 20.3811 32.0632 20.9887 32.2197C21.1862 32.2705 21.1522 32.3001 20.5099 32.6364C19.5941 33.116 18.8987 33.5877 17.9634 34.3628C17.0402 35.128 16.4258 35.7262 16.4616 35.8264C16.476 35.8667 16.6623 36.0438 16.8751 36.2208C17.088 36.3979 17.301 36.5442 17.3491 36.5458C17.3973 36.5473 17.5372 36.414 17.6587 36.2506C18.0791 35.6851 19.7279 34.0989 20.1544 33.8494C20.5717 33.5932 20.913 33.2235 21.3612 33.0135C21.5308 32.9278 21.7178 32.8125 21.7747 32.758C22.0092 32.533 22.7289 32.7765 23.4144 33.3111C23.5208 33.3941 23.7471 33.5684 23.9174 33.7006C24.4346 34.1022 24.8239 34.4289 25.187 34.7623C25.6245 35.1676 25.9763 35.6123 26.4203 36.0001C26.716 36.3119 26.9278 36.4731 27.0201 36.4565C27.2092 36.4225 27.8243 35.7653 27.7794 35.6453C27.6978 35.427 26.4706 34.3852 25.5038 33.713C25.142 33.4615 24.8286 33.2347 24.8073 33.2095C24.786 33.1842 24.6641 33.1067 24.5364 33.0383C24.4087 32.9699 24.0484 32.7722 23.736 32.5993L23.1677 32.2842L23.4168 32.2346C24.1331 32.0877 24.729 32.2781 25.7504 32.9813C26.1616 33.2753 26.5442 33.5995 26.9886 33.837C28.2024 34.6613 29.4516 35.0549 30.8483 35.055C31.9612 35.055 32.671 34.8519 33.7479 34.2265C34.4394 33.8249 35.5042 32.8876 35.3947 32.7754C35.3705 32.7506 35.1462 32.845 34.8966 32.9838C34.0921 33.431 33.5019 33.558 32.2364 33.5568C31.2937 33.5479 30.4126 33.3988 29.5472 32.9887C28.8411 32.6328 28.0922 32.3566 27.361 32.0635C27.0832 31.929 26.7834 31.8838 26.4904 31.7956C26.0402 31.6513 25.4014 31.5321 24.6283 31.5277C24.5703 31.5273 24.5112 31.5267 24.4517 31.5277L24.4518 31.5276Z" fill="#EFC08E"/>
</svg>
