<svg width="69" height="58" viewBox="0 0 69 58" fill="none" xmlns="http://www.w3.org/2000/svg">
<path fill-rule="evenodd" clip-rule="evenodd" d="M46.0571 21.0297L43.0542 20.4198V24.2994L25.6115 24.2994L29.0958 27.3024H43.0542V31.183H46.0571V21.0297ZM22.6079 21.0297L25.6109 20.4198V31.183H22.6079V21.0297Z" fill="#EFC08E"/>
<path d="M51.9615 0.0402673C51.9519 0.0407989 51.9456 0.0407999 51.9422 0.0442423C52.0313 0.59835 52.791 0.911213 53.0447 1.41323C53.4022 1.79223 53.9971 2.55283 54.3678 3.10759C54.7385 3.66234 55.1284 4.20877 55.2344 4.32183C55.3403 4.43488 55.6506 4.81038 55.923 5.15513C56.508 5.89567 57.9321 7.3277 58.8824 8.13128C59.2541 8.44555 59.7022 8.83125 59.8805 8.9884C60.3525 9.40447 60.5554 9.37714 60.3331 8.92491C60.2735 8.80364 60.1294 8.35985 60.012 7.94082C59.8946 7.52179 59.7552 7.09155 59.7026 6.98451C59.4567 6.23757 59.1916 5.55172 58.7625 4.88544C58.5361 4.44655 58.2804 4.01525 57.9656 3.66723C57.59 3.07166 56.9961 2.60106 56.4801 2.1951C55.2411 1.28223 53.8874 0.739188 52.4723 0.207011C52.2415 0.105441 52.029 0.037043 51.9616 0.0403525L51.9615 0.0402673ZM15.9415 0.476764C15.0349 0.511544 14.1705 1.23962 13.3379 1.54816C12.1578 2.12013 11.5046 2.58331 10.684 3.42514C9.97502 4.15235 8.86148 5.90739 8.74577 6.48064C8.65092 6.95099 8.31582 8.13166 8.13066 8.63925C8.04152 8.88369 7.93339 9.21225 7.89082 9.36939C7.77845 9.78411 7.96052 9.72182 8.57942 9.13924C8.88035 8.85598 9.32374 8.47291 9.56204 8.28609C9.80035 8.09927 10.1104 7.83188 10.2506 7.69088C10.3909 7.54987 10.7818 7.16841 11.1211 6.84567C11.4603 6.52292 11.9858 5.90422 12.2894 5.46871C12.5929 5.03319 13.1629 4.22676 13.5544 3.67506C14.068 2.94733 14.5411 2.19935 15.1947 1.58782C15.7053 1.03109 16.1231 0.53309 16.1232 0.480723C16.0624 0.476563 16.0019 0.474438 15.9415 0.476764ZM58.4145 3.2901L58.9561 3.90119C59.2548 4.23756 59.5362 4.54085 59.5789 4.57576C60.1248 5.38729 60.4516 6.27677 60.6196 7.24237C60.7175 7.55665 60.8894 8.18519 61.0025 8.63913C61.1157 9.09308 61.3096 9.83592 61.4358 10.2899C61.8127 11.6453 61.8216 11.6867 61.7376 11.6867C61.6931 11.6867 61.4811 11.4808 61.2656 11.2264C60.4615 10.2767 60.243 10.0803 58.7703 9.028C58.2937 8.68743 57.8003 8.31592 57.6755 8.19866C57.5508 8.08141 57.2722 7.87771 57.0565 7.7463C56.6462 7.49628 56.4005 7.21508 55.6677 6.16306L55.2267 5.52816L55.3118 6.16306C55.4119 6.90657 55.6123 7.50414 56.1436 8.6392C56.5382 9.48246 58.0557 11.1895 59.1417 12.0121C61.0788 13.4793 62.8251 15.219 63.223 16.0794C63.3381 16.3282 63.4616 16.5053 63.4938 16.4723C63.526 16.4393 63.5461 14.7657 63.5403 12.7502C63.5291 8.87893 63.4696 8.41055 62.8439 7.11546C62.018 5.40596 60.1473 3.68409 58.778 3.37347L58.4145 3.2901ZM9.40688 3.82183C8.97945 3.84085 7.77031 4.55373 7.05867 5.27415C5.70575 6.64367 5.20584 7.54242 4.92711 9.09947C4.61589 10.8377 4.59383 11.4515 4.77623 13.2104C4.87401 14.1532 4.92372 15.3674 4.88842 15.9088C4.84771 16.5331 4.87062 16.8929 4.95032 16.8929C5.01942 16.8929 5.11167 16.7929 5.15535 16.6707C5.44936 15.848 6.84103 14.2632 8.13033 13.282C10.2807 11.6453 11.8824 9.69255 12.5637 7.87738C12.9941 6.73075 13.0803 6.19764 12.8306 6.25041C12.7246 6.27284 12.5467 6.46151 12.4322 6.67103C12.1456 7.19536 11.3243 7.9781 9.933 9.05586C8.64751 10.1219 7.22703 11.0317 6.3932 12.5637C6.03148 13.4516 6.12006 12.841 6.52086 11.6827C6.74933 11.0225 7.03121 10.0232 7.14757 9.46458C7.47122 7.91058 7.70147 6.98126 7.9213 6.35352C8.19614 5.56873 8.86391 4.50605 9.24441 4.25047C9.41781 4.13393 9.56163 3.98689 9.56163 3.92508C9.56163 3.8472 9.50551 3.81744 9.40688 3.82183ZM63.8153 7.87722C63.6626 7.90494 63.7187 8.14296 63.9816 8.57561C64.0665 8.71529 64.2322 9.1735 64.3491 9.59146C64.5338 10.2517 64.5481 10.6347 64.4574 12.5121C64.4001 13.7004 64.3484 15.892 64.3453 17.3849C64.3417 19.0763 64.3042 19.9377 64.2408 19.6705C63.9687 18.5226 63.8212 18.1625 63.3007 17.3531C62.9916 16.8722 62.2941 16.0723 61.7533 15.5754C60.3234 14.2617 58.9205 12.8219 58.6624 12.4049C58.5379 12.2039 58.3921 12.0907 58.3336 12.151C58.2249 12.2628 58.5389 13.6089 58.8326 14.2898C59.1625 15.2381 59.4946 16.1249 60.0705 16.9444C60.9888 18.4316 62.1459 19.7563 63.0416 21.2538C63.558 22.0386 64.0754 23.1631 64.3531 24.0989C64.4824 24.5348 64.6179 24.8919 64.6548 24.8925C65.404 23.262 65.5533 21.2003 66.1868 19.6229C67.0966 17.4936 66.9112 13.1289 65.8193 10.9247C65.322 9.81658 64.7006 8.75364 63.8502 7.87722C63.8382 7.87722 63.8256 7.87537 63.8154 7.87722H63.8153ZM4.40906 8.43672C4.24482 8.47441 3.72418 9.08904 3.29104 9.86525C2.85624 10.6735 2.42308 11.4999 2.07244 12.3414C2.04963 12.5044 1.96796 12.839 1.89062 13.0834C1.5127 15.4208 1.4744 17.9162 2.37033 20.1308C2.50748 20.5498 2.79232 21.3784 3.00478 21.972C3.21723 22.5657 3.41659 23.1942 3.44579 23.3688C3.49508 23.6634 3.63075 24.2379 3.68564 24.3846C3.6987 24.4195 3.75207 24.6423 3.80557 24.8767L3.90228 25.3013L4.04929 24.9402C4.12938 24.7408 4.26588 24.3037 4.35491 23.972C4.65766 22.954 5.57915 21.4688 6.16926 20.6427C6.70826 19.8255 7.22166 19.0177 7.31049 18.849C7.8582 18.0821 8.42745 17.3326 8.81929 16.4642C8.81942 16.4029 8.97993 16.0029 9.1752 15.5753C9.77951 14.252 10.1299 12.7024 9.82513 12.7024C9.76522 12.7024 9.48502 13.0167 9.20228 13.4008C8.91955 13.7849 8.64623 14.0992 8.59491 14.0992C6.58905 15.6504 4.677 17.771 4.17696 20.3649C4.01556 21.3583 3.99035 20.6931 4.13054 19.1785C4.27554 17.6118 4.21061 16.3468 3.852 13.7461C3.58796 11.8313 3.75468 10.0517 4.30849 8.91291C4.48192 8.55634 4.4951 8.41697 4.40906 8.43672ZM67.63 17.1706C67.5696 17.171 67.5371 17.5076 67.4946 18.4166C67.3434 20.1831 66.8915 21.8383 66.2025 23.4561C65.4835 24.998 64.8711 26.6065 64.5583 28.2892C64.4457 29.0878 64.3395 28.7922 64.3069 27.579C64.2755 26.4131 64.1549 25.8871 63.7111 24.9799C63.438 24.3801 63.2616 23.7446 62.8639 23.2022C62.135 22.1738 61.5707 20.9967 61.0031 19.8769C60.8357 19.5277 60.6958 19.1706 60.6937 19.0832C60.6869 18.8068 60.4735 18.9123 60.3958 19.2301C60.2589 19.7895 60.5041 21.6893 61.0148 24.0037C61.3224 25.3981 62.0135 27.907 62.4152 29.0829C62.7845 30.1639 62.9226 31.3055 62.8408 32.6067C62.7532 34.0004 62.8465 34.212 63.2547 33.559C63.3748 33.367 64.2355 32.1763 65.1659 30.9122C66.0962 29.6481 66.9764 28.3626 67.1234 28.0552C68.6606 24.8402 68.9135 20.0838 67.6998 17.2738C67.6714 17.2079 67.6502 17.1705 67.63 17.1706ZM0.788661 17.7222C0.522093 17.9956 0.030631 20.7872 0.0304237 22.0276C0.0302163 23.2298 0.241635 24.992 0.479177 25.7734C1.16099 28.1834 2.25556 30.3372 4.01509 32.1581C4.53865 32.8217 5.08655 33.5986 5.2337 33.8882C5.69853 34.8029 5.7869 34.5914 5.7869 32.543C5.79811 31.2027 5.91336 29.9531 6.40588 28.7018L6.77726 27.3686C6.87469 27.0194 7.04482 26.3909 7.15252 25.9718C7.26023 25.5528 7.42945 24.9185 7.52778 24.5631C7.723 23.7708 7.69909 22.9563 7.88756 22.1625C8.08071 21.342 8.1436 19.0514 7.97267 19.0514C7.04439 20.1058 5.02361 25.0999 4.82367 25.4639C4.33092 26.8435 4.24542 27.3511 4.29755 28.682C4.35477 30.143 4.20654 30.2807 4.00354 28.9558C3.74661 27.279 3.37983 26.033 2.82362 24.96C2.64892 24.623 2.5064 24.297 2.5064 24.2378C2.5064 24.1785 2.33927 23.7686 2.13501 23.3251C1.93076 22.8817 1.76363 22.4769 1.76363 22.4244C1.76363 22.3718 1.68514 22.1484 1.58954 21.9283C1.19155 21.0121 1.00919 20.1871 0.935747 18.9562C0.892977 18.2394 0.826946 17.6829 0.788661 17.7222ZM60.9373 26.5432C60.419 27.4748 60.2757 28.6794 59.9547 29.6899C59.7757 30.6189 59.328 34.8308 59.328 35.5905C59.328 36.8839 58.602 40.4427 58.1829 41.2093C57.8195 41.8742 57.7367 42.0871 57.796 42.1855C59.1263 41.3991 60.4276 40.5055 61.6801 39.622C62.0698 39.4004 62.4025 39.0835 62.7943 38.8602C63.0522 38.6506 63.2924 38.4792 63.3281 38.4792C65.3974 36.7986 67.1731 34.7271 68.0323 32.1302C68.5309 30.5917 68.794 28.0705 68.5314 27.3685C68.4243 27.0824 68.2438 27.3686 68.2412 27.8288C68.2389 28.2299 67.6229 29.8453 67.3747 30.0985C67.3404 30.1334 67.1455 30.4148 66.9414 30.7255C66.7373 31.0361 65.9504 31.9504 65.1927 32.7572C64.4351 33.564 63.6055 34.4825 63.3513 34.7968C62.8902 35.3109 62.4877 35.8243 62.1366 36.4278C61.843 36.824 61.3694 37.5602 61.3164 37.6301C60.9155 38.1594 60.7025 38.4909 60.6781 38.5071C60.6866 38.471 60.8295 38.198 61.1114 37.6143C61.4243 36.9662 61.6478 36.1823 61.8077 35.039C61.9671 33.8994 61.8945 32.9509 61.4944 30.924C61.1788 29.3252 61.0611 28.3687 61.0611 27.448C61.0611 26.9287 61.0083 26.5432 60.9373 26.5432ZM7.70163 27.4638C7.62704 27.4574 7.58256 27.598 7.58171 27.8963C7.5802 28.4258 7.19153 30.705 6.94725 31.6224C6.85677 31.9622 6.79325 33.0172 6.79251 34.2255C6.80059 35.557 6.81762 36.9384 7.53915 38.1024C7.71933 38.3816 7.8349 38.6442 7.79835 38.6817C7.19905 38.1373 6.95294 37.324 6.41342 36.7214C6.21287 36.4186 5.7113 35.79 5.29927 35.3246C4.42413 34.3361 2.44765 32.1931 2.04195 31.789C1.88752 31.6352 1.76341 31.4696 1.76341 31.424C1.76341 31.3783 1.60488 31.1348 1.41137 30.8803C0.948959 30.2722 0.383067 29.0161 0.3359 28.4955C0.315266 28.2678 0.237165 27.9787 0.165687 27.8527C-0.038566 27.4925 -0.00297089 30.1011 0.21211 31.3049C0.438923 32.5743 0.62085 33.0959 1.29144 34.392C1.92167 35.6102 2.98515 36.956 3.92977 37.7292C4.30309 38.0347 4.61064 38.3308 4.61064 38.3839C5.89931 39.3052 7.20116 40.2852 8.49084 41.1497C8.57028 41.1523 9.10749 41.4908 9.68624 41.8997C11.0938 42.894 11.1016 42.8919 10.6302 41.856C10.4681 41.4999 10.2493 41.0092 10.1466 40.7648C9.77988 39.8917 9.38502 37.6554 9.24909 35.6856C9.05308 32.845 8.55374 29.6009 8.09625 28.2017C7.94073 27.726 7.79756 27.472 7.70166 27.4637L7.70163 27.4638ZM58.5855 33.8723C58.5718 33.8691 58.5587 33.8722 58.543 33.8763C58.4484 33.9011 58.307 34.0635 58.1097 34.3762C57.8978 34.7121 57.5856 35.1534 57.4133 35.3564C56.6065 36.5195 55.8653 37.7766 55.3669 39.1102C55.3669 39.1842 55.3109 39.3461 55.2431 39.4673C55.1753 39.5886 54.8985 40.3713 54.628 41.2093C54.0373 43.0392 53.7948 43.7443 53.6492 44.0385C53.5892 44.1599 53.4208 44.5139 53.274 44.8282C52.8159 45.8085 52.2476 46.6426 51.5641 47.3439C51.3396 47.5743 51.1579 47.7886 51.1579 47.8201C51.1579 47.9241 51.6637 47.8803 51.889 47.7566C52.1589 47.6085 53.696 47.2468 54.6242 47.1138C56.3663 46.8641 57.0065 46.6963 58.5895 46.0781C59.6684 45.6568 61.7918 44.1549 62.9804 42.971C64.0098 41.9458 64.9377 40.6222 65.5104 39.364C65.8703 38.5733 66.4204 36.6983 66.3228 36.5982C66.2973 36.5721 66.1627 36.77 66.021 37.0387C65.6132 37.8124 65.4973 37.9715 64.7754 38.7688C64.1322 39.479 62.9548 40.4904 62.547 40.6814C62.4449 40.7292 62.1942 40.8774 61.9899 41.0107C61.7857 41.144 61.2007 41.4621 60.6901 41.717C60.1795 41.972 59.6781 42.2304 59.576 42.2924C59.4739 42.3545 59.0921 42.5544 58.7288 42.7368C57.4337 43.4751 56.1656 44.2752 55.0498 45.2725C54.8044 45.517 54.5715 45.7169 54.5314 45.7169C54.4645 45.7169 54.8735 45.2048 55.1891 44.8956C56.2667 43.5847 57.0471 42.074 57.3903 40.3837C57.4972 39.86 57.6743 38.8315 57.7849 38.0981C58.0585 36.285 58.3187 35.0812 58.5548 34.5069C58.6897 34.1788 58.7111 33.9848 58.6244 33.8958C58.6136 33.8847 58.5994 33.8753 58.5857 33.872L58.5855 33.8723ZM9.97702 34.2889C9.67045 34.3035 10.4739 36.0693 10.4335 36.5111C10.8516 38.4564 10.9248 38.8729 10.9248 39.253C10.9248 40.1294 11.79 43.0491 12.1628 43.4315C12.5616 44.2103 12.9707 44.8874 13.6792 45.3878L14.5767 46.2688L13.8146 45.745C13.3963 45.4566 12.9713 45.13 12.8668 45.0228C11.6828 44.2931 10.6124 43.3296 9.30768 42.7848C5.37552 40.9254 3.85777 39.7585 2.59569 37.6183C2.2867 37.0943 2.25407 37.0657 2.31715 37.4C2.35668 37.6096 2.41988 37.9506 2.45642 38.1579C3.16523 40.2937 4.33672 42.1604 5.98067 43.6855C6.33547 43.9997 6.74246 44.365 6.88593 44.495C8.54167 45.8467 10.4974 46.7784 12.5959 47.1218L14.7623 47.5028C15.0106 47.5488 17.785 48.336 17.478 47.8758C17.1212 47.8758 15.8895 46.1897 15.2497 44.8282C15.1019 44.514 14.9305 44.1599 14.8705 44.0386C14.7329 43.7603 14.5095 43.1249 13.8879 41.2331C13.2206 39.2025 12.3199 37.3147 11.5126 36.257C11.4593 36.1872 11.1407 35.7659 10.8008 35.3205C10.4609 34.8751 10.1818 34.4609 10.1818 34.3999C10.0871 34.3216 10.0206 34.2868 9.9768 34.2888L9.97702 34.2889ZM53.9518 41.1974C53.7519 41.2043 52.77 41.9332 52.1026 42.5823C51.7302 42.9445 51.2114 43.4218 50.9498 43.6418C50.6881 43.8619 49.6472 44.8761 48.6363 45.8957C46.9467 47.5848 45.135 49.0544 42.6941 49.3996C42.5229 49.3996 42.3527 49.4521 42.315 49.5146C42.2267 49.6612 42.5376 49.7805 43.0036 49.7805C43.3556 49.7805 44.4816 50.0203 45.526 50.3162C45.7983 50.3934 46.244 50.4997 46.5163 50.5543C46.7887 50.6088 47.5407 50.7679 48.1876 50.9074C50.4741 51.3968 52.8755 51.5962 55.1201 50.7765C57.0638 50.0922 58.8097 48.8398 60.1261 47.225C60.5666 46.7484 61.4095 45.2783 61.1977 45.356C61.1317 45.3802 60.7806 45.6853 60.4163 46.0345C59.7219 46.7 59.4467 46.9066 58.9887 47.1099C58.8364 47.1775 58.4741 47.351 58.184 47.4948C57.3671 47.8997 55.7612 48.2126 53.3251 48.4432C51.3544 48.6365 49.3748 48.994 47.4139 49.1257C48.4966 48.799 49.4993 48.2625 50.4004 47.5622C50.8257 47.1824 51.9144 45.5319 52.2882 44.7012C52.3983 44.4567 52.6442 43.9139 52.8376 43.4949C53.031 43.0759 53.1944 42.7021 53.1974 42.6655C53.2003 42.629 53.389 42.2992 53.619 41.9314C53.8491 41.5637 54.0101 41.2374 53.9788 41.2053C53.9728 41.1991 53.9651 41.1969 53.9518 41.1974ZM14.6431 41.4434C14.5312 41.4523 14.61 41.6632 14.8636 42.0704C15.3819 42.9025 15.4471 43.0265 16.1597 44.4472C17.0373 46.1976 17.5925 47.0623 18.2487 47.705C18.8624 48.3063 19.9738 48.945 20.624 49.07C20.867 49.1168 21.154 49.2962 21.154 49.2962C21.154 49.2962 20.5329 49.287 20.2101 49.2089C19.6716 49.1009 16.0057 48.727 14.0822 48.5859C11.6329 48.4063 9.57847 47.6512 8.24836 46.4352C7.50949 45.7597 7.24321 45.7363 7.70675 46.3875C7.8677 46.6137 8.11548 46.9657 8.2561 47.1732C9.40185 48.6137 10.9342 49.9389 12.6043 50.6533C12.7682 50.806 13.4343 51.0426 14.4535 51.308C15.5605 51.5962 17.5178 51.6203 19.2738 51.3675C20.0088 51.2617 20.6606 51.1437 20.7207 51.1056C20.7808 51.0675 21.0938 50.9857 21.417 50.9271C21.7403 50.8684 22.4229 50.698 22.9335 50.5461C23.4441 50.3942 24.4428 50.143 25.1541 49.9866L26.4462 49.7009L25.8349 49.5422C25.4982 49.4542 25.0411 49.3004 24.8175 49.2009C23.7529 48.757 22.6206 48.4552 21.6956 47.693C21.4573 47.5102 20.7582 46.8613 20.1443 46.2526C18.5056 44.628 16.8906 43.1161 16.0435 42.4154C15.243 41.7531 14.787 41.4318 14.6431 41.4432L14.6431 41.4434ZM38.0863 49.4947C37.4204 49.5056 36.6979 49.571 35.9316 49.7089C35.7632 49.7393 35.4225 49.8081 35.1772 49.8915C34.4193 50.149 34.2129 50.1563 33.7342 49.9391C33.3553 49.7672 32.8206 49.6139 30.7941 49.6097C29.6129 49.6303 28.4643 49.6793 27.3511 50.0859C26.671 50.2244 26.0396 50.5551 25.3781 50.7565C24.9526 50.9343 24.2645 51.2146 23.85 51.3755C23.4355 51.5365 22.736 51.8403 22.2948 52.0541C21.229 52.5706 19.7734 52.9451 18.4417 53.0422C17.0748 53.1417 15.5617 52.8475 14.3062 52.2406C13.3387 51.773 13.2772 51.7543 13.2772 51.9311C14.4068 53.315 15.9105 54.2101 17.521 54.8755C18.0449 55.1608 20.3173 55.5122 21.0143 55.4151C21.8187 55.3031 23.2682 54.9976 23.5753 54.8755C24.6326 54.4548 25.0957 54.2249 26.0279 53.6612C26.8628 53.1403 27.6414 52.5516 28.4574 52.0105C29.7939 50.9636 31.5743 50.3515 32.5464 50.6017C32.8624 50.6831 32.8079 50.7304 31.7805 51.2684C30.3154 52.0355 29.203 52.7901 27.7068 54.0302C26.23 55.2542 25.2471 56.2111 25.3044 56.3714C25.3274 56.4358 25.6255 56.7191 25.966 57.0023C26.3064 57.2855 26.6472 57.5197 26.7242 57.5221C26.8012 57.5246 27.025 57.3113 27.2194 57.0499C27.892 56.1454 30.5296 53.6079 31.2118 53.2088C31.8793 52.7989 32.4253 52.2075 33.1422 51.8716C33.4135 51.7345 33.7128 51.5501 33.8038 51.4629C34.1789 51.103 35.3302 51.4925 36.4267 52.3478C36.5969 52.4805 36.959 52.7593 37.2313 52.9707C38.0587 53.6132 38.6816 54.1359 39.2623 54.6691C39.9622 55.3174 40.525 56.0289 41.2353 56.6492C41.7083 57.1481 42.047 57.4059 42.1947 57.3793C42.4972 57.3249 43.4812 56.2736 43.4094 56.0818C43.2788 55.7325 41.3157 54.0659 39.7691 52.9906C39.1903 52.5883 38.689 52.2255 38.6549 52.1851C38.6209 52.1447 38.4259 52.0207 38.2217 51.9113C38.0174 51.8019 37.441 51.4856 36.9412 51.209L36.032 50.705L36.4305 50.6257C37.5764 50.3906 38.5297 50.6952 40.1636 51.8201C40.8214 52.2905 41.4334 52.809 42.1444 53.189C44.0861 54.5077 46.0843 55.1373 48.3186 55.1374C50.099 55.1375 51.2345 54.8125 52.9571 53.812C54.0632 53.1696 55.7666 51.6702 55.5915 51.4907C55.5528 51.451 55.194 51.602 54.7946 51.8241C53.5077 52.5394 52.5636 52.7426 50.5392 52.7407C49.0311 52.7264 47.6217 52.488 46.2373 51.832C45.1078 51.2626 43.9097 50.8208 42.7401 50.3519C42.2957 50.1368 41.816 50.0644 41.3474 49.9233C40.6271 49.6926 39.6053 49.5019 38.3686 49.4948C38.2758 49.4942 38.1813 49.4932 38.0862 49.4948L38.0863 49.4947Z" fill="#EFC08E"/>
</svg>
