<svg width="283" height="15" viewBox="0 0 283 15" fill="none" xmlns="http://www.w3.org/2000/svg">
<path fill-rule="evenodd" clip-rule="evenodd" d="M148.607 7.44316C148.577 7.44383 148.546 7.44426 148.515 7.44446C148.546 7.44465 148.577 7.44509 148.607 7.44575H148.342C148.374 7.44508 148.406 7.44465 148.437 7.44446C148.406 7.44426 148.374 7.44383 148.342 7.44316H148.607ZM148.342 7.44316H141.5V0.335724C141.5 5.93664 145.903 7.39196 148.342 7.44316ZM148.342 7.44575C145.903 7.49696 141.5 8.95228 141.5 14.5532V7.44575H148.342ZM134.485 7.44446C134.454 7.44465 134.423 7.44509 134.392 7.44575H134.657C137.097 7.49696 141.5 8.95228 141.5 14.5532V7.44575H134.657C134.625 7.44508 134.594 7.44465 134.563 7.44446C134.594 7.44426 134.625 7.44383 134.657 7.44316H141.5V0.335724C141.5 5.93664 137.097 7.39196 134.657 7.44316H134.392C134.423 7.44383 134.454 7.44426 134.485 7.44446Z" fill="#956934"/>
<path d="M123.528 7.44434H0.956177" stroke="#956934"/>
<path d="M282.044 7.44434H159.472" stroke="#956934"/>
</svg>
