<svg width="1065" height="946" viewBox="0 0 1065 946" fill="none" xmlns="http://www.w3.org/2000/svg">
<g clip-path="url(#clip0_1519_2710)">
<path fill-rule="evenodd" clip-rule="evenodd" d="M725.769 189.93V94.7295H630.568V189.93H725.769ZM726.769 189.93V94.7295H821.969V189.93H726.769ZM821.969 190.93H726.769V286.13H821.969V190.93ZM822.969 286.13V190.93H918.17V286.13H822.969ZM821.969 287.13H726.769V382.33H821.969V287.13ZM822.969 382.33V287.13H918.17V382.33H822.969ZM821.969 383.33H726.769V478.53H821.969V383.33ZM822.969 478.53V383.33H918.17V478.53H822.969ZM821.969 479.53H726.769V574.73H821.969L821.969 479.53ZM822.969 574.73L822.969 479.53H918.17L918.17 574.73H822.969ZM821.969 575.73H726.769V670.931H821.969V575.73ZM822.969 670.931V575.73H918.17V670.931H822.969ZM821.969 671.931H726.769V767.131H821.969V671.931ZM822.969 767.131V671.931H918.17V767.131H822.969ZM821.969 768.131H726.769V863.331H821.969V768.131ZM822.969 863.331V768.131H918.17V863.331H822.969ZM821.969 864.331H726.769V959.531H821.969V864.331ZM822.969 959.531V864.331H918.17V959.531H822.969ZM821.969 960.531H726.769V1055.73H821.969V960.531ZM822.969 1055.73V960.531H918.17V1055.73H822.969ZM821.969 1056.73H726.769V1151.93H821.969V1056.73ZM822.969 1151.93V1056.73H918.17V1151.93H822.969ZM821.969 1152.93V1439.86H822.969V1152.93H918.17V1439.86H919.17V1152.93H1014.37V1439.86H1015.37V1152.93H1110.57V1439.86H1111.57V1152.93H1206.77V1439.86H1207.77V1152.93H1302.97V1439.86H1303.97V1152.93H1307V1151.93H1303.97V1056.73H1307V1055.73H1303.97V960.531H1307V959.531H1303.97V864.331H1307V863.331H1303.97V768.131H1307V767.131H1303.97V671.931H1307V670.931H1303.97V575.73H1307V574.73H1303.97L1303.97 479.53H1307V478.53H1303.97V383.33H1307V382.33H1303.97V287.13H1307V286.13H1303.97V190.93H1307V189.93H1303.97V94.7295H1307V93.7295H1303.97V-1.4707H1307V-2.4707H1303.97V-341.855H1302.97V-2.4707H1207.77V-341.855H1206.77V-2.4707H1111.57V-341.855H1110.57V-2.4707H1015.37V-341.855H1014.37V-2.4707H919.17V-341.855H918.17V-2.4707H822.969V-341.855H821.969V-2.4707H726.769V-341.855H725.769V-2.4707H630.568V-341.855H629.568V-2.4707H534.369V-341.855H533.369V-2.4707H438.168V-341.855H437.168V-2.4707H341.969V-341.855H340.969V-2.4707H245.768V-341.855H244.768V-2.4707H149.568V-341.855H148.568V-2.4707H53.3672V-341.855H52.3672V-2.4707H-42.8321L-42.832 -341.855H-43.832L-43.8321 -2.4707H-139.033L-139.033 -341.855H-140.033L-140.033 -2.4707H-235.232L-235.232 -341.855H-236.232L-236.232 -2.4707H-331.434L-331.434 -341.855H-332.434L-332.434 -2.4707H-427.633L-427.633 -341.855H-428.633L-428.633 -2.4707H-474.711V-1.4707H-428.633L-428.633 93.7295H-474.711V94.7295H-428.633L-428.633 189.93H-474.711V190.93H-428.633L-428.633 286.13H-474.711V287.13H-428.633L-428.633 382.33H-474.711V383.33H-428.633L-428.633 478.53H-474.711V479.53H-428.633L-428.633 574.73H-474.711V575.73H-428.633L-428.633 670.931H-474.711V671.931H-428.633L-428.633 767.131H-474.711V768.131H-428.633L-428.633 863.331H-474.711V864.331H-428.633L-428.633 959.531H-474.711V960.531H-428.633L-428.633 1055.73H-474.711V1056.73H-428.633L-428.633 1151.93H-474.711V1152.93H-428.633L-428.633 1439.86H-427.633L-427.633 1152.93H-332.434L-332.434 1439.86H-331.434L-331.434 1152.93H-236.232L-236.232 1439.86H-235.232L-235.232 1152.93H-140.033L-140.033 1439.86H-139.033L-139.033 1152.93H-43.8321L-43.8321 1439.86H-42.8321L-42.8321 1152.93H52.3671V1439.86H53.3671V1152.93H148.568V1439.86H149.568V1152.93H244.768L244.768 1439.86H245.768L245.768 1152.93H340.969L340.969 1439.86H341.969L341.969 1152.93H437.168L437.168 1439.86H438.168L438.168 1152.93H533.369L533.369 1439.86H534.369L534.369 1152.93H629.568L629.568 1439.86H630.568L630.568 1152.93H725.769L725.769 1439.86H726.769L726.769 1152.93H821.969ZM821.969 -1.4707H726.769V93.7295H821.969V-1.4707ZM822.969 94.7295H918.17V189.93H822.969V94.7295ZM822.969 93.7295V-1.4707H918.17V93.7295H822.969ZM919.17 189.93V94.7295H1014.37V189.93H919.17ZM919.17 190.93V286.13H1014.37V190.93H919.17ZM919.17 287.13V382.33H1014.37V287.13H919.17ZM919.17 383.33V478.53H1014.37V383.33H919.17ZM919.17 479.53L919.17 574.73H1014.37L1014.37 479.53H919.17ZM919.17 575.73V670.931H1014.37V575.73H919.17ZM919.17 671.931V767.131H1014.37V671.931H919.17ZM919.17 768.131V863.331H1014.37V768.131H919.17ZM919.17 864.331V959.531H1014.37V864.331H919.17ZM919.17 960.531V1055.73H1014.37V960.531H919.17ZM-427.633 93.7295L-427.633 -1.4707H-332.434V93.7295H-427.633ZM-332.434 94.7295H-427.633L-427.633 189.93H-332.434V94.7295ZM-332.434 190.93H-427.633L-427.633 286.13H-332.434L-332.434 190.93ZM-332.434 287.13H-427.633L-427.633 382.33H-332.434V287.13ZM-332.434 383.33H-427.633L-427.633 478.53H-332.434V383.33ZM-332.434 479.53H-427.633L-427.633 574.73H-332.434L-332.434 479.53ZM-332.434 575.73H-427.633L-427.633 670.931H-332.434V575.73ZM-332.434 671.931H-427.633L-427.633 767.131H-332.434V671.931ZM-332.434 768.131H-427.633L-427.633 863.331H-332.434V768.131ZM-332.434 864.331H-427.633L-427.633 959.531H-332.434L-332.434 864.331ZM-332.434 960.531H-427.633L-427.633 1055.73H-332.434V960.531ZM-332.434 1056.73H-427.633L-427.633 1151.93H-332.434V1056.73ZM725.769 1151.93V1056.73H630.568V1151.93H725.769ZM629.568 1151.93V1056.73H534.369V1151.93H629.568ZM533.369 1151.93V1056.73H438.168V1151.93H533.369ZM437.168 1151.93V1056.73H341.969V1151.93H437.168ZM340.969 1151.93V1056.73H245.768V1151.93H340.969ZM244.768 1151.93V1056.73H149.568V1151.93H244.768ZM148.568 1151.93V1056.73H53.3671V1151.93H148.568ZM52.3671 1151.93V1056.73H-42.8321V1151.93H52.3671ZM-43.8321 1151.93V1056.73H-139.033V1151.93H-43.8321ZM-140.033 1151.93V1056.73H-235.232V1151.93H-140.033ZM-236.232 1151.93V1056.73H-331.434V1151.93H-236.232ZM1302.97 1151.93V1056.73H1207.77V1151.93H1302.97ZM1206.77 1151.93V1056.73H1111.57V1151.93H1206.77ZM1110.57 1151.93V1056.73H1015.37V1151.93H1110.57ZM1014.37 1151.93V1056.73H919.17V1151.93H1014.37ZM919.17 93.7295V-1.4707H1014.37V93.7295H919.17ZM1015.37 286.13V190.93H1110.57V286.13H1015.37ZM1015.37 382.33V287.13H1110.57V382.33H1015.37ZM1015.37 478.53V383.33H1110.57V478.53H1015.37ZM1015.37 574.73L1015.37 479.53H1110.57L1110.57 574.73H1015.37ZM1015.37 670.931V575.73H1110.57V670.931H1015.37ZM1015.37 767.131V671.931H1110.57V767.131H1015.37ZM1015.37 863.331V768.131H1110.57V863.331H1015.37ZM1015.37 959.531V864.331H1110.57V959.531H1015.37ZM-331.434 -1.4707V93.7295H-236.232V-1.4707H-331.434ZM-331.434 94.7295H-236.232V189.93H-331.434V94.7295ZM-331.434 190.93H-236.232L-236.232 286.13H-331.434L-331.434 190.93ZM-331.434 287.13H-236.232V382.33H-331.434V287.13ZM-331.434 383.33H-236.232V478.53H-331.434V383.33ZM-331.434 479.53H-236.232L-236.232 574.73H-331.434L-331.434 479.53ZM-331.434 575.73H-236.232V670.931H-331.434V575.73ZM-331.434 671.931H-236.232V767.131H-331.434V671.931ZM-331.434 768.131H-236.232V863.331H-331.434V768.131ZM-331.434 864.331H-236.232L-236.232 959.531H-331.434L-331.434 864.331ZM-331.434 960.531H-236.232V1055.73H-331.434V960.531ZM725.769 960.531V1055.73H630.568V960.531H725.769ZM629.568 960.531V1055.73H534.369V960.531H629.568ZM533.369 960.531V1055.73H438.168V960.531H533.369ZM437.168 960.531V1055.73H341.969V960.531H437.168ZM340.969 960.531V1055.73H245.768V960.531H340.969ZM244.768 960.531V1055.73H149.568V960.531H244.768ZM148.568 960.531V1055.73H53.3671V960.531H148.568ZM52.3671 960.531V1055.73H-42.8321V960.531H52.3671ZM-43.8321 960.531V1055.73H-139.033V960.531H-43.8321ZM-140.033 960.531V1055.73H-235.232V960.531H-140.033ZM1302.97 960.531V1055.73H1207.77V960.531H1302.97ZM1206.77 960.531V1055.73H1111.57V960.531H1206.77ZM1110.57 960.531V1055.73H1015.37V960.531H1110.57ZM1015.37 94.7295H1110.57V189.93H1015.37V94.7295ZM1015.37 93.7295V-1.4707H1110.57V93.7295H1015.37ZM1111.57 189.93V94.7295H1206.77V189.93H1111.57ZM1111.57 190.93V286.13H1206.77V190.93H1111.57ZM1111.57 287.13V382.33H1206.77V287.13H1111.57ZM1111.57 383.33V478.53H1206.77V383.33H1111.57ZM1111.57 479.53L1111.57 574.73H1206.77L1206.77 479.53H1111.57ZM1111.57 575.73V670.931H1206.77V575.73H1111.57ZM1111.57 671.931V767.131H1206.77V671.931H1111.57ZM1111.57 768.131V863.331H1206.77V768.131H1111.57ZM-235.232 93.7295V-1.4707H-140.033V93.7295H-235.232ZM-140.033 94.7295H-235.232V189.93H-140.033V94.7295ZM-140.033 190.93H-235.232L-235.232 286.13H-140.033V190.93ZM-140.033 287.13H-235.232V382.33H-140.033V287.13ZM-140.033 383.33H-235.232V478.53H-140.033V383.33ZM-140.033 479.53H-235.232L-235.232 574.73H-140.033L-140.033 479.53ZM-140.033 575.73H-235.232V670.931H-140.033V575.73ZM-140.033 671.931H-235.232V767.131H-140.033V671.931ZM-140.033 768.131H-235.232V863.331H-140.033V768.131ZM-140.033 864.331H-235.232L-235.232 959.531H-140.033V864.331ZM725.769 959.531V864.331H630.568V959.531H725.769ZM629.568 959.531V864.331H534.369V959.531H629.568ZM533.369 959.531V864.331H438.168V959.531H533.369ZM437.168 959.531V864.331H341.969V959.531H437.168ZM340.969 959.531V864.331H245.768V959.531H340.969ZM244.768 959.531V864.331H149.568V959.531H244.768ZM148.568 959.531V864.331H53.3671V959.531H148.568ZM52.3671 959.531V864.331H-42.8321V959.531H52.3671ZM-43.8321 959.531V864.331H-139.033V959.531H-43.8321ZM1302.97 959.531V864.331H1207.77V959.531H1302.97ZM1206.77 959.531V864.331H1111.57V959.531H1206.77ZM1111.57 93.7295V-1.4707H1206.77V93.7295H1111.57ZM1207.77 286.13V190.93H1302.97V286.13H1207.77ZM1207.77 382.33V287.13H1302.97V382.33H1207.77ZM1207.77 478.53V383.33H1302.97V478.53H1207.77ZM1207.77 574.73L1207.77 479.53H1302.97L1302.97 574.73H1207.77ZM1207.77 670.931V575.73H1302.97V670.931H1207.77ZM1207.77 767.131V671.931H1302.97V767.131H1207.77ZM-139.033 -1.4707V93.7295H-43.8321V-1.4707H-139.033ZM-139.033 94.7295H-43.8321V189.93H-139.033V94.7295ZM-139.033 190.93H-43.8321V286.13H-139.033V190.93ZM-139.033 287.13H-43.8321V382.33H-139.033V287.13ZM-139.033 383.33H-43.8321V478.53H-139.033V383.33ZM-139.033 479.53H-43.8321L-43.8321 574.73H-139.033L-139.033 479.53ZM-139.033 575.73H-43.8321V670.931H-139.033V575.73ZM-139.033 671.931H-43.8321V767.131H-139.033V671.931ZM-139.033 768.131H-43.8321V863.331H-139.033V768.131ZM725.769 768.131V863.331H630.568V768.131H725.769ZM629.568 768.131V863.331H534.369V768.131H629.568ZM533.369 768.131V863.331H438.168V768.131H533.369ZM437.168 768.131V863.331H341.969V768.131H437.168ZM340.969 768.131V863.331H245.768V768.131H340.969ZM244.768 768.131V863.331H149.568V768.131H244.768ZM148.568 768.131V863.331H53.3671V768.131H148.568ZM52.3671 768.131V863.331H-42.8321V768.131H52.3671ZM1302.97 768.131V863.331H1207.77V768.131H1302.97ZM1207.77 94.7295H1302.97V189.93H1207.77V94.7295ZM1207.77 93.7295V-1.4707H1302.97V93.7295H1207.77ZM52.3671 767.131H-42.8321V671.931H52.3671V767.131ZM52.3671 670.931H-42.8321V575.73H52.3671V670.931ZM52.3671 574.73H-42.8321L-42.8321 479.53H52.3672L52.3671 574.73ZM52.3672 478.53H-42.8321V383.33H52.3672V478.53ZM52.3672 382.33H-42.8321V287.13H52.3672V382.33ZM52.3672 286.13H-42.8321V190.93H52.3672V286.13ZM52.3672 189.93H-42.8321V94.7295H52.3672V189.93ZM52.3672 93.7295H-42.8321V-1.4707H52.3672V93.7295ZM53.3671 767.131H148.568V671.931H53.3671V767.131ZM149.568 767.131H244.768V671.931H149.568V767.131ZM245.768 767.131H340.969V671.931H245.768V767.131ZM341.969 767.131H437.168V671.931H341.969V767.131ZM438.168 767.131H533.369V671.931H438.168V767.131ZM534.369 767.131H629.568V671.931H534.369V767.131ZM630.568 767.131H725.769V671.931H630.568V767.131ZM53.3671 670.931H148.568V575.73H53.3671V670.931ZM53.3671 574.73H148.568L148.568 479.53H53.3672L53.3671 574.73ZM53.3672 478.53H148.568V383.33H53.3672V478.53ZM53.3672 382.33H148.568V287.13H53.3672V382.33ZM53.3672 286.13H148.568V190.93H53.3672V286.13ZM53.3672 189.93H148.568V94.7295H53.3672V189.93ZM53.3672 93.7295H148.568V-1.4707H53.3672V93.7295ZM244.768 670.931H149.568V575.73H244.768V670.931ZM340.969 670.931H245.768V575.73H340.969V670.931ZM437.168 670.931H341.969V575.73H437.168V670.931ZM533.369 670.931H438.168V575.73H533.369V670.931ZM629.568 670.931H534.369V575.73H629.568V670.931ZM725.769 670.931H630.568V575.73H725.769V670.931ZM149.568 93.7295V-1.4707H244.768V93.7295H149.568ZM244.768 94.7295H149.568V189.93H244.768V94.7295ZM149.568 286.13V190.93H244.768V286.13H149.568ZM149.568 382.33V287.13H244.768V382.33H149.568ZM149.568 478.53V383.33H244.768V478.53H149.568ZM149.568 574.73L149.568 479.53H244.768V574.73H149.568ZM725.769 574.73V479.53H630.568V574.73H725.769ZM629.568 574.73V479.53H534.369V574.73H629.568ZM533.369 574.73V479.53H438.168V574.73H533.369ZM437.168 574.73V479.53H341.969V574.73H437.168ZM340.969 574.73V479.53H245.768V574.73H340.969ZM245.768 478.53H340.969V383.33H245.768V478.53ZM245.768 382.33H340.969V287.13H245.768V382.33ZM245.768 286.13H340.969V190.93H245.768V286.13ZM245.768 189.93H340.969V94.7295H245.768V189.93ZM245.768 93.7295H340.969V-1.4707H245.768V93.7295ZM437.168 478.53H341.969V383.33H437.168V478.53ZM533.369 478.53H438.168V383.33H533.369V478.53ZM629.568 478.53H534.369V383.33H629.568V478.53ZM725.769 478.53H630.568V383.33H725.769V478.53ZM341.969 93.7295V-1.4707H437.168V93.7295H341.969ZM437.168 94.7295H341.969V189.93H437.168V94.7295ZM341.969 286.13V190.93H437.168V286.13H341.969ZM341.969 382.33V287.13H437.168V382.33H341.969ZM725.769 382.33V287.13H630.568V382.33H725.769ZM629.568 382.33V287.13H534.369V382.33H629.568ZM533.369 382.33V287.13H438.168V382.33H533.369ZM438.168 286.13H533.369V190.93H438.168V286.13ZM438.168 189.93H533.369V94.7295H438.168V189.93ZM438.168 93.7295H533.369V-1.4707H438.168V93.7295ZM629.568 286.13H534.369V190.93H629.568V286.13ZM725.769 286.13H630.568V190.93H725.769V286.13ZM534.369 93.7295V-1.4707H629.568V93.7295H534.369ZM629.568 94.7295H534.369V189.93H629.568V94.7295ZM630.568 -1.4707V93.7295H725.769V-1.4707H630.568ZM1976.37 -341.855V1439.86H1977.37V-341.855H1976.37ZM1880.17 1439.86V-341.855H1881.17V1439.86H1880.17ZM1783.97 -341.855V1439.86H1784.97V-341.855H1783.97ZM1687.77 1439.86V-341.855H1688.77V1439.86H1687.77ZM1591.57 -341.855V1439.86H1592.57V-341.855H1591.57ZM1495.37 1439.86L1495.37 -341.855H1496.37L1496.37 1439.86H1495.37ZM1399.17 -341.855L1399.17 1439.86H1400.17L1400.17 -341.855H1399.17Z" fill="url(#paint0_radial_1519_2710)"/>
</g>
<defs>
<radialGradient id="paint0_radial_1519_2710" cx="0" cy="0" r="1" gradientUnits="userSpaceOnUse" gradientTransform="translate(975.064 896.718) rotate(-143.13) scale(543.822 748.435)">
<stop stop-color="#BDBDBD"/>
<stop offset="1" stop-color="#BDBDBD" stop-opacity="0"/>
</radialGradient>
<clipPath id="clip0_1519_2710">
<rect width="1065" height="946" rx="30" fill="white"/>
</clipPath>
</defs>
</svg>
