<svg width="1065" height="946" viewBox="0 0 1065 946" fill="none" xmlns="http://www.w3.org/2000/svg">
<g clip-path="url(#clip0_1519_2800)">
<g filter="url(#filter0_f_1519_2800)">
<circle cx="568.215" cy="1171.94" r="543.363" fill="#2DB374" fill-opacity="0.35"/>
</g>
<g opacity="0.47">
<circle cx="532.5" cy="1049.18" r="338.072" stroke="#2DB374"/>
<path d="M794.934 1049.18C794.934 1236.01 677.328 1387.25 532.5 1387.25C387.672 1387.25 270.066 1236.01 270.066 1049.18C270.066 862.341 387.672 711.105 532.5 711.105C677.328 711.105 794.934 862.341 794.934 1049.18Z" stroke="#2DB374"/>
<path d="M717.896 1049.18C717.896 1142.6 697.103 1227.16 663.51 1288.34C629.907 1349.54 583.567 1387.25 532.5 1387.25C481.433 1387.25 435.093 1349.54 401.49 1288.34C367.897 1227.16 347.104 1142.6 347.104 1049.18C347.104 955.751 367.897 871.194 401.49 810.012C435.093 748.811 481.433 711.105 532.5 711.105C583.567 711.105 629.907 748.811 663.51 810.012C697.103 871.194 717.896 955.751 717.896 1049.18Z" stroke="#2DB374"/>
<path d="M640.859 1049.18C640.859 1142.63 628.679 1227.22 608.999 1288.43C599.158 1319.04 587.451 1343.77 574.475 1360.84C561.493 1377.92 547.304 1387.25 532.5 1387.25C517.696 1387.25 503.507 1377.92 490.525 1360.84C477.549 1343.77 465.842 1319.04 456.001 1288.43C436.321 1227.22 424.141 1142.63 424.141 1049.18C424.141 955.721 436.321 871.132 456.001 809.924C465.842 779.317 477.549 754.585 490.525 737.515C503.507 720.437 517.696 711.105 532.5 711.105C547.304 711.105 561.493 720.437 574.475 737.515C587.451 754.585 599.158 779.317 608.999 809.924C628.679 871.132 640.859 955.721 640.859 1049.18Z" stroke="#2DB374"/>
<path d="M566.676 1049.18C566.676 1142.66 562.795 1227.29 556.522 1288.53C553.385 1319.16 549.652 1343.93 545.511 1361.03C543.44 1369.58 541.273 1376.19 539.041 1380.65C537.925 1382.88 536.805 1384.54 535.693 1385.65C534.583 1386.75 533.52 1387.25 532.5 1387.25C531.48 1387.25 530.417 1386.75 529.307 1385.65C528.195 1384.54 527.075 1382.88 525.959 1380.65C523.727 1376.19 521.56 1369.58 519.489 1361.03C515.348 1343.93 511.615 1319.16 508.478 1288.53C502.205 1227.29 498.324 1142.66 498.324 1049.18C498.324 955.695 502.205 871.07 508.478 809.822C511.615 779.195 515.348 754.43 519.489 737.33C521.56 728.776 523.727 722.167 525.959 717.708C527.075 715.477 528.195 713.811 529.307 712.709C530.417 711.608 531.48 711.105 532.5 711.105C533.52 711.105 534.583 711.608 535.693 712.709C536.805 713.811 537.925 715.477 539.041 717.708C541.273 722.167 543.44 728.776 545.511 737.33C549.652 754.43 553.385 779.195 556.522 809.822C562.795 871.07 566.676 955.695 566.676 1049.18Z" stroke="#2DB374"/>
<circle cx="532.5" cy="1049.18" r="338.072" transform="rotate(90 532.5 1049.18)" stroke="#2DB374"/>
<path d="M532.5 1311.61C345.663 1311.61 194.428 1194.01 194.428 1049.18C194.428 904.35 345.663 786.744 532.5 786.744C719.337 786.744 870.572 904.35 870.572 1049.18C870.572 1194.01 719.337 1311.61 532.5 1311.61Z" stroke="#2DB374"/>
<path d="M532.5 1234.57C439.074 1234.57 354.516 1213.78 293.334 1180.19C232.133 1146.59 194.428 1100.24 194.428 1049.18C194.428 998.111 232.133 951.77 293.334 918.167C354.516 884.574 439.074 863.781 532.5 863.781C625.926 863.781 710.484 884.574 771.666 918.167C832.867 951.77 870.572 998.111 870.572 1049.18C870.572 1100.24 832.867 1146.59 771.666 1180.19C710.483 1213.78 625.926 1234.57 532.5 1234.57Z" stroke="#2DB374"/>
<path d="M532.5 1157.54C439.043 1157.54 354.454 1145.36 293.246 1125.68C262.64 1115.84 237.907 1104.13 220.837 1091.15C203.759 1078.17 194.428 1063.98 194.428 1049.18C194.428 1034.37 203.759 1020.18 220.837 1007.2C237.907 994.227 262.64 982.519 293.246 972.679C354.454 952.999 439.043 940.818 532.5 940.818C625.957 940.818 710.546 952.999 771.754 972.679C802.36 982.519 827.093 994.227 844.163 1007.2C861.241 1020.18 870.572 1034.37 870.572 1049.18C870.572 1063.98 861.241 1078.17 844.163 1091.15C827.093 1104.13 802.36 1115.84 771.754 1125.68C710.546 1145.36 625.957 1157.54 532.5 1157.54Z" stroke="#2DB374"/>
</g>
</g>
<defs>
<filter id="filter0_f_1519_2800" x="-475.148" y="128.572" width="2086.73" height="2086.73" filterUnits="userSpaceOnUse" color-interpolation-filters="sRGB">
<feFlood flood-opacity="0" result="BackgroundImageFix"/>
<feBlend mode="normal" in="SourceGraphic" in2="BackgroundImageFix" result="shape"/>
<feGaussianBlur stdDeviation="250" result="effect1_foregroundBlur_1519_2800"/>
</filter>
<clipPath id="clip0_1519_2800">
<rect width="1065" height="946" rx="30" fill="white"/>
</clipPath>
</defs>
</svg>
