<svg width="151" height="117" viewBox="0 0 151 117" fill="none" xmlns="http://www.w3.org/2000/svg">
<g opacity="0.06">
<g clip-path="url(#clip0_1604_278)">
<path d="M149.818 61.1133C148.281 60.2311 146.588 59.6251 144.823 59.3252C147.723 57.8168 150.008 55.4186 151.311 52.5162C152.615 49.6138 152.861 46.376 152.01 43.3235C151.875 42.8392 151.609 42.3975 151.239 42.043C150.869 41.6885 150.407 41.4338 149.902 41.3044C148.662 40.9879 147.384 40.8278 146.101 40.8281C145.586 40.8285 145.071 40.8542 144.558 40.9051C146.927 38.6999 148.447 35.7918 148.87 32.6543C149.293 29.5168 148.594 26.3347 146.887 23.6258C146.618 23.1955 146.235 22.8408 145.777 22.5974C145.319 22.3541 144.802 22.2307 144.278 22.2398C142.473 22.2742 140.689 22.628 139.018 23.2836C139.731 22.1003 140.259 20.8234 140.585 19.4935C141.16 17.0892 141.066 14.5827 140.314 12.2238C139.561 9.86495 138.176 7.73622 136.296 6.0499C135.913 5.70765 135.443 5.46813 134.932 5.35547C134.422 5.24281 133.89 5.26101 133.389 5.40823C131.113 6.08016 129.042 7.2723 127.354 8.88178C126.25 6.30685 124.368 4.10628 121.95 2.56217C119.531 1.01806 116.685 0.200753 113.778 0.215028H113.278C112.755 0.232332 112.245 0.381431 111.801 0.647294C111.357 0.913156 110.995 1.28639 110.749 1.72936C109.545 3.90984 108.96 6.35437 109.05 8.81925C109.14 11.2841 109.904 13.6833 111.265 15.7775C111.692 16.4277 112.173 17.0438 112.703 17.6198C110.457 18.3716 108.435 19.6329 106.809 21.2958C106.451 21.6624 106.201 22.1127 106.083 22.6014C105.966 23.0901 105.985 23.5998 106.139 24.0792C107.235 27.4756 109.629 30.3508 112.843 32.13C112.75 32.4142 112.705 32.7106 112.709 33.0084C112.785 36.5625 114.259 39.9582 116.837 42.5164C116.666 42.7654 116.538 43.0388 116.456 43.3263C115.505 46.7628 115.944 50.4163 117.686 53.5559C117.452 53.7496 117.25 53.9777 117.091 54.2318C115.187 57.2842 114.557 60.9122 115.327 64.39C115.045 64.5149 114.784 64.6814 114.556 64.8834C111.847 67.3153 110.197 70.6367 109.936 74.1833C109.625 74.2275 109.324 74.3189 109.043 74.4542C105.74 76.0773 103.198 78.8344 101.927 82.1741C101.619 82.1373 101.306 82.1469 101.001 82.2026C98.7925 82.6137 96.7126 83.5052 94.9215 84.8083C93.1305 86.1115 91.6762 87.7913 90.671 89.7181C89.6658 91.645 89.1366 93.7673 89.1242 95.9211C89.1119 98.0749 89.6167 100.203 90.5998 102.14C81.193 104.555 71.2878 104.555 61.8811 102.14C62.8613 100.204 63.3641 98.0781 63.3508 95.9266C63.3375 93.7751 62.8085 91.6552 61.8045 89.7304C60.8005 87.8055 59.3483 86.1271 57.5598 84.8244C55.7714 83.5218 53.6945 82.6297 51.4891 82.2169C51.1837 82.1618 50.8711 82.1531 50.5628 82.1912C49.2911 78.8516 46.7499 76.0946 43.4472 74.4713C43.1661 74.3364 42.8646 74.245 42.5537 74.2004C42.2926 70.6538 40.6427 67.3324 37.934 64.9005C37.7056 64.6982 37.4452 64.5317 37.1626 64.4071C37.9326 60.9293 37.3028 57.3013 35.3993 54.2489C35.2389 53.9943 35.0379 53.7653 34.8036 53.5701C36.5497 50.4289 36.9912 46.7718 36.0397 43.332C35.9576 43.0446 35.8289 42.7714 35.6584 42.5221C38.2362 39.9638 39.7105 36.5681 39.7866 33.0141C39.7904 32.7164 39.7452 32.4199 39.6526 32.1357C42.867 30.3567 45.2615 27.4815 46.3572 24.0849C46.5109 23.6055 46.53 23.0958 46.4123 22.6071C46.2946 22.1184 46.0445 21.6681 45.687 21.3015C44.0607 19.6389 42.0383 18.3776 39.7926 17.6255C41.771 15.4833 43.0184 12.8132 43.3676 9.97316C43.7168 7.13311 43.1512 4.2587 41.7465 1.73506C41.5012 1.29209 41.1383 0.91886 40.6943 0.652997C40.2504 0.387135 39.7411 0.238036 39.2177 0.220731H38.7174C35.8125 0.209533 32.9702 1.02859 30.5543 2.57305C28.1385 4.11752 26.2589 6.31713 25.1563 8.89033C23.4681 7.27706 21.3949 6.08189 19.1159 5.40823C18.6152 5.26101 18.0828 5.24281 17.5724 5.35547C17.062 5.46813 16.5917 5.70765 16.2089 6.0499C13.7854 8.20545 12.1965 11.0839 11.7015 14.2153C11.2066 17.3468 11.8347 20.5465 13.4835 23.2921C11.8124 22.6365 10.0291 22.2827 8.2235 22.2484C7.7 22.239 7.18317 22.3619 6.7251 22.6047C6.26702 22.8476 5.8839 23.2017 5.61434 23.6315C3.90724 26.3402 3.20824 29.5225 3.63118 32.6601C4.05412 35.7978 5.57409 38.7059 7.94353 40.9108C7.43097 40.8597 6.91599 40.834 6.40066 40.8338C5.11757 40.8336 3.83992 40.9937 2.6001 41.3101C2.09427 41.4395 1.633 41.6942 1.26278 42.0487C0.892559 42.4032 0.626469 42.8449 0.491327 43.3292C-0.359728 46.3828 -0.113033 49.6217 1.19171 52.5247C2.49646 55.4278 4.78336 57.8261 7.6844 59.3337C5.91721 59.6303 4.22144 60.2334 2.68052 61.1133C2.23109 61.371 1.86062 61.7377 1.60647 62.1763C1.35231 62.6149 1.22348 63.11 1.23297 63.6115C1.28782 66.7745 2.45742 69.827 4.55198 72.2736C6.64654 74.7201 9.54312 76.4172 12.7717 77.0893C11.1528 77.8428 9.69206 78.8742 8.46178 80.1322C8.10434 80.4988 7.85418 80.9491 7.73652 81.4378C7.61886 81.9265 7.63786 82.4362 7.79162 82.9156C8.71397 85.7951 10.5768 88.3154 13.1063 90.1059C15.6358 91.8964 18.6985 92.8628 21.8442 92.8628C22.142 92.8628 22.4637 92.8628 22.7705 92.8315C21.4271 93.9798 20.3164 95.3556 19.4941 96.8896C19.2559 97.3361 19.1447 97.8348 19.1719 98.3354C19.1991 98.8361 19.3637 99.3211 19.649 99.7415C20.9774 101.708 22.7993 103.324 24.9483 104.441C27.0972 105.559 29.5046 106.144 31.9502 106.141C32.2093 106.141 32.4714 106.141 32.7306 106.121C34.1652 106.052 35.5813 105.781 36.9332 105.317C35.9687 106.779 35.2951 108.4 34.9466 110.097C34.8461 110.589 34.883 111.097 35.0535 111.572C35.224 112.046 35.522 112.469 35.9176 112.797C37.6893 114.273 39.805 115.32 42.0869 115.85C44.3689 116.38 46.7504 116.378 49.0314 115.844C51.3123 115.31 53.4261 114.26 55.1952 112.781C56.9642 111.303 58.3367 109.439 59.1975 107.347C60.9032 107.821 62.6377 108.224 64.4009 108.557C63.2572 109.611 62.2737 110.814 61.479 112.13C61.0903 112.785 60.9878 113.56 61.1938 114.287C61.3999 115.013 61.8978 115.633 62.579 116.009C63.2601 116.386 64.0692 116.489 64.8296 116.297C65.59 116.104 66.24 115.631 66.6378 114.982C67.6128 113.364 69.0153 112.021 70.7043 111.087C72.3934 110.154 74.3094 109.662 76.2598 109.662C78.2102 109.662 80.1262 110.154 81.8153 111.087C83.5043 112.021 84.9068 113.364 85.8818 114.982C86.2796 115.631 86.9296 116.104 87.69 116.297C88.4504 116.489 89.2595 116.386 89.9406 116.009C90.6218 115.633 91.1197 115.013 91.3258 114.287C91.5319 113.56 91.4293 112.785 91.0406 112.13C90.2459 110.814 89.2624 109.611 88.1187 108.557C89.88 108.226 91.6145 107.823 93.3221 107.347C94.4027 109.97 96.282 112.221 98.7157 113.807C101.149 115.394 104.025 116.243 106.97 116.245C110.509 116.243 113.928 115.017 116.599 112.794C116.995 112.466 117.293 112.043 117.463 111.569C117.634 111.095 117.67 110.586 117.57 110.094C117.216 108.397 116.536 106.777 115.566 105.317C116.906 105.782 118.311 106.057 119.735 106.132C119.995 106.132 120.257 106.132 120.516 106.152C122.966 106.158 125.378 105.575 127.531 104.457C129.685 103.338 131.51 101.72 132.841 99.75C133.126 99.3297 133.291 98.8447 133.318 98.344C133.345 97.8433 133.234 97.3446 132.996 96.8982C132.173 95.3642 131.063 93.9885 129.719 92.84C130.017 92.86 130.336 92.8714 130.646 92.8714C133.791 92.8707 136.853 91.9041 139.382 90.1136C141.911 88.3232 143.773 85.8032 144.695 82.9242C144.849 82.4448 144.868 81.935 144.75 81.4463C144.633 80.9576 144.382 80.5073 144.025 80.1408C142.795 78.8828 141.334 77.8514 139.715 77.0978C142.944 76.4257 145.84 74.7287 147.935 72.2821C150.029 69.8356 151.199 66.7831 151.254 63.62C151.266 63.1182 151.14 62.6221 150.888 62.182C150.636 61.7418 150.267 61.3732 149.818 61.1133ZM35.0836 70.396C35.7808 71.3537 36.2605 72.4408 36.4916 73.5871C36.7227 74.7333 36.7001 75.9132 36.4253 77.0506C36.1505 78.188 35.6296 79.2575 34.8962 80.1902C34.1628 81.1228 33.2333 81.8978 32.1676 82.465C31.4706 81.5075 30.991 80.4207 30.7597 79.2748C30.5284 78.1289 30.5506 76.9493 30.8248 75.8121C31.099 74.6749 31.6191 73.6053 32.3516 72.6724C33.0842 71.7396 34.0128 70.9641 35.0776 70.396H35.0836ZM25.4273 62.8614C26.0213 61.8407 26.8316 60.9502 27.8061 60.2469C28.7807 59.5436 29.898 59.0432 31.0864 58.7776C31.4814 59.8822 31.63 61.0539 31.5227 62.217C31.4154 63.38 31.0545 64.5086 30.4634 65.5298C29.8723 66.551 29.0641 67.4422 28.0909 68.1458C27.1178 68.8494 26.0014 69.3498 24.8137 69.6146C24.4192 68.5101 24.27 67.3389 24.3757 66.176C24.4813 65.0131 24.8395 63.8841 25.4273 62.8614ZM21.8531 55.3212C21.7082 55.3212 21.5622 55.3212 21.4153 55.3212C21.3561 54.1554 21.5517 52.9906 21.9898 51.9014C22.4278 50.8122 23.0985 49.8225 23.9589 48.9958C24.767 48.2176 25.7282 47.6006 26.7871 47.1806C27.8459 46.7606 28.9813 46.5459 30.1274 46.5489C30.2733 46.5489 30.4252 46.5489 30.5652 46.5489C30.6244 47.7147 30.4287 48.8795 29.9907 49.9687C29.5527 51.0579 28.882 52.0475 28.0216 52.8743C27.2141 53.6527 26.2534 54.27 25.1951 54.6905C24.1368 55.111 23.0019 55.3263 21.8561 55.324L21.8531 55.3212ZM31.3039 9.8457C31.9471 8.85351 32.8016 8.00236 33.8116 7.34781C34.8216 6.69326 35.9645 6.25002 37.1656 6.04704C37.4973 7.1705 37.5805 8.3479 37.4097 9.5039C37.2389 10.6599 36.8179 11.769 36.1737 12.7603C35.5307 13.7526 34.6762 14.6038 33.6661 15.2584C32.6561 15.913 31.5132 16.3561 30.312 16.5589C29.9804 15.4355 29.8974 14.2581 30.0682 13.1021C30.239 11.9461 30.6598 10.837 31.3039 9.8457ZM32.9837 22.7531C34.1714 22.4888 35.4039 22.4667 36.6011 22.6883C37.7983 22.9099 38.9334 23.3702 39.9326 24.0393C39.1727 25.3369 38.0654 26.4172 36.7247 27.169C35.384 27.9209 33.8584 28.3171 32.3046 28.3171C30.5245 28.3132 28.788 27.7888 27.3276 26.8142C27.9239 25.7981 28.7349 24.9122 29.7088 24.213C30.6826 23.5138 31.798 23.0166 32.9837 22.7531ZM26.5472 35.2613C27.613 34.6944 28.7913 34.3481 30.0058 34.245C31.2203 34.1418 32.4439 34.284 33.5973 34.6624C33.3215 35.8 32.7994 36.8696 32.0648 37.8019C31.3302 38.7342 30.3994 39.5086 29.3327 40.0749C28.2659 40.6412 27.087 40.9869 25.8719 41.0897C24.6569 41.1924 23.4329 41.0498 22.279 40.6713C22.5579 39.5347 23.0815 38.4664 23.8165 37.5348C24.5515 36.6032 25.4816 35.8288 26.5472 35.2613ZM19.0623 11.5568C20.9008 12.5376 22.3061 14.1229 23.018 16.0193C23.7298 17.9157 23.7001 19.9949 22.9343 21.8719C22.5908 22.4423 22.2582 23.0222 21.9365 23.6115C20.8764 23.0407 19.9528 22.2638 19.225 21.3307C18.4972 20.3976 17.9814 19.3291 17.7107 18.1937C17.44 17.0584 17.4204 15.8814 17.6531 14.7384C17.8859 13.5953 18.3659 12.5116 19.0623 11.5568ZM9.95103 28.1716C11.9932 28.625 13.7959 29.7689 15.0277 31.3931C16.2594 33.0173 16.8375 35.0127 16.6556 37.0123C16.4888 37.6721 16.333 38.3375 16.188 39.0086C15.0033 38.7402 13.8905 38.2372 12.9211 37.5321C11.9518 36.8269 11.1475 35.9351 10.5599 34.9142C9.97238 33.8934 9.61466 32.766 9.50979 31.6047C9.40491 30.4434 9.55522 29.2739 9.95103 28.1716ZM5.95687 46.5489C6.10182 46.5489 6.24777 46.5489 6.39471 46.5489C8.42977 46.5477 10.401 47.2291 11.9659 48.4748C13.5308 49.7205 14.5905 51.4517 14.9609 53.3677C14.9877 54.0207 15.0234 54.6738 15.074 55.3212C14.937 55.3212 14.803 55.3212 14.666 55.3212C13.5199 55.3241 12.3846 55.1093 11.3258 54.6893C10.267 54.2693 9.30569 53.6524 8.49753 52.8743C7.63761 52.0473 6.96747 51.0575 6.52998 49.9683C6.09249 48.8791 5.89729 47.7145 5.95687 46.5489ZM11.6815 70.6783C10.6156 70.1095 9.68562 69.3336 8.95113 68.4005C8.21663 67.4674 7.69387 66.3977 7.41633 65.2598C9.40648 64.6075 11.576 64.6668 13.524 65.427C15.472 66.1871 17.0668 67.5966 18.0138 69.395C18.2322 70.0281 18.4616 70.6555 18.7019 71.2772C17.5518 71.6513 16.3327 71.7905 15.123 71.6859C13.9133 71.5813 12.74 71.2351 11.6786 70.6698L11.6815 70.6783ZM21.8412 87.1677C20.2869 87.1686 18.7605 86.7727 17.4192 86.0207C16.0779 85.2688 14.9702 84.1881 14.2103 82.8899C15.9608 81.7198 18.0992 81.2061 20.2193 81.4464C22.3394 81.6867 24.2934 82.6642 25.7103 84.1932C26.0716 84.6932 26.44 85.1885 26.8153 85.679C25.3573 86.6459 23.6266 87.1651 21.8531 87.1677H21.8412ZM32.4208 100.432C31.203 100.496 29.9847 100.314 28.8454 99.8974C27.7061 99.4807 26.6713 98.8387 25.8085 98.0133C27.1506 96.425 29.054 95.3626 31.1587 95.0268C33.2634 94.691 35.4236 95.1051 37.2311 96.1909C37.7315 96.5873 38.2408 96.9752 38.7561 97.3545C37.9847 98.2617 37.0236 99.0044 35.9346 99.5348C34.8456 100.065 33.6528 100.372 32.4327 100.434L32.4208 100.432ZM42.2945 80.5058C43.2404 81.2423 44.0145 82.1606 44.5668 83.2013C45.1191 84.242 45.4374 85.382 45.5011 86.5477C45.5648 87.7135 45.3725 88.8791 44.9367 89.9693C44.5008 91.0595 43.8311 92.05 42.9706 92.8771C42.0248 92.1405 41.2507 91.2223 40.6984 90.1816C40.1461 89.1409 39.8278 88.0009 39.7641 86.8352C39.7003 85.6694 39.8926 84.5038 40.3285 83.4136C40.7643 82.3234 41.4341 81.3328 42.2945 80.5058ZM48.3915 110.079C47.2388 110.458 46.0166 110.602 44.8023 110.504C43.5881 110.406 42.4085 110.067 41.3384 109.509C42.1656 107.649 43.6703 106.14 45.5726 105.263C47.4749 104.386 49.6452 104.2 51.6798 104.741C52.3013 105.001 52.9278 105.253 53.5592 105.496C53.0747 106.562 52.364 107.52 51.4724 108.309C50.5807 109.098 49.5275 109.701 48.3796 110.079H48.3915ZM56.3352 100.038C55.214 99.5797 54.2057 98.9014 53.3753 98.0468C52.5448 97.1923 51.9107 96.1806 51.5139 95.0769C51.117 93.9733 50.9663 92.8023 51.0713 91.6394C51.1763 90.4765 51.5348 89.3476 52.1236 88.3255C53.245 88.7836 54.2536 89.4617 55.0843 90.3162C55.915 91.1706 56.5493 92.1824 56.9462 93.2862C57.3431 94.39 57.4938 95.5612 57.3885 96.7242C57.2833 97.8872 56.9244 99.0161 56.3352 100.038ZM146.098 46.5403C146.243 46.5403 146.389 46.5403 146.536 46.5403C146.595 47.7061 146.399 48.8708 145.961 49.96C145.523 51.0492 144.853 52.0389 143.992 52.8657C143.184 53.6438 142.223 54.2607 141.164 54.6807C140.105 55.1007 138.97 55.3155 137.824 55.3126C137.687 55.3126 137.553 55.3126 137.416 55.3126C137.466 54.6653 137.502 54.0122 137.529 53.3591C137.899 51.4431 138.959 49.7119 140.524 48.4662C142.089 47.2206 144.06 46.5391 146.095 46.5403H146.098ZM136.903 32.2555C137.497 31.2348 138.308 30.3442 139.282 29.641C140.257 28.9377 141.374 28.4372 142.563 28.1716C142.958 29.2739 143.109 30.4434 143.004 31.6047C142.899 32.766 142.541 33.8934 141.954 34.9142C141.366 35.9351 140.562 36.8269 139.593 37.5321C138.623 38.2372 137.51 38.7402 136.326 39.0086C136.183 38.3432 136.027 37.6778 135.858 37.0123C135.707 35.3626 136.071 33.707 136.903 32.2555ZM129.177 16.9725C129.453 15.8356 129.974 14.7665 130.707 13.8335C131.439 12.9005 132.367 12.1241 133.431 11.554C134.127 12.5093 134.606 13.5935 134.838 14.7369C135.07 15.8803 135.05 17.0575 134.778 18.1929C134.507 19.3283 133.99 20.3967 133.261 21.3295C132.533 22.2622 131.608 23.0386 130.547 23.6087C130.226 23.025 129.893 22.4451 129.55 21.8691C128.916 20.3093 128.787 18.6035 129.177 16.9725ZM124.477 52.8771C123.617 52.0504 122.946 51.0607 122.508 49.9715C122.07 48.8823 121.874 47.7175 121.934 46.5518C122.079 46.5518 122.224 46.5518 122.371 46.5518C123.517 46.5489 124.653 46.7637 125.712 47.1837C126.77 47.6037 127.732 48.2206 128.54 48.9986C129.4 49.8254 130.071 50.815 130.509 51.9043C130.947 52.9935 131.143 54.1582 131.083 55.324C130.938 55.324 130.786 55.324 130.646 55.324C129.5 55.3271 128.364 55.1124 127.305 54.6923C126.247 54.2723 125.285 53.6554 124.477 52.8771ZM127.697 69.6146C126.509 69.3498 125.393 68.8494 124.42 68.1458C123.447 67.4422 122.638 66.551 122.047 65.5298C121.456 64.5086 121.095 63.38 120.988 62.217C120.881 61.0539 121.029 59.8822 121.424 58.7776C122.612 59.0425 123.728 59.5428 124.701 60.2464C125.675 60.95 126.483 61.8412 127.074 62.8624C127.665 63.8837 128.026 65.0122 128.133 66.1753C128.241 67.3383 128.092 68.51 127.697 69.6146ZM130.217 40.6741C129.063 41.0522 127.839 41.1944 126.624 41.0915C125.409 40.9886 124.23 40.6428 123.164 40.0765C122.097 39.5103 121.166 38.7361 120.432 37.804C119.697 36.8719 119.175 35.8027 118.898 34.6653C120.052 34.2876 121.276 34.1458 122.491 34.2489C123.706 34.3521 124.884 34.6979 125.951 35.2641C127.017 35.8303 127.948 36.6043 128.683 37.5361C129.417 38.468 129.94 39.537 130.217 40.6741ZM115.324 6.0499C116.524 6.25589 117.666 6.70049 118.676 7.35503C119.686 8.00956 120.541 8.85949 121.186 9.84998C121.832 10.8405 122.253 11.9495 122.424 13.1056C122.594 14.2616 122.509 15.439 122.175 16.5618C120.975 16.3558 119.833 15.9112 118.823 15.2567C117.813 14.6021 116.958 13.7522 116.313 12.7617C115.667 11.7712 115.246 10.6622 115.076 9.50612C114.905 8.35006 114.99 7.17266 115.324 6.0499ZM112.566 24.0393C113.566 23.3716 114.702 22.9121 115.899 22.6906C117.096 22.4691 118.329 22.4904 119.517 22.7533C120.705 23.0161 121.822 23.5146 122.797 24.2165C123.771 24.9184 124.581 25.8082 125.174 26.8284C124.174 27.4961 123.038 27.9556 121.841 28.1771C120.644 28.3986 119.411 28.3773 118.223 28.1145C117.035 27.8516 115.918 27.3532 114.943 26.6512C113.969 25.9493 113.159 25.0595 112.566 24.0393ZM117.415 70.3989C118.48 70.9661 119.41 71.741 120.143 72.6734C120.876 73.6058 121.396 74.675 121.671 75.812C121.946 76.949 121.969 78.1286 121.738 79.2746C121.507 80.4205 121.028 81.5074 120.331 82.465C119.266 81.8969 118.338 81.1215 117.605 80.1886C116.873 79.2557 116.352 78.1862 116.078 77.0489C115.804 75.9117 115.782 74.7321 116.013 73.5862C116.245 72.4403 116.724 71.3535 117.421 70.396L117.415 70.3989ZM96.1755 100.038C95.5864 99.0167 95.2273 97.8885 95.1215 96.7262C95.0157 95.5638 95.1654 94.3931 95.5611 93.2896C95.9568 92.186 96.5896 91.1741 97.4188 90.3191C98.248 89.4641 99.2551 88.785 100.375 88.3255C100.964 89.3475 101.323 90.4764 101.429 91.6394C101.534 92.8024 101.383 93.9736 100.986 95.0774C100.589 96.1812 99.9551 97.193 99.1244 98.0474C98.2937 98.9019 97.285 99.58 96.1636 100.038H96.1755ZM104.122 110.079C102.975 109.699 101.922 109.094 101.032 108.303C100.142 107.512 99.4335 106.552 98.9515 105.485C99.5928 105.24 100.229 104.983 100.861 104.715C102.893 104.185 105.056 104.377 106.952 105.256C108.847 106.134 110.346 107.64 111.172 109.495C110.103 110.055 108.924 110.397 107.71 110.498C106.496 110.598 105.273 110.456 104.119 110.079H104.122ZM112.76 86.8369C112.693 88.002 112.374 89.141 111.822 90.1811C111.269 91.2212 110.496 92.1394 109.552 92.8771C108.69 92.0516 108.019 91.0622 107.581 89.9729C107.143 88.8836 106.949 87.7185 107.01 86.5528C107.071 85.3871 107.387 84.2467 107.938 83.2051C108.488 82.1635 109.26 81.244 110.204 80.5058C111.065 81.3332 111.737 82.3238 112.175 83.414C112.613 84.5043 112.808 85.6702 112.748 86.8369H112.76ZM120.549 100.446C120.394 100.446 120.238 100.446 120.081 100.446C118.864 100.383 117.674 100.077 116.588 99.5478C115.502 99.0189 114.543 98.2786 113.772 97.3744C114.288 96.9923 114.797 96.6044 115.297 96.208C117.102 95.1289 119.256 94.7179 121.354 95.0525C123.453 95.387 125.351 96.444 126.693 98.0247C125.884 98.7962 124.923 99.4073 123.867 99.8228C122.81 100.238 121.679 100.45 120.537 100.446H120.549ZM132.632 86.951C131.986 87.0943 131.324 87.167 130.661 87.1677C128.882 87.1642 127.146 86.6409 125.686 85.6676C126.062 85.179 126.43 84.6837 126.791 84.1818C128.208 82.6522 130.162 81.6743 132.282 81.434C134.403 81.1938 136.541 81.7078 138.291 82.8785C137.695 83.8982 136.882 84.7872 135.905 85.4885C134.929 86.1899 133.81 86.688 132.62 86.951H132.632ZM140.817 70.6783C139.756 71.2433 138.583 71.5892 137.374 71.6938C136.165 71.7985 134.947 71.6595 133.797 71.2858C134.037 70.6641 134.267 70.0376 134.485 69.4064C135.431 67.6064 137.026 66.1954 138.975 65.4347C140.924 64.6739 143.095 64.6149 145.085 65.2684C144.805 66.4059 144.279 67.4748 143.542 68.4064C142.805 69.338 141.873 70.1119 140.805 70.6783H140.817Z" fill="#A8A8A8"/>
</g>
<g clip-path="url(#clip1_1604_278)">
<path d="M0.596801 61.1133C2.13422 60.2311 3.82696 59.6251 5.59174 59.3252C2.6924 57.8168 0.407171 55.4186 -0.896419 52.5162C-2.20001 49.6138 -2.44619 46.376 -1.59537 43.3235C-1.46023 42.8392 -1.19414 42.3975 -0.82392 42.043C-0.453699 41.6885 0.00757326 41.4338 0.513404 41.3044C1.7532 40.9879 3.03086 40.8278 4.31397 40.8281C4.82929 40.8285 5.34426 40.8542 5.85683 40.9051C3.48786 38.6999 1.96822 35.7918 1.5453 32.6543C1.12237 29.5168 1.82107 26.3347 3.52764 23.6258C3.79683 23.1955 4.17979 22.8408 4.63789 22.5974C5.09598 22.3541 5.61302 22.2307 6.13681 22.2398C7.94237 22.2742 9.72572 22.628 11.3968 23.2836C10.6839 22.1003 10.1561 20.8234 9.83014 19.4935C9.25534 17.0892 9.34888 14.5827 10.1014 12.2238C10.854 9.86495 12.2393 7.73622 14.1192 6.0499C14.502 5.70765 14.9723 5.46813 15.4827 5.35547C15.9931 5.24281 16.5255 5.26101 17.0262 5.40823C19.3022 6.08016 21.3733 7.2723 23.0606 8.88178C24.1647 6.30685 26.0467 4.10628 28.4655 2.56217C30.8843 1.01806 33.7295 0.200753 36.6366 0.215028H37.137C37.6603 0.232332 38.1696 0.381431 38.6136 0.647294C39.0576 0.913156 39.4205 1.28639 39.6657 1.72936C40.8696 3.90984 41.4555 6.35437 41.3651 8.81925C41.2747 11.2841 40.5111 13.6833 39.1505 15.7775C38.7235 16.4277 38.2424 17.0438 37.7118 17.6198C39.9578 18.3716 41.9802 19.6329 43.6063 21.2958C43.9637 21.6624 44.2139 22.1127 44.3316 22.6014C44.4492 23.0901 44.4302 23.5998 44.2764 24.0792C43.1805 27.4756 40.786 30.3508 37.5719 32.13C37.6646 32.4142 37.7099 32.7106 37.7059 33.0084C37.6301 36.5625 36.1557 39.9582 33.5777 42.5164C33.7487 42.7654 33.8773 43.0388 33.9589 43.3263C34.9099 46.7628 34.4706 50.4163 32.7288 53.5559C32.9635 53.7496 33.1646 53.9777 33.3245 54.2318C35.228 57.2842 35.8578 60.9122 35.0878 64.39C35.3703 64.5149 35.6306 64.6814 35.8592 64.8834C38.568 67.3153 40.2179 70.6367 40.4789 74.1833C40.7899 74.2275 41.0915 74.3189 41.3724 74.4542C44.6753 76.0773 47.2166 78.8344 48.488 82.1741C48.7965 82.1373 49.109 82.1469 49.4144 82.2026C51.6225 82.6137 53.7024 83.5052 55.4935 84.8083C57.2846 86.1115 58.7389 87.7913 59.7441 89.7181C60.7493 91.645 61.2785 93.7673 61.2908 95.9211C61.3032 98.0749 60.7983 100.203 59.8153 102.14C69.222 104.555 79.1272 104.555 88.5339 102.14C87.5538 100.204 87.0509 98.0781 87.0642 95.9266C87.0775 93.7751 87.6066 91.6552 88.6106 89.7304C89.6146 87.8055 91.0668 86.1271 92.8552 84.8244C94.6436 83.5218 96.7205 82.6297 98.9259 82.2169C99.2313 82.1618 99.544 82.1531 99.8522 82.1912C101.124 78.8516 103.665 76.0946 106.968 74.4713C107.249 74.3364 107.55 74.245 107.861 74.2004C108.122 70.6538 109.772 67.3324 112.481 64.9005C112.709 64.6982 112.97 64.5317 113.252 64.4071C112.482 60.9293 113.112 57.3013 115.016 54.2489C115.176 53.9943 115.377 53.7653 115.611 53.5701C113.865 50.4289 113.424 46.7718 114.375 43.332C114.457 43.0446 114.586 42.7714 114.757 42.5221C112.179 39.9638 110.705 36.5681 110.628 33.0141C110.625 32.7164 110.67 32.4199 110.762 32.1357C107.548 30.3567 105.154 27.4815 104.058 24.0849C103.904 23.6055 103.885 23.0958 104.003 22.6071C104.12 22.1184 104.371 21.6681 104.728 21.3015C106.354 19.6389 108.377 18.3776 110.622 17.6255C108.644 15.4833 107.397 12.8132 107.047 9.97316C106.698 7.13311 107.264 4.2587 108.669 1.73506C108.914 1.29209 109.277 0.91886 109.721 0.652997C110.165 0.387135 110.674 0.238036 111.197 0.220731H111.698C114.603 0.209533 117.445 1.02859 119.861 2.57305C122.277 4.11752 124.156 6.31713 125.259 8.89033C126.947 7.27706 129.02 6.08189 131.299 5.40823C131.8 5.26101 132.332 5.24281 132.843 5.35547C133.353 5.46813 133.823 5.70765 134.206 6.0499C136.63 8.20545 138.219 11.0839 138.714 14.2153C139.208 17.3468 138.58 20.5465 136.932 23.2921C138.603 22.6365 140.386 22.2827 142.192 22.2484C142.715 22.239 143.232 22.3619 143.69 22.6047C144.148 22.8476 144.531 23.2017 144.801 23.6315C146.508 26.3402 147.207 29.5225 146.784 32.6601C146.361 35.7978 144.841 38.7059 142.472 40.9108C142.984 40.8597 143.499 40.834 144.014 40.8338C145.297 40.8336 146.575 40.9937 147.815 41.3101C148.321 41.4395 148.782 41.6942 149.152 42.0487C149.522 42.4032 149.789 42.8449 149.924 43.3292C150.775 46.3828 150.528 49.6217 149.223 52.5247C147.919 55.4278 145.632 57.8261 142.731 59.3337C144.498 59.6303 146.194 60.2334 147.735 61.1133C148.184 61.371 148.554 61.7377 148.809 62.1763C149.063 62.6149 149.192 63.11 149.182 63.6115C149.127 66.7745 147.958 69.827 145.863 72.2736C143.768 74.7201 140.872 76.4172 137.643 77.0893C139.262 77.8428 140.723 78.8742 141.953 80.1322C142.311 80.4988 142.561 80.9491 142.679 81.4378C142.796 81.9265 142.777 82.4362 142.623 82.9156C141.701 85.7951 139.838 88.3154 137.309 90.1059C134.779 91.8964 131.717 92.8628 128.571 92.8628C128.273 92.8628 127.951 92.8628 127.645 92.8315C128.988 93.9798 130.099 95.3556 130.921 96.8896C131.159 97.3361 131.27 97.8348 131.243 98.3354C131.216 98.8361 131.051 99.3211 130.766 99.7415C129.438 101.708 127.616 103.324 125.467 104.441C123.318 105.559 120.91 106.144 118.465 106.141C118.206 106.141 117.944 106.141 117.684 106.121C116.25 106.052 114.834 105.781 113.482 105.317C114.446 106.779 115.12 108.4 115.468 110.097C115.569 110.589 115.532 111.097 115.362 111.572C115.191 112.046 114.893 112.469 114.497 112.797C112.726 114.273 110.61 115.32 108.328 115.85C106.046 116.38 103.665 116.378 101.384 115.844C99.1027 115.31 96.9889 114.26 95.2199 112.781C93.4509 111.303 92.0783 109.439 91.2175 107.347C89.5119 107.821 87.7774 108.224 86.0141 108.557C87.1578 109.611 88.1414 110.814 88.936 112.13C89.3248 112.785 89.4273 113.56 89.2212 114.287C89.0151 115.013 88.5172 115.633 87.836 116.009C87.1549 116.386 86.3459 116.489 85.5855 116.297C84.8251 116.104 84.175 115.631 83.7773 114.982C82.8023 113.364 81.3997 112.021 79.7107 111.087C78.0217 110.154 76.1056 109.662 74.1552 109.662C72.2048 109.662 70.2888 110.154 68.5998 111.087C66.9107 112.021 65.5082 113.364 64.5332 114.982C64.1354 115.631 63.4854 116.104 62.725 116.297C61.9646 116.489 61.1556 116.386 60.4744 116.009C59.7933 115.633 59.2953 115.013 59.0893 114.287C58.8832 113.56 58.9857 112.785 59.3744 112.13C60.1691 110.814 61.1527 109.611 62.2963 108.557C60.5351 108.226 58.8006 107.823 57.0929 107.347C56.0123 109.97 54.1331 112.221 51.6994 113.807C49.2656 115.394 46.3898 116.243 43.4454 116.245C39.9063 116.243 36.487 115.017 33.816 112.794C33.4204 112.466 33.1224 112.043 32.9519 111.569C32.7814 111.095 32.7445 110.586 32.845 110.094C33.1995 108.397 33.8791 106.777 34.8495 105.317C33.5086 105.782 32.1037 106.057 30.6796 106.132C30.4205 106.132 30.1584 106.132 29.8992 106.152C27.4493 106.158 25.0371 105.575 22.8837 104.457C20.7303 103.338 18.9046 101.72 17.5742 99.75C17.2889 99.3297 17.1243 98.8447 17.0971 98.344C17.0699 97.8433 17.1811 97.3446 17.4194 96.8982C18.2418 95.3642 19.3525 93.9885 20.6957 92.84C20.3978 92.86 20.0791 92.8714 19.7694 92.8714C16.6242 92.8707 13.5622 91.9041 11.0333 90.1136C8.5044 88.3232 6.64202 85.8032 5.71982 82.9242C5.56606 82.4448 5.54705 81.935 5.66471 81.4463C5.78237 80.9576 6.03254 80.5073 6.38998 80.1408C7.6203 78.8828 9.08108 77.8514 10.6999 77.0978C7.47132 76.4257 4.57473 74.7287 2.48018 72.2821C0.385619 69.8356 -0.783991 66.7831 -0.838836 63.62C-0.851132 63.1182 -0.724857 62.6221 -0.472778 62.182C-0.220699 61.7418 0.148254 61.3732 0.596801 61.1133ZM115.331 70.396C114.634 71.3537 114.155 72.4408 113.923 73.5871C113.692 74.7333 113.715 75.9132 113.99 77.0506C114.265 78.188 114.785 79.2575 115.519 80.1902C116.252 81.1228 117.182 81.8978 118.247 82.465C118.944 81.5075 119.424 80.4207 119.655 79.2748C119.887 78.1289 119.864 76.9493 119.59 75.8121C119.316 74.6749 118.796 73.6053 118.063 72.6724C117.331 71.7396 116.402 70.9641 115.337 70.396H115.331ZM124.988 62.8614C124.394 61.8407 123.583 60.9502 122.609 60.2469C121.634 59.5436 120.517 59.0432 119.329 58.7776C118.934 59.8822 118.785 61.0539 118.892 62.217C119 63.38 119.361 64.5086 119.952 65.5298C120.543 66.551 121.351 67.4422 122.324 68.1458C123.297 68.8494 124.414 69.3498 125.601 69.6146C125.996 68.5101 126.145 67.3389 126.039 66.176C125.934 65.0131 125.576 63.8841 124.988 62.8614ZM128.562 55.3212C128.707 55.3212 128.853 55.3212 129 55.3212C129.059 54.1554 128.863 52.9906 128.425 51.9014C127.987 50.8122 127.317 49.8225 126.456 48.9958C125.648 48.2176 124.687 47.6006 123.628 47.1806C122.569 46.7606 121.434 46.5459 120.288 46.5489C120.142 46.5489 119.99 46.5489 119.85 46.5489C119.791 47.7147 119.986 48.8795 120.424 49.9687C120.862 51.0579 121.533 52.0475 122.393 52.8743C123.201 53.6527 124.162 54.27 125.22 54.6905C126.278 55.111 127.413 55.3263 128.559 55.324L128.562 55.3212ZM119.111 9.8457C118.468 8.85351 117.613 8.00236 116.603 7.34781C115.593 6.69326 114.451 6.25002 113.249 6.04704C112.918 7.1705 112.835 8.3479 113.005 9.5039C113.176 10.6599 113.597 11.769 114.241 12.7603C114.884 13.7526 115.739 14.6038 116.749 15.2584C117.759 15.913 118.902 16.3561 120.103 16.5589C120.435 15.4355 120.518 14.2581 120.347 13.1021C120.176 11.9461 119.755 10.837 119.111 9.8457ZM117.431 22.7531C116.244 22.4888 115.011 22.4667 113.814 22.6883C112.617 22.9099 111.482 23.3702 110.482 24.0393C111.242 25.3369 112.35 26.4172 113.69 27.169C115.031 27.9209 116.557 28.3171 118.11 28.3171C119.891 28.3132 121.627 27.7888 123.087 26.8142C122.491 25.7981 121.68 24.9122 120.706 24.213C119.732 23.5138 118.617 23.0166 117.431 22.7531ZM123.868 35.2613C122.802 34.6944 121.624 34.3481 120.409 34.245C119.195 34.1418 117.971 34.284 116.818 34.6624C117.094 35.8 117.616 36.8696 118.35 37.8019C119.085 38.7342 120.016 39.5086 121.082 40.0749C122.149 40.6412 123.328 40.9869 124.543 41.0897C125.758 41.1924 126.982 41.0498 128.136 40.6713C127.857 39.5347 127.333 38.4664 126.599 37.5348C125.864 36.6032 124.933 35.8288 123.868 35.2613ZM131.353 11.5568C129.514 12.5376 128.109 14.1229 127.397 16.0193C126.685 17.9157 126.715 19.9949 127.481 21.8719C127.824 22.4423 128.157 23.0222 128.479 23.6115C129.539 23.0407 130.462 22.2638 131.19 21.3307C131.918 20.3976 132.434 19.3291 132.704 18.1937C132.975 17.0584 132.995 15.8814 132.762 14.7384C132.529 13.5953 132.049 12.5116 131.353 11.5568ZM140.464 28.1716C138.422 28.625 136.619 29.7689 135.387 31.3931C134.156 33.0173 133.578 35.0127 133.759 37.0123C133.926 37.6721 134.082 38.3375 134.227 39.0086C135.412 38.7402 136.525 38.2372 137.494 37.5321C138.463 36.8269 139.268 35.9351 139.855 34.9142C140.443 33.8934 140.8 32.766 140.905 31.6047C141.01 30.4434 140.86 29.2739 140.464 28.1716ZM144.458 46.5489C144.313 46.5489 144.167 46.5489 144.02 46.5489C141.985 46.5477 140.014 47.2291 138.449 48.4748C136.884 49.7205 135.825 51.4517 135.454 53.3677C135.427 54.0207 135.392 54.6738 135.341 55.3212C135.478 55.3212 135.612 55.3212 135.749 55.3212C136.895 55.3241 138.03 55.1093 139.089 54.6893C140.148 54.2693 141.109 53.6524 141.918 52.8743C142.777 52.0473 143.448 51.0575 143.885 49.9683C144.323 48.8791 144.518 47.7145 144.458 46.5489ZM138.734 70.6783C139.799 70.1095 140.729 69.3336 141.464 68.4005C142.198 67.4674 142.721 66.3977 142.999 65.2598C141.009 64.6075 138.839 64.6668 136.891 65.427C134.943 66.1871 133.348 67.5966 132.401 69.395C132.183 70.0281 131.953 70.6555 131.713 71.2772C132.863 71.6513 134.082 71.7905 135.292 71.6859C136.502 71.5813 137.675 71.2351 138.736 70.6698L138.734 70.6783ZM128.574 87.1677C130.128 87.1686 131.655 86.7727 132.996 86.0207C134.337 85.2688 135.445 84.1881 136.205 82.8899C134.454 81.7198 132.316 81.2061 130.196 81.4464C128.076 81.6867 126.122 82.6642 124.705 84.1932C124.343 84.6932 123.975 85.1885 123.6 85.679C125.058 86.6459 126.788 87.1651 128.562 87.1677H128.574ZM117.994 100.432C119.212 100.496 120.43 100.314 121.57 99.8974C122.709 99.4807 123.744 98.8387 124.606 98.0133C123.264 96.425 121.361 95.3626 119.256 95.0268C117.152 94.691 114.991 95.1051 113.184 96.1909C112.684 96.5873 112.174 96.9752 111.659 97.3545C112.43 98.2617 113.391 99.0044 114.48 99.5348C115.569 100.065 116.762 100.372 117.982 100.434L117.994 100.432ZM108.121 80.5058C107.175 81.2423 106.401 82.1606 105.848 83.2013C105.296 84.242 104.978 85.382 104.914 86.5477C104.85 87.7135 105.043 88.8791 105.478 89.9693C105.914 91.0595 106.584 92.05 107.444 92.8771C108.39 92.1405 109.164 91.2223 109.717 90.1816C110.269 89.1409 110.587 88.0009 110.651 86.8352C110.715 85.6694 110.522 84.5038 110.087 83.4136C109.651 82.3234 108.981 81.3328 108.121 80.5058ZM102.024 110.079C103.176 110.458 104.398 110.602 105.613 110.504C106.827 110.406 108.007 110.067 109.077 109.509C108.249 107.649 106.745 106.14 104.842 105.263C102.94 104.386 100.77 104.2 98.7353 104.741C98.1138 105.001 97.4873 105.253 96.8558 105.496C97.3404 106.562 98.051 107.52 98.9427 108.309C99.8343 109.098 100.888 109.701 102.035 110.079H102.024ZM94.0799 100.038C95.201 99.5797 96.2093 98.9014 97.0398 98.0468C97.8702 97.1923 98.5043 96.1806 98.9011 95.0769C99.298 93.9733 99.4488 92.8023 99.3438 91.6394C99.2388 90.4765 98.8803 89.3476 98.2915 88.3255C97.17 88.7836 96.1614 89.4617 95.3307 90.3162C94.5 91.1706 93.8657 92.1824 93.4688 93.2862C93.0719 94.39 92.9213 95.5612 93.0265 96.7242C93.1318 97.8872 93.4906 99.0161 94.0799 100.038ZM4.31694 46.5403C4.17199 46.5403 4.02604 46.5403 3.8791 46.5403C3.8201 47.7061 4.01585 48.8708 4.45385 49.96C4.89184 51.0492 5.56244 52.0389 6.42274 52.8657C7.2309 53.6438 8.19221 54.2607 9.25102 54.6807C10.3098 55.1007 11.4451 55.3155 12.5912 55.3126C12.7282 55.3126 12.8623 55.3126 12.9993 55.3126C12.9486 54.6653 12.9129 54.0122 12.8861 53.3591C12.5157 51.4431 11.456 49.7119 9.89109 48.4662C8.3262 47.2206 6.35499 46.5391 4.31992 46.5403H4.31694ZM13.5116 32.2555C12.9175 31.2348 12.1073 30.3442 11.1327 29.641C10.1582 28.9377 9.04083 28.4372 7.85241 28.1716C7.4566 29.2739 7.3063 30.4434 7.41117 31.6047C7.51605 32.766 7.87377 33.8934 8.46132 34.9142C9.04887 35.9351 9.8532 36.8269 10.8225 37.5321C11.7919 38.2372 12.9047 38.7402 14.0894 39.0086C14.2324 38.3432 14.3882 37.6778 14.557 37.0123C14.7082 35.3626 14.3443 33.707 13.5116 32.2555ZM21.2378 16.9725C20.9616 15.8356 20.4407 14.7665 19.7083 13.8335C18.9759 12.9005 18.0482 12.1241 16.9845 11.554C16.2885 12.5093 15.809 13.5935 15.5769 14.7369C15.3448 15.8803 15.3652 17.0575 15.6367 18.1929C15.9083 19.3283 16.425 20.3967 17.1537 21.3295C17.8824 22.2622 18.8068 23.0386 19.8677 23.6087C20.1894 23.025 20.5219 22.4451 20.8655 21.8691C21.4987 20.3093 21.6284 18.6035 21.2378 16.9725ZM25.9378 52.8771C26.7983 52.0504 27.469 51.0607 27.907 49.9715C28.345 48.8823 28.5407 47.7175 28.4815 46.5518C28.3365 46.5518 28.1906 46.5518 28.0436 46.5518C26.8976 46.5489 25.7623 46.7637 24.7035 47.1837C23.6446 47.6037 22.6833 48.2206 21.8752 48.9986C21.0147 49.8254 20.344 50.815 19.906 51.9043C19.468 52.9935 19.2724 54.1582 19.3315 55.324C19.4775 55.324 19.6294 55.324 19.7694 55.324C20.9155 55.3271 22.0508 55.1124 23.1097 54.6923C24.1685 54.2723 25.1298 53.6554 25.9378 52.8771ZM22.7181 69.6146C23.9057 69.3498 25.0222 68.8494 25.9953 68.1458C26.9684 67.4422 27.7767 66.551 28.3678 65.5298C28.9589 64.5086 29.3197 63.38 29.4271 62.217C29.5344 61.0539 29.3858 59.8822 28.9908 58.7776C27.8032 59.0425 26.6867 59.5428 25.7136 60.2464C24.7405 60.95 23.9322 61.8412 23.3411 62.8624C22.75 63.8837 22.3892 65.0122 22.2819 66.1753C22.1745 67.3383 22.3231 68.51 22.7181 69.6146ZM20.1983 40.6741C21.3522 41.0522 22.5761 41.1944 23.7909 41.0915C25.0058 40.9886 26.1846 40.6428 27.2512 40.0765C28.3178 39.5103 29.2486 38.7361 29.9833 37.804C30.718 36.8719 31.2403 35.8027 31.5166 34.6653C30.3627 34.2876 29.1389 34.1458 27.9242 34.2489C26.7095 34.3521 25.5308 34.6979 24.4643 35.2641C23.3978 35.8303 22.4672 36.6043 21.7324 37.5361C20.9976 38.468 20.475 39.537 20.1983 40.6741ZM35.0908 6.0499C33.8906 6.25589 32.7488 6.70049 31.7391 7.35503C30.7294 8.00956 29.8742 8.85949 29.2287 9.84998C28.5832 10.8405 28.1617 11.9495 27.9915 13.1056C27.8212 14.2616 27.906 15.439 28.2402 16.5618C29.4404 16.3558 30.5822 15.9112 31.5919 15.2567C32.6016 14.6021 33.4568 13.7522 34.1023 12.7617C34.7478 11.7712 35.1693 10.6622 35.3395 9.50612C35.5098 8.35006 35.425 7.17266 35.0908 6.0499ZM37.8489 24.0393C36.8486 23.3716 35.7131 22.9121 34.5159 22.6906C33.3186 22.4691 32.0861 22.4904 30.898 22.7533C29.7099 23.0161 28.5926 23.5146 27.6182 24.2165C26.6437 24.9184 25.8339 25.8082 25.2409 26.8284C26.2412 27.4961 27.3766 27.9556 28.5739 28.1771C29.7711 28.3986 31.0036 28.3773 32.1917 28.1145C33.3798 27.8516 34.4971 27.3532 35.4716 26.6512C36.446 25.9493 37.2559 25.0595 37.8489 24.0393ZM32.9999 70.3989C31.9346 70.9661 31.0055 71.741 30.2724 72.6734C29.5393 73.6058 29.0186 74.675 28.7438 75.812C28.469 76.949 28.4463 78.1286 28.6771 79.2746C28.908 80.4205 29.3872 81.5074 30.0839 82.465C31.1487 81.8969 32.0774 81.1215 32.8099 80.1886C33.5424 79.2557 34.0625 78.1862 34.3367 77.0489C34.6109 75.9117 34.6331 74.7321 34.4018 73.5862C34.1705 72.4403 33.6909 71.3535 32.9939 70.396L32.9999 70.3989ZM54.2395 100.038C54.8287 99.0167 55.1877 97.8885 55.2935 96.7262C55.3994 95.5638 55.2496 94.3931 54.8539 93.2896C54.4582 92.186 53.8254 91.1741 52.9962 90.3191C52.1671 89.4641 51.1599 88.785 50.0398 88.3255C49.4506 89.3475 49.0917 90.4764 48.9865 91.6394C48.8812 92.8024 49.0319 93.9736 49.4288 95.0774C49.8257 96.1812 50.46 97.193 51.2907 98.0474C52.1214 98.9019 53.13 99.58 54.2514 100.038H54.2395ZM46.2929 110.079C47.4404 109.699 48.4926 109.094 49.3828 108.303C50.2729 107.512 50.9815 106.552 51.4636 105.485C50.8222 105.24 50.1858 104.983 49.5543 104.715C47.5225 104.185 45.359 104.377 43.4635 105.256C41.568 106.134 40.0688 107.64 39.2428 109.495C40.3117 110.055 41.4908 110.397 42.7051 110.498C43.9194 110.598 45.1422 110.456 46.2959 110.079H46.2929ZM37.6553 86.8369C37.7216 88.002 38.0411 89.141 38.5935 90.1811C39.1458 91.2212 39.9189 92.1394 40.8631 92.8771C41.7249 92.0516 42.3964 91.0622 42.8342 89.9729C43.2721 88.8836 43.4665 87.7185 43.4051 86.5528C43.3436 85.3871 43.0276 84.2467 42.4774 83.2051C41.9272 82.1635 41.1551 81.244 40.2108 80.5058C39.3496 81.3332 38.6785 82.3238 38.2404 83.414C37.8024 84.5043 37.6071 85.6702 37.6672 86.8369H37.6553ZM29.8665 100.446C30.0214 100.446 30.1772 100.446 30.3341 100.446C31.551 100.383 32.7407 100.077 33.827 99.5478C34.9133 99.0189 35.8723 98.2786 36.6426 97.3744C36.1273 96.9923 35.618 96.6044 35.1176 96.208C33.3132 95.1289 31.1594 94.7179 29.0608 95.0525C26.9623 95.387 25.0637 96.444 23.7219 98.0247C24.5312 98.7962 25.4916 99.4073 26.5481 99.8228C27.6046 100.238 28.7363 100.45 29.8784 100.446H29.8665ZM17.7827 86.951C18.4293 87.0943 19.0908 87.167 19.7545 87.1677C21.5334 87.1642 23.2687 86.6409 24.7286 85.6676C24.3533 85.179 23.9849 84.6837 23.6236 84.1818C22.2071 82.6522 20.2529 81.6743 18.1327 81.434C16.0124 81.1938 13.8739 81.7078 12.1236 82.8785C12.7203 83.8982 13.533 84.7872 14.5096 85.4885C15.4863 86.1899 16.6052 86.688 17.7946 86.951H17.7827ZM9.59782 70.6783C10.6588 71.2433 11.8317 71.5892 13.0408 71.6938C14.2499 71.7985 15.4685 71.6595 16.6181 71.2858C16.3779 70.6641 16.1485 70.0376 15.9301 69.4064C14.984 67.6064 13.3889 66.1954 11.4401 65.4347C9.49119 64.6739 7.32048 64.6149 5.32964 65.2684C5.61001 66.4059 6.13558 67.4748 6.87265 68.4064C7.60972 69.338 8.54201 70.1119 9.60973 70.6783H9.59782Z" fill="#A8A8A8"/>
</g>
</g>
<defs>
<clipPath id="clip0_1604_278">
<rect width="76" height="116" fill="white" transform="translate(0 0.214844)"/>
</clipPath>
<clipPath id="clip1_1604_278">
<rect width="76" height="116" fill="white" transform="matrix(-1 0 0 1 150.415 0.214844)"/>
</clipPath>
</defs>
</svg>
