<svg width="77" height="116" viewBox="0 0 77 116" fill="none" xmlns="http://www.w3.org/2000/svg">
<g clip-path="url(#clip0_1066_92)">
<path d="M-73.4066 60.8984C-71.8692 60.0162 -70.1765 59.4103 -68.4117 59.1103C-71.311 57.6019 -73.5962 55.2037 -74.8998 52.3014C-76.2034 49.399 -76.4496 46.1612 -75.5988 43.1086C-75.4636 42.6243 -75.1976 42.1827 -74.8273 41.8282C-74.4571 41.4737 -73.9958 41.2189 -73.49 41.0895C-72.2502 40.773 -70.9726 40.6129 -69.6895 40.6133C-69.1741 40.6136 -68.6592 40.6393 -68.1466 40.6903C-70.5156 38.485 -72.0352 35.577 -72.4581 32.4395C-72.881 29.302 -72.1823 26.1198 -70.4758 23.411C-70.2066 22.9806 -69.8236 22.6259 -69.3655 22.3826C-68.9074 22.1392 -68.3904 22.0159 -67.8666 22.025C-66.061 22.0593 -64.2777 22.4132 -62.6066 23.0687C-63.3195 21.8855 -63.8473 20.6085 -64.1733 19.2786C-64.7481 16.8744 -64.6545 14.3678 -63.902 12.009C-63.1494 9.65011 -61.7641 7.52137 -59.8842 5.83505C-59.5014 5.49281 -59.0311 5.25328 -58.5207 5.14063C-58.0103 5.02797 -57.4779 5.04617 -56.9772 5.19339C-54.7012 5.86531 -52.6301 7.05746 -50.9428 8.66693C-49.8387 6.092 -47.9567 3.89144 -45.5379 2.34733C-43.1191 0.803212 -40.2739 -0.0140909 -37.3668 0.000183845H-36.8664C-36.3431 0.0174884 -35.8338 0.166587 -35.3898 0.43245C-34.9459 0.698312 -34.583 1.07154 -34.3377 1.51451C-33.1338 3.695 -32.5479 6.13952 -32.6383 8.60441C-32.7287 11.0693 -33.4923 13.4684 -34.853 15.5627C-35.2799 16.2129 -35.761 16.829 -36.2916 17.405C-34.0457 18.1568 -32.0232 19.4181 -30.3971 21.081C-30.0397 21.4476 -29.7895 21.8979 -29.6719 22.3866C-29.5542 22.8753 -29.5732 23.385 -29.727 23.8644C-30.823 27.2608 -33.2174 30.136 -36.4316 31.9151C-36.3388 32.1993 -36.2936 32.4958 -36.2975 32.7935C-36.3734 36.3477 -37.8477 39.7434 -40.4257 42.3016C-40.2548 42.5506 -40.1261 42.8239 -40.0445 43.1115C-39.0935 46.5479 -39.5328 50.2015 -41.2746 53.341C-41.0399 53.5347 -40.8389 53.7629 -40.6789 54.0169C-38.7754 57.0693 -38.1456 60.6973 -38.9156 64.1752C-38.6332 64.3001 -38.3728 64.4665 -38.1442 64.6686C-35.4355 67.1004 -33.7856 70.4219 -33.5246 73.9684C-33.2135 74.0126 -32.9119 74.1041 -32.631 74.2393C-29.3281 75.8624 -26.7868 78.6195 -25.5154 81.9593C-25.2069 81.9224 -24.8944 81.9321 -24.5891 81.9878C-22.3809 82.3989 -20.301 83.2904 -18.5099 84.5935C-16.7188 85.8966 -15.2646 87.5764 -14.2594 89.5033C-13.2542 91.4301 -12.7249 93.5524 -12.7126 95.7062C-12.7003 97.86 -13.2051 99.9877 -14.1882 101.925C-4.78142 104.34 5.12378 104.34 14.5305 101.925C13.5503 99.9889 13.0475 97.8632 13.0608 95.7117C13.0741 93.5602 13.6031 91.4404 14.6072 89.5155C15.6112 87.5907 17.0633 85.9123 18.8518 84.6096C20.6402 83.3069 22.7171 82.4148 24.9225 82.0021C25.2279 81.9469 25.5405 81.9383 25.8488 81.9764C27.1205 78.6368 29.6617 75.8798 32.9644 74.2564C33.2455 74.1216 33.5471 74.0301 33.858 73.9855C34.119 70.439 35.7689 67.1175 38.4776 64.6857C38.7061 64.4834 38.9664 64.3169 39.249 64.1923C38.4791 60.7144 39.1088 57.0865 41.0123 54.034C41.1727 53.7794 41.3737 53.5504 41.608 53.3553C39.862 50.2141 39.4204 46.557 40.3719 43.1172C40.4541 42.8298 40.5827 42.5565 40.7532 42.3073C38.1754 39.7489 36.7011 36.3533 36.625 32.7992C36.6212 32.5015 36.6664 32.2051 36.759 31.9209C33.5446 30.1419 31.1501 27.2666 30.0544 23.8701C29.9007 23.3907 29.8817 22.881 29.9993 22.3923C30.117 21.9036 30.3672 21.4533 30.7246 21.0867C32.3509 19.424 34.3733 18.1628 36.619 17.4107C34.6406 15.2684 33.3932 12.5984 33.044 9.75832C32.6948 6.91826 33.2604 4.04385 34.6651 1.52022C34.9104 1.07725 35.2733 0.704016 35.7173 0.438154C36.1612 0.172291 36.6706 0.0231922 37.1939 0.00588766H37.6943C40.5991 -0.00531092 43.4414 0.813743 45.8573 2.35821C48.2732 3.90268 50.1527 6.10228 51.2554 8.67549C52.9435 7.06221 55.0168 5.86705 57.2958 5.19339C57.7964 5.04617 58.3288 5.02797 58.8392 5.14063C59.3496 5.25328 59.8199 5.49281 60.2028 5.83505C62.6263 7.99061 64.2151 10.869 64.7101 14.0005C65.2051 17.132 64.5769 20.3316 62.9281 23.0773C64.5992 22.4217 66.3825 22.0678 68.1881 22.0335C68.7116 22.0241 69.2285 22.1471 69.6865 22.3899C70.1446 22.6327 70.5277 22.9869 70.7973 23.4167C72.5044 26.1254 73.2034 29.3077 72.7804 32.4453C72.3575 35.5829 70.8375 38.491 68.4681 40.696C68.9807 40.6449 69.4956 40.6192 70.011 40.619C71.2941 40.6187 72.5717 40.7788 73.8115 41.0952C74.3173 41.2246 74.7786 41.4794 75.1488 41.8339C75.5191 42.1884 75.7852 42.63 75.9203 43.1143C76.7713 46.1679 76.5247 49.4069 75.2199 52.3099C73.9152 55.2129 71.6283 57.6113 68.7272 59.1189C70.4944 59.4155 72.1902 60.0186 73.7311 60.8984C74.1805 61.1562 74.551 61.5228 74.8052 61.9615C75.0593 62.4001 75.1881 62.8951 75.1786 63.3966C75.1238 66.5597 73.9542 69.6122 71.8596 72.0587C69.7651 74.5053 66.8685 76.2023 63.64 76.8744C65.2588 77.628 66.7196 78.6593 67.9498 79.9174C68.3073 80.2839 68.5574 80.7343 68.6751 81.2229C68.7928 81.7116 68.7738 82.2214 68.62 82.7008C67.6976 85.5803 65.8348 88.1006 63.3053 89.8911C60.7758 91.6816 57.7131 92.6479 54.5675 92.648C54.2696 92.648 53.9479 92.648 53.6411 92.6166C54.9845 93.765 56.0952 95.1407 56.9175 96.6748C57.1558 97.1212 57.2669 97.6199 57.2397 98.1206C57.2125 98.6213 57.048 99.1063 56.7626 99.5266C55.4342 101.493 53.6123 103.109 51.4633 104.227C49.3144 105.345 46.9071 105.929 44.4614 105.926C44.2023 105.926 43.9402 105.926 43.681 105.906C42.2465 105.838 40.8303 105.567 39.4784 105.102C40.443 106.564 41.1165 108.185 41.465 109.882C41.5655 110.374 41.5286 110.883 41.3581 111.357C41.1876 111.831 40.8896 112.254 40.4941 112.582C38.7224 114.058 36.6066 115.105 34.3247 115.635C32.0427 116.165 29.6612 116.163 27.3803 115.629C25.0993 115.095 22.9855 114.045 21.2165 112.566C19.4474 111.088 18.0749 109.224 17.2141 107.132C15.5084 107.606 13.774 108.009 12.0107 108.342C13.1544 109.396 14.1379 110.599 14.9326 111.915C15.3213 112.57 15.4239 113.345 15.2178 114.072C15.0117 114.799 14.5138 115.418 13.8326 115.794C13.1515 116.171 12.3424 116.274 11.582 116.082C10.8216 115.889 10.1716 115.417 9.77385 114.767C8.79885 113.149 7.39633 111.806 5.70729 110.873C4.01825 109.939 2.10222 109.447 0.151815 109.447C-1.79859 109.447 -3.71462 109.939 -5.40366 110.873C-7.0927 111.806 -8.49522 113.149 -9.47021 114.767C-9.868 115.417 -10.518 115.889 -11.2784 116.082C-12.0388 116.274 -12.8479 116.171 -13.529 115.794C-14.2101 115.418 -14.7081 114.799 -14.9142 114.072C-15.1202 113.345 -15.0177 112.57 -14.629 111.915C-13.8343 110.599 -12.8508 109.396 -11.7071 108.342C-13.4684 108.011 -15.2028 107.608 -16.9105 107.132C-17.9911 109.755 -19.8703 112.006 -22.3041 113.592C-24.7378 115.179 -27.6136 116.028 -30.558 116.03C-34.0971 116.028 -37.5164 114.803 -40.1874 112.58C-40.583 112.251 -40.881 111.828 -41.0515 111.354C-41.222 110.88 -41.2589 110.371 -41.1584 109.879C-40.8039 108.182 -40.1243 106.562 -39.1539 105.102C-40.4948 105.567 -41.8997 105.842 -43.3238 105.918C-43.5829 105.918 -43.845 105.918 -44.1042 105.938C-46.5541 105.944 -48.9663 105.36 -51.1197 104.242C-53.2731 103.123 -55.0988 101.505 -56.4292 99.5352C-56.7145 99.1148 -56.8791 98.6298 -56.9063 98.1292C-56.9335 97.6285 -56.8223 97.1298 -56.5841 96.6833C-55.7616 95.1494 -54.6509 93.7737 -53.3077 92.6252C-53.6056 92.6451 -53.9243 92.6565 -54.234 92.6565C-57.3792 92.6559 -60.4412 91.6893 -62.9701 89.8988C-65.499 88.1083 -67.3614 85.5884 -68.2836 82.7093C-68.4374 82.2299 -68.4564 81.7202 -68.3387 81.2315C-68.2211 80.7428 -67.9709 80.2925 -67.6134 79.9259C-66.3831 78.6679 -64.9223 77.6366 -63.3036 76.883C-66.5321 76.2109 -69.4287 74.5138 -71.5232 72.0673C-73.6178 69.6207 -74.7874 66.5682 -74.8423 63.4052C-74.8545 62.9033 -74.7283 62.4073 -74.4762 61.9671C-74.2241 61.527 -73.8552 61.1583 -73.4066 60.8984ZM41.328 70.1812C40.6308 71.1389 40.1512 72.226 39.9201 73.3722C39.6889 74.5185 39.7115 75.6984 39.9863 76.8358C40.2611 77.9732 40.782 79.0427 41.5154 79.9753C42.2488 80.908 43.1783 81.6829 44.244 82.2502C44.941 81.2927 45.4206 80.2059 45.6519 79.06C45.8832 77.9141 45.861 76.7344 45.5868 75.5972C45.3126 74.46 44.7925 73.3905 44.06 72.4576C43.3275 71.5247 42.3988 70.7492 41.334 70.1812H41.328ZM50.9843 62.6466C50.3903 61.6259 49.58 60.7354 48.6055 60.0321C47.6309 59.3288 46.5136 58.8283 45.3252 58.5628C44.9302 59.6674 44.7816 60.8391 44.8889 62.0021C44.9963 63.1651 45.3571 64.2937 45.9482 65.3149C46.5393 66.3362 47.3475 67.2273 48.3207 67.9309C49.2938 68.6345 50.4103 69.1349 51.5979 69.3998C51.9924 68.2953 52.1416 67.124 52.0359 65.9611C51.9303 64.7982 51.5721 63.6693 50.9843 62.6466ZM54.5585 55.1063C54.7035 55.1063 54.8494 55.1063 54.9964 55.1063C55.0555 53.9405 54.8599 52.7758 54.4219 51.6866C53.9839 50.5973 53.3132 49.6077 52.4527 48.7809C51.6447 48.0027 50.6834 47.3858 49.6245 46.9657C48.5657 46.5457 47.4304 46.331 46.2843 46.3341C46.1383 46.3341 45.9864 46.3341 45.8464 46.3341C45.7872 47.4998 45.9829 48.6646 46.4209 49.7538C46.8589 50.843 47.5296 51.8327 48.3901 52.6594C49.1975 53.4378 50.1582 54.0551 51.2165 54.4756C52.2748 54.8961 53.4097 55.1115 54.5555 55.1092L54.5585 55.1063ZM45.1077 9.63086C44.4646 8.63867 43.6101 7.78751 42.6 7.13296C41.59 6.47841 40.4471 6.03518 39.2461 5.8322C38.9143 6.95566 38.8311 8.13306 39.0019 9.28906C39.1727 10.4451 39.5937 11.5542 40.2379 12.5454C40.881 13.5377 41.7354 14.389 42.7455 15.0436C43.7555 15.6981 44.8985 16.1413 46.0996 16.3441C46.4312 15.2206 46.5142 14.0432 46.3434 12.8873C46.1727 11.7313 45.7518 10.6222 45.1077 9.63086ZM43.4279 22.5383C42.2402 22.274 41.0077 22.2519 39.8105 22.4735C38.6134 22.6951 37.4783 23.1554 36.479 23.8245C37.239 25.122 38.3462 26.2023 39.6869 26.9542C41.0276 27.706 42.5533 28.1023 44.107 28.1022C45.8871 28.0983 47.6236 27.574 49.084 26.5993C48.4877 25.5833 47.6767 24.6974 46.7028 23.9982C45.729 23.299 44.6136 22.8018 43.4279 22.5383ZM49.8644 35.0465C48.7986 34.4795 47.6203 34.1333 46.4058 34.0301C45.1913 33.9269 43.9677 34.0692 42.8143 34.4476C43.0902 35.5852 43.6123 36.6547 44.3469 37.5871C45.0815 38.5194 46.0122 39.2937 47.0789 39.8601C48.1457 40.4264 49.3247 40.7721 50.5397 40.8748C51.7547 40.9775 52.9787 40.835 54.1326 40.4564C53.8538 39.3198 53.3301 38.2515 52.5951 37.3199C51.8601 36.3883 50.93 35.614 49.8644 35.0465ZM57.3494 11.342C55.5108 12.3228 54.1055 13.9081 53.3937 15.8045C52.6818 17.7009 52.7115 19.78 53.4773 21.6571C53.8208 22.2274 54.1534 22.8073 54.4751 23.3967C55.5352 22.8258 56.4589 22.0489 57.1866 21.1158C57.9144 20.1828 58.4302 19.1142 58.701 17.9789C58.9717 16.8436 58.9912 15.6665 58.7585 14.5235C58.5257 13.3805 58.0457 12.2968 57.3494 11.342ZM66.4606 27.9568C64.4184 28.4102 62.6157 29.5541 61.384 31.1783C60.1522 32.8025 59.5741 34.7978 59.756 36.7975C59.9228 37.4572 60.0787 38.1227 60.2236 38.7938C61.4083 38.5254 62.5211 38.0224 63.4905 37.3172C64.4598 36.612 65.2641 35.7203 65.8517 34.6994C66.4392 33.6785 66.797 32.5511 66.9018 31.3898C67.0067 30.2285 66.8564 29.0591 66.4606 27.9568ZM70.4548 46.3341C70.3098 46.3341 70.1639 46.3341 70.0169 46.3341C67.9818 46.3328 66.0106 47.0143 64.4457 48.2599C62.8808 49.5056 61.8212 51.2368 61.4508 53.1528C61.424 53.8059 61.3882 54.459 61.3376 55.1063C61.4746 55.1063 61.6086 55.1063 61.7456 55.1063C62.8917 55.1092 64.027 54.8944 65.0858 54.4744C66.1446 54.0544 67.1059 53.4375 67.9141 52.6594C68.774 51.8325 69.4441 50.8427 69.8816 49.7535C70.3191 48.6643 70.5143 47.4996 70.4548 46.3341ZM64.7301 70.4635C65.796 69.8946 66.726 69.1187 67.4605 68.1856C68.195 67.2526 68.7178 66.1828 68.9953 65.045C67.0051 64.3926 64.8356 64.452 62.8876 65.2121C60.9397 65.9722 59.3448 67.3817 58.3978 69.1802C58.1794 69.8133 57.95 70.4407 57.7098 71.0624C58.8598 71.4365 60.079 71.5757 61.2886 71.4711C62.4983 71.3664 63.6717 71.0203 64.7331 70.4549L64.7301 70.4635ZM54.5704 86.9528C56.1247 86.9537 57.6511 86.5578 58.9924 85.8059C60.3337 85.054 61.4414 83.9733 62.2013 82.6751C60.4508 81.505 58.3124 80.9913 56.1923 81.2316C54.0723 81.4718 52.1182 82.4493 50.7014 83.9784C50.34 84.4784 49.9716 84.9737 49.5963 85.4642C51.0543 86.431 52.785 86.9502 54.5585 86.9528H54.5704ZM43.9908 100.217C45.2086 100.281 46.4269 100.099 47.5662 99.6826C48.7056 99.2659 49.7404 98.6238 50.6031 97.7984C49.261 96.2102 47.3577 95.1477 45.253 94.8119C43.1482 94.4762 40.988 94.8903 39.1805 95.9761C38.6802 96.3725 38.1708 96.7603 37.6556 97.1396C38.4269 98.0469 39.388 98.7896 40.477 99.32C41.566 99.8504 42.7588 100.157 43.9789 100.22L43.9908 100.217ZM34.1171 80.2909C33.1712 81.0275 32.3971 81.9457 31.8448 82.9864C31.2925 84.0271 30.9742 85.1671 30.9105 86.3329C30.8468 87.4986 31.0391 88.6642 31.4749 89.7544C31.9108 90.8446 32.5806 91.8352 33.441 92.6622C34.3869 91.9257 35.1609 91.0075 35.7132 89.9668C36.2656 88.9261 36.5839 87.7861 36.6476 86.6203C36.7113 85.4546 36.519 84.289 36.0831 83.1988C35.6473 82.1086 34.9775 81.118 34.1171 80.2909ZM28.0201 109.865C29.1728 110.243 30.3951 110.388 31.6093 110.289C32.8235 110.191 34.0031 109.852 35.0732 109.294C34.246 107.434 32.7413 105.925 30.839 105.048C28.9367 104.171 26.7664 103.985 24.7319 104.526C24.1103 104.786 23.4839 105.038 22.8524 105.282C23.3369 106.348 24.0476 107.305 24.9393 108.094C25.8309 108.883 26.8841 109.486 28.032 109.865H28.0201ZM20.0765 99.8232C21.1976 99.3648 22.2059 98.6865 23.0363 97.832C23.8668 96.9775 24.5009 95.9657 24.8977 94.8621C25.2946 93.7585 25.4454 92.5874 25.3403 91.4245C25.2353 90.2616 24.8769 89.1327 24.2881 88.1107C23.1666 88.5687 22.158 89.2468 21.3273 90.1013C20.4966 90.9558 19.8623 91.9676 19.4654 93.0713C19.0685 94.1751 18.9178 95.3463 19.0231 96.5093C19.1283 97.6723 19.4872 98.8013 20.0765 99.8232ZM-69.6865 46.3255C-69.8314 46.3255 -69.9774 46.3255 -70.1243 46.3255C-70.1833 47.4913 -69.9876 48.656 -69.5496 49.7452C-69.1116 50.8344 -68.441 51.824 -67.5807 52.6509C-66.7725 53.429 -65.8112 54.0459 -64.7524 54.4659C-63.6936 54.8859 -62.5583 55.1007 -61.4122 55.0978C-61.2752 55.0978 -61.1412 55.0978 -61.0042 55.0978C-61.0548 54.4504 -61.0905 53.7973 -61.1173 53.1443C-61.4877 51.2283 -62.5474 49.4971 -64.1123 48.2514C-65.6772 47.0057 -67.6484 46.3243 -69.6835 46.3255H-69.6865ZM-60.4919 32.0406C-61.0859 31.0199 -61.8961 30.1294 -62.8707 29.4261C-63.8453 28.7228 -64.9626 28.2224 -66.151 27.9568C-66.5468 29.0591 -66.6971 30.2285 -66.5922 31.3898C-66.4874 32.5511 -66.1296 33.6785 -65.5421 34.6994C-64.9546 35.7203 -64.1502 36.612 -63.1809 37.3172C-62.2115 38.0224 -61.0987 38.5254 -59.914 38.7938C-59.7711 38.1284 -59.6152 37.4629 -59.4464 36.7975C-59.2952 35.1477 -59.6591 33.4921 -60.4919 32.0406ZM-52.7656 16.7576C-53.0418 15.6208 -53.5628 14.5517 -54.2951 13.6186C-55.0275 12.6856 -55.9552 11.9092 -57.0189 11.3391C-57.7149 12.2944 -58.1944 13.3787 -58.4265 14.5221C-58.6586 15.6654 -58.6382 16.8427 -58.3667 17.9781C-58.0951 19.1135 -57.5784 20.1819 -56.8497 21.1146C-56.1211 22.0473 -55.1966 22.8237 -54.1357 23.3938C-53.8141 22.8102 -53.4815 22.2303 -53.138 21.6542C-52.5047 20.0945 -52.375 18.3887 -52.7656 16.7576ZM-48.0656 52.6623C-47.2051 51.8355 -46.5344 50.8459 -46.0964 49.7567C-45.6584 48.6675 -45.4627 47.5027 -45.5219 46.3369C-45.6669 46.3369 -45.8128 46.3369 -45.9598 46.3369C-47.1059 46.334 -48.2411 46.5488 -49.3 46.9688C-50.3588 47.3888 -51.3201 48.0057 -52.1282 48.7838C-52.9887 49.6105 -53.6594 50.6002 -54.0974 51.6894C-54.5354 52.7786 -54.7311 53.9434 -54.6719 55.1092C-54.5259 55.1092 -54.374 55.1092 -54.234 55.1092C-53.0879 55.1122 -51.9526 54.8975 -50.8938 54.4775C-49.8349 54.0575 -48.8736 53.4405 -48.0656 52.6623ZM-51.2853 69.3998C-50.0977 69.1349 -48.9813 68.6345 -48.0081 67.9309C-47.035 67.2273 -46.2268 66.3362 -45.6357 65.3149C-45.0445 64.2937 -44.6837 63.1651 -44.5764 62.0021C-44.469 60.8391 -44.6177 59.6674 -45.0126 58.5628C-46.2003 58.8276 -47.3167 59.328 -48.2898 60.0316C-49.263 60.7352 -50.0712 61.6264 -50.6623 62.6476C-51.2534 63.6688 -51.6143 64.7974 -51.7216 65.9604C-51.8289 67.1235 -51.6803 68.2951 -51.2853 69.3998ZM-53.8051 40.4593C-52.6512 40.8374 -51.4273 40.9796 -50.2125 40.8766C-48.9976 40.7737 -47.8188 40.428 -46.7522 39.8617C-45.6856 39.2954 -44.7549 38.5213 -44.0202 37.5892C-43.2855 36.6571 -42.7631 35.5878 -42.4868 34.4504C-43.6408 34.0728 -44.8646 33.9309 -46.0793 34.0341C-47.294 34.1372 -48.4726 34.483 -49.5391 35.0492C-50.6056 35.6154 -51.5362 36.3894 -52.271 37.3213C-53.0058 38.2531 -53.5285 39.3221 -53.8051 40.4593ZM-38.9127 5.83505C-40.1129 6.04104 -41.2547 6.48565 -42.2644 7.14018C-43.274 7.79472 -44.1292 8.64465 -44.7747 9.63513C-45.4202 10.6256 -45.8417 11.7347 -46.012 12.8907C-46.1822 14.0468 -46.0975 15.2242 -45.7632 16.3469C-44.563 16.141 -43.4212 15.6963 -42.4115 15.0418C-41.4018 14.3873 -40.5466 13.5374 -39.9011 12.5469C-39.2556 11.5564 -38.8342 10.4473 -38.6639 9.29127C-38.4936 8.13521 -38.5784 6.95782 -38.9127 5.83505ZM-36.1546 23.8245C-37.1549 23.1567 -38.2903 22.6973 -39.4876 22.4758C-40.6848 22.2542 -41.9173 22.2756 -43.1054 22.5384C-44.2935 22.8013 -45.4108 23.2997 -46.3853 24.0017C-47.3597 24.7036 -48.1695 25.5934 -48.7625 26.6136C-47.7622 27.2813 -46.6268 27.7408 -45.4295 27.9623C-44.2323 28.1838 -42.9998 28.1625 -41.8117 27.8996C-40.6236 27.6368 -39.5063 27.1383 -38.5319 26.4364C-37.5574 25.7345 -36.7476 24.8447 -36.1546 23.8245ZM-41.0036 70.184C-42.0688 70.7513 -42.9979 71.5261 -43.731 72.4585C-44.4641 73.3909 -44.9848 74.4601 -45.2596 75.5972C-45.5344 76.7342 -45.5571 77.9138 -45.3263 79.0597C-45.0955 80.2057 -44.6162 81.2925 -43.9195 82.2502C-42.8547 81.6821 -41.926 80.9066 -41.1935 79.9737C-40.461 79.0409 -39.9409 77.9713 -39.6667 76.8341C-39.3925 75.6969 -39.3703 74.5173 -39.6016 73.3714C-39.8329 72.2254 -40.3125 71.1387 -41.0095 70.1812L-41.0036 70.184ZM-19.7639 99.8232C-19.1748 98.8019 -18.8157 97.6737 -18.7099 96.5113C-18.604 95.349 -18.7538 94.1783 -19.1495 93.0747C-19.5452 91.9712 -20.178 90.9593 -21.0072 90.1043C-21.8364 89.2493 -22.8435 88.5702 -23.9636 88.1107C-24.5529 89.1327 -24.9117 90.2616 -25.017 91.4246C-25.1222 92.5876 -24.9715 93.7588 -24.5746 94.8626C-24.1777 95.9663 -23.5435 96.9781 -22.7128 97.8326C-21.8821 98.6871 -20.8734 99.3652 -19.752 99.8232H-19.7639ZM-27.7105 109.865C-26.563 109.484 -25.5108 108.879 -24.6207 108.088C-23.7305 107.297 -23.0219 106.337 -22.5399 105.27C-23.1812 105.025 -23.8176 104.768 -24.4491 104.5C-26.4809 103.97 -28.6445 104.162 -30.5399 105.041C-32.4354 105.919 -33.9346 107.425 -34.7606 109.28C-33.6917 109.841 -32.5126 110.182 -31.2983 110.283C-30.0841 110.383 -28.8612 110.241 -27.7076 109.865H-27.7105ZM-36.3482 86.622C-36.2819 87.7871 -35.9623 88.9262 -35.4099 89.9663C-34.8576 91.0063 -34.0845 91.9246 -33.1403 92.6622C-32.2785 91.8367 -31.607 90.8474 -31.1692 89.7581C-30.7314 88.6688 -30.5369 87.5037 -30.5984 86.338C-30.6598 85.1722 -30.9758 84.0318 -31.526 82.9903C-32.0762 81.9487 -32.8484 81.0291 -33.7926 80.2909C-34.6538 81.1184 -35.325 82.1089 -35.763 83.1992C-36.201 84.2894 -36.3963 85.4553 -36.3363 86.622H-36.3482ZM-44.1369 100.231C-43.9821 100.231 -43.8262 100.231 -43.6693 100.231C-42.4524 100.168 -41.2628 99.8618 -40.1764 99.3329C-39.0901 98.804 -38.1312 98.0638 -37.3609 97.1596C-37.8761 96.7774 -38.3855 96.3896 -38.8858 95.9932C-40.6902 94.914 -42.8441 94.5031 -44.9426 94.8376C-47.0411 95.1721 -48.9398 96.2291 -50.2816 97.8098C-49.4722 98.5814 -48.5118 99.1924 -47.4553 99.6079C-46.3989 100.023 -45.2671 100.235 -44.125 100.231H-44.1369ZM-56.2207 86.7361C-55.5741 86.8795 -54.9126 86.9522 -54.2489 86.9528C-52.4701 86.9494 -50.7347 86.426 -49.2748 85.4528C-49.6501 84.9642 -50.0185 84.4689 -50.3799 83.967C-51.7963 82.4374 -53.7505 81.4595 -55.8707 81.2192C-57.991 80.9789 -60.1295 81.493 -61.8798 82.6637C-61.2831 83.6834 -60.4704 84.5724 -59.4938 85.2737C-58.5172 85.975 -57.3982 86.4731 -56.2088 86.7361H-56.2207ZM-64.4056 70.4635C-63.3446 71.0285 -62.1717 71.3744 -60.9626 71.479C-59.7535 71.5836 -58.5349 71.4446 -57.3853 71.0709C-57.6255 70.4492 -57.8549 69.8228 -58.0733 69.1916C-59.0194 67.3915 -60.6145 65.9806 -62.5634 65.2198C-64.5122 64.4591 -66.6829 64.4 -68.6738 65.0536C-68.3934 66.1911 -67.8678 67.2599 -67.1308 68.1916C-66.3937 69.1232 -65.4614 69.8971 -64.3937 70.4635H-64.4056Z" fill="#A8A8A8"/>
</g>
<defs>
<clipPath id="clip0_1066_92">
<rect width="76" height="116" fill="white" transform="matrix(-1 0 0 1 76.4116 0)"/>
</clipPath>
</defs>
</svg>
