<svg width="77" height="116" viewBox="0 0 77 116" fill="none" xmlns="http://www.w3.org/2000/svg">
<g clip-path="url(#clip0_1066_90)">
<path d="M150.024 60.8984C148.487 60.0162 146.794 59.4103 145.029 59.1103C147.929 57.6019 150.214 55.2037 151.518 52.3014C152.821 49.399 153.067 46.1612 152.216 43.1086C152.081 42.6243 151.815 42.1827 151.445 41.8282C151.075 41.4737 150.614 41.2189 150.108 41.0895C148.868 40.773 147.59 40.6129 146.307 40.6133C145.792 40.6136 145.277 40.6393 144.764 40.6903C147.133 38.485 148.653 35.577 149.076 32.4395C149.499 29.302 148.8 26.1198 147.093 23.411C146.824 22.9806 146.441 22.6259 145.983 22.3826C145.525 22.1392 145.008 22.0159 144.484 22.025C142.679 22.0593 140.895 22.4132 139.224 23.0687C139.937 21.8855 140.465 20.6085 140.791 19.2786C141.366 16.8744 141.272 14.3678 140.52 12.009C139.767 9.65011 138.382 7.52137 136.502 5.83505C136.119 5.49281 135.649 5.25328 135.138 5.14063C134.628 5.02797 134.096 5.04617 133.595 5.19339C131.319 5.86531 129.248 7.05746 127.56 8.66693C126.456 6.092 124.574 3.89144 122.156 2.34733C119.737 0.803212 116.892 -0.0140909 113.984 0.000183845H113.484C112.961 0.0174884 112.451 0.166587 112.007 0.43245C111.564 0.698312 111.201 1.07154 110.955 1.51451C109.752 3.695 109.166 6.13952 109.256 8.60441C109.346 11.0693 110.11 13.4684 111.471 15.5627C111.898 16.2129 112.379 16.829 112.909 17.405C110.663 18.1568 108.641 19.4181 107.015 21.081C106.657 21.4476 106.407 21.8979 106.29 22.3866C106.172 22.8753 106.191 23.385 106.345 23.8644C107.441 27.2608 109.835 30.136 113.049 31.9151C112.956 32.1993 112.911 32.4958 112.915 32.7935C112.991 36.3477 114.465 39.7434 117.043 42.3016C116.872 42.5506 116.744 42.8239 116.662 43.1115C115.711 46.5479 116.151 50.2015 117.892 53.341C117.658 53.5347 117.457 53.7629 117.297 54.0169C115.393 57.0693 114.763 60.6973 115.533 64.1752C115.251 64.3001 114.991 64.4665 114.762 64.6686C112.053 67.1004 110.403 70.4219 110.142 73.9684C109.831 74.0126 109.53 74.1041 109.249 74.2393C105.946 75.8624 103.404 78.6195 102.133 81.9593C101.825 81.9224 101.512 81.9321 101.207 81.9878C98.9986 82.3989 96.9187 83.2904 95.1276 84.5935C93.3365 85.8966 91.8822 87.5764 90.877 89.5033C89.8718 91.4301 89.3426 93.5524 89.3303 95.7062C89.3179 97.86 89.8228 99.9877 90.8058 101.925C81.3991 104.34 71.4939 104.34 62.0872 101.925C63.0673 99.9889 63.5701 97.8632 63.5569 95.7117C63.5436 93.5602 63.0145 91.4404 62.0105 89.5155C61.0065 87.5907 59.5543 85.9123 57.7659 84.6096C55.9775 83.3069 53.9005 82.4148 51.6952 82.0021C51.3898 81.9469 51.0771 81.9383 50.7689 81.9764C49.4972 78.6368 46.956 75.8798 43.6533 74.2564C43.3722 74.1216 43.0706 74.0301 42.7597 73.9855C42.4987 70.439 40.8488 67.1175 38.1401 64.6857C37.9116 64.4834 37.6513 64.3169 37.3686 64.1923C38.1386 60.7144 37.5089 57.0865 35.6054 54.034C35.445 53.7794 35.244 53.5504 35.0097 53.3553C36.7557 50.2141 37.1972 46.557 36.2457 43.1172C36.1636 42.8298 36.035 42.5565 35.8645 42.3073C38.4423 39.7489 39.9166 36.3533 39.9927 32.7992C39.9965 32.5015 39.9512 32.2051 39.8587 31.9209C43.073 30.1419 45.4675 27.2666 46.5632 23.8701C46.717 23.3907 46.736 22.881 46.6184 22.3923C46.5007 21.9036 46.2505 21.4533 45.8931 21.0867C44.2667 19.424 42.2444 18.1628 39.9986 17.4107C41.9771 15.2684 43.2245 12.5984 43.5737 9.75832C43.9229 6.91826 43.3573 4.04385 41.9525 1.52022C41.7073 1.07725 41.3443 0.704016 40.9004 0.438154C40.4564 0.172291 39.9471 0.0231922 39.4238 0.00588766H38.9234C36.0185 -0.00531092 33.1763 0.813743 30.7604 2.35821C28.3445 3.90268 26.465 6.10228 25.3623 8.67549C23.6742 7.06221 21.6009 5.86705 19.3219 5.19339C18.8212 5.04617 18.2888 5.02797 17.7785 5.14063C17.2681 5.25328 16.7977 5.49281 16.4149 5.83505C13.9914 7.99061 12.4025 10.869 11.9076 14.0005C11.4126 17.132 12.0408 20.3316 13.6896 23.0773C12.0185 22.4217 10.2351 22.0678 8.42956 22.0335C7.90606 22.0241 7.38922 22.1471 6.93115 22.3899C6.47308 22.6327 6.08995 22.9869 5.8204 23.4167C4.1133 26.1254 3.4143 29.3077 3.83724 32.4453C4.26018 35.5829 5.78014 38.491 8.14958 40.696C7.63702 40.6449 7.12205 40.6192 6.60672 40.619C5.32362 40.6187 4.04598 40.7788 2.80616 41.0952C2.30033 41.2246 1.83906 41.4794 1.46884 41.8339C1.09861 42.1884 0.832523 42.63 0.697382 43.1143C-0.153673 46.1679 0.093022 49.4069 1.39777 52.3099C2.70251 55.2129 4.98942 57.6113 7.89045 59.1189C6.12327 59.4155 4.4275 60.0186 2.88658 60.8984C2.43715 61.1562 2.06667 61.5228 1.81252 61.9615C1.55837 62.4001 1.42954 62.8951 1.43903 63.3966C1.49387 66.5597 2.66348 69.6122 4.75804 72.0587C6.85259 74.5053 9.74918 76.2023 12.9777 76.8744C11.3589 77.628 9.89811 78.6593 8.66784 79.9174C8.3104 80.2839 8.06023 80.7343 7.94257 81.2229C7.82491 81.7116 7.84392 82.2214 7.99768 82.7008C8.92003 85.5803 10.7829 88.1006 13.3124 89.8911C15.8418 91.6816 18.9045 92.6479 22.0502 92.648C22.3481 92.648 22.6697 92.648 22.9765 92.6166C21.6332 93.765 20.5225 95.1407 19.7002 96.6748C19.4619 97.1212 19.3508 97.6199 19.378 98.1206C19.4052 98.6213 19.5697 99.1063 19.8551 99.5266C21.1834 101.493 23.0054 103.109 25.1543 104.227C27.3033 105.345 29.7106 105.929 32.1563 105.926C32.4154 105.926 32.6775 105.926 32.9366 105.906C34.3712 105.838 35.7874 105.567 37.1393 105.102C36.1747 106.564 35.5011 108.185 35.1526 109.882C35.0522 110.374 35.0891 110.883 35.2596 111.357C35.43 111.831 35.7281 112.254 36.1236 112.582C37.8953 114.058 40.011 115.105 42.293 115.635C44.5749 116.165 46.9564 116.163 49.2374 115.629C51.5184 115.095 53.6322 114.045 55.4012 112.566C57.1702 111.088 58.5428 109.224 59.4035 107.132C61.1092 107.606 62.8437 108.009 64.607 108.342C63.4633 109.396 62.4797 110.599 61.6851 111.915C61.2963 112.57 61.1938 113.345 61.3999 114.072C61.606 114.799 62.1039 115.418 62.785 115.794C63.4662 116.171 64.2752 116.274 65.0356 116.082C65.796 115.889 66.446 115.417 66.8438 114.767C67.8188 113.149 69.2213 111.806 70.9104 110.873C72.5994 109.939 74.5155 109.447 76.4659 109.447C78.4163 109.447 80.3323 109.939 82.0213 110.873C83.7104 111.806 85.1129 113.149 86.0879 114.767C86.4857 115.417 87.1357 115.889 87.8961 116.082C88.6565 116.274 89.4655 116.171 90.1467 115.794C90.8278 115.418 91.3258 114.799 91.5318 114.072C91.7379 113.345 91.6354 112.57 91.2466 111.915C90.452 110.599 89.4684 109.396 88.3247 108.342C90.086 108.011 91.8205 107.608 93.5282 107.132C94.6088 109.755 96.488 112.006 98.9217 113.592C101.355 115.179 104.231 116.028 107.176 116.03C110.715 116.028 114.134 114.803 116.805 112.58C117.201 112.251 117.499 111.828 117.669 111.354C117.84 110.88 117.877 110.371 117.776 109.879C117.422 108.182 116.742 106.562 115.772 105.102C117.112 105.567 118.517 105.842 119.941 105.918C120.201 105.918 120.463 105.918 120.722 105.938C123.172 105.944 125.584 105.36 127.737 104.242C129.891 103.123 131.716 101.505 133.047 99.5352C133.332 99.1148 133.497 98.6298 133.524 98.1292C133.551 97.6285 133.44 97.1298 133.202 96.6833C132.379 95.1494 131.269 93.7737 129.925 92.6252C130.223 92.6451 130.542 92.6565 130.852 92.6565C133.997 92.6559 137.059 91.6893 139.588 89.8988C142.117 88.1083 143.979 85.5884 144.901 82.7093C145.055 82.2299 145.074 81.7202 144.956 81.2315C144.839 80.7428 144.589 80.2925 144.231 79.9259C143.001 78.6679 141.54 77.6366 139.921 76.883C143.15 76.2109 146.046 74.5138 148.141 72.0673C150.235 69.6207 151.405 66.5682 151.46 63.4052C151.472 62.9033 151.346 62.4073 151.094 61.9671C150.842 61.527 150.473 61.1583 150.024 60.8984ZM35.2896 70.1812C35.9869 71.1389 36.4665 72.226 36.6976 73.3722C36.9287 74.5185 36.9062 75.6984 36.6314 76.8358C36.3566 77.9732 35.8356 79.0427 35.1023 79.9753C34.3689 80.908 33.4393 81.6829 32.3737 82.2502C31.6767 81.2927 31.1971 80.2059 30.9658 79.06C30.7345 77.9141 30.7567 76.7344 31.0309 75.5972C31.3051 74.46 31.8252 73.3905 32.5577 72.4576C33.2902 71.5247 34.2189 70.7492 35.2837 70.1812H35.2896ZM25.6334 62.6466C26.2274 61.6259 27.0376 60.7354 28.0122 60.0321C28.9868 59.3288 30.1041 58.8283 31.2925 58.5628C31.6874 59.6674 31.8361 60.8391 31.7287 62.0021C31.6214 63.1651 31.2606 64.2937 30.6695 65.3149C30.0783 66.3362 29.2701 67.2273 28.297 67.9309C27.3239 68.6345 26.2074 69.1349 25.0198 69.3998C24.6253 68.2953 24.4761 67.124 24.5817 65.9611C24.6874 64.7982 25.0456 63.6693 25.6334 62.6466ZM22.0592 55.1063C21.9142 55.1063 21.7683 55.1063 21.6213 55.1063C21.5621 53.9405 21.7578 52.7758 22.1958 51.6866C22.6338 50.5973 23.3045 49.6077 24.165 48.7809C24.973 48.0027 25.9343 47.3858 26.9931 46.9657C28.052 46.5457 29.1873 46.331 30.3334 46.3341C30.4794 46.3341 30.6313 46.3341 30.7713 46.3341C30.8304 47.4998 30.6348 48.6646 30.1968 49.7538C29.7588 50.843 29.0881 51.8327 28.2276 52.6594C27.4202 53.4378 26.4595 54.0551 25.4012 54.4756C24.3429 54.8961 23.2079 55.1115 22.0621 55.1092L22.0592 55.1063ZM31.5099 9.63086C32.1531 8.63867 33.0076 7.78751 34.0176 7.13296C35.0277 6.47841 36.1705 6.03518 37.3716 5.8322C37.7034 6.95566 37.7865 8.13306 37.6157 9.28906C37.4449 10.4451 37.024 11.5542 36.3798 12.5454C35.7367 13.5377 34.8823 14.389 33.8722 15.0436C32.8621 15.6981 31.7192 16.1413 30.5181 16.3441C30.1865 15.2206 30.1034 14.0432 30.2742 12.8873C30.445 11.7313 30.8659 10.6222 31.5099 9.63086ZM33.1898 22.5383C34.3775 22.274 35.61 22.2519 36.8071 22.4735C38.0043 22.6951 39.1394 23.1554 40.1386 23.8245C39.3787 25.122 38.2714 26.2023 36.9308 26.9542C35.5901 27.706 34.0644 28.1023 32.5107 28.1022C30.7305 28.0983 28.9941 27.574 27.5336 26.5993C28.13 25.5833 28.941 24.6974 29.9148 23.9982C30.8887 23.299 32.0041 22.8018 33.1898 22.5383ZM26.7533 35.0465C27.8191 34.4795 28.9974 34.1333 30.2119 34.0301C31.4264 33.9269 32.6499 34.0692 33.8034 34.4476C33.5275 35.5852 33.0054 36.6547 32.2708 37.5871C31.5362 38.5194 30.6055 39.2937 29.5387 39.8601C28.472 40.4264 27.293 40.7721 26.078 40.8748C24.863 40.9775 23.639 40.835 22.4851 40.4564C22.7639 39.3198 23.2876 38.2515 24.0226 37.3199C24.7576 36.3883 25.6876 35.614 26.7533 35.0465ZM19.2683 11.342C21.1069 12.3228 22.5121 13.9081 23.224 15.8045C23.9359 17.7009 23.9062 19.78 23.1404 21.6571C22.7968 22.2274 22.4642 22.8073 22.1426 23.3967C21.0824 22.8258 20.1588 22.0489 19.431 21.1158C18.7032 20.1828 18.1874 19.1142 17.9167 17.9789C17.646 16.8436 17.6264 15.6665 17.8592 14.5235C18.092 13.3805 18.572 12.2968 19.2683 11.342ZM10.1571 27.9568C12.1993 28.4102 14.002 29.5541 15.2337 31.1783C16.4655 32.8025 17.0436 34.7978 16.8617 36.7975C16.6949 37.4572 16.539 38.1227 16.3941 38.7938C15.2094 38.5254 14.0965 38.0224 13.1272 37.3172C12.1579 36.612 11.3535 35.7203 10.766 34.6994C10.1784 33.6785 9.82071 32.5511 9.71584 31.3898C9.61097 30.2285 9.76128 29.0591 10.1571 27.9568ZM6.16292 46.3341C6.30788 46.3341 6.45382 46.3341 6.60076 46.3341C8.63583 46.3328 10.607 47.0143 12.1719 48.2599C13.7368 49.5056 14.7965 51.2368 15.1669 53.1528C15.1937 53.8059 15.2295 54.459 15.2801 55.1063C15.1431 55.1063 15.0091 55.1063 14.872 55.1063C13.726 55.1092 12.5907 54.8944 11.5319 54.4744C10.473 54.0544 9.51174 53.4375 8.70358 52.6594C7.84367 51.8325 7.17353 50.8427 6.73604 49.7535C6.29855 48.6643 6.10335 47.4996 6.16292 46.3341ZM11.8876 70.4635C10.8217 69.8946 9.89167 69.1187 9.15718 68.1856C8.42269 67.2526 7.89992 66.1828 7.62239 65.045C9.61254 64.3926 11.782 64.452 13.73 65.2121C15.678 65.9722 17.2729 67.3817 18.2199 69.1802C18.4383 69.8133 18.6676 70.4407 18.9079 71.0624C17.7579 71.4365 16.5387 71.5757 15.3291 71.4711C14.1194 71.3664 12.946 71.0203 11.8846 70.4549L11.8876 70.4635ZM22.0472 86.9528C20.493 86.9537 18.9665 86.5578 17.6252 85.8059C16.2839 85.054 15.1763 83.9733 14.4163 82.6751C16.1668 81.505 18.3052 80.9913 20.4253 81.2316C22.5454 81.4718 24.4995 82.4493 25.9163 83.9784C26.2777 84.4784 26.646 84.9737 27.0213 85.4642C25.5634 86.431 23.8327 86.9502 22.0592 86.9528H22.0472ZM32.6269 100.217C31.4091 100.281 30.1908 100.099 29.0515 99.6826C27.9121 99.2659 26.8773 98.6238 26.0146 97.7984C27.3567 96.2102 29.26 95.1477 31.3647 94.8119C33.4694 94.4762 35.6297 94.8903 37.4371 95.9761C37.9375 96.3725 38.4468 96.7603 38.9621 97.1396C38.1907 98.0469 37.2297 98.7896 36.1407 99.32C35.0517 99.8504 33.8588 100.157 32.6388 100.22L32.6269 100.217ZM42.5006 80.2909C43.4465 81.0275 44.2205 81.9457 44.7728 82.9864C45.3252 84.0271 45.6434 85.1671 45.7072 86.3329C45.7709 87.4986 45.5786 88.6642 45.1427 89.7544C44.7069 90.8446 44.0371 91.8352 43.1767 92.6622C42.2308 91.9257 41.4567 91.0075 40.9044 89.9668C40.3521 88.9261 40.0338 87.7861 39.9701 86.6203C39.9064 85.4546 40.0987 84.289 40.5345 83.1988C40.9704 82.1086 41.6402 81.118 42.5006 80.2909ZM48.5976 109.865C47.4449 110.243 46.2226 110.388 45.0084 110.289C43.7942 110.191 42.6145 109.852 41.5445 109.294C42.3717 107.434 43.8764 105.925 45.7787 105.048C47.681 104.171 49.8513 103.985 51.8858 104.526C52.5073 104.786 53.1338 105.038 53.7653 105.282C53.2807 106.348 52.5701 107.305 51.6784 108.094C50.7868 108.883 49.7336 109.486 48.5856 109.865H48.5976ZM56.5412 99.8232C55.4201 99.3648 54.4118 98.6865 53.5813 97.832C52.7509 96.9775 52.1168 95.9657 51.7199 94.8621C51.3231 93.7585 51.1723 92.5874 51.2773 91.4245C51.3823 90.2616 51.7408 89.1327 52.3296 88.1107C53.4511 88.5687 54.4597 89.2468 55.2904 90.1013C56.1211 90.9558 56.7554 91.9676 57.1523 93.0713C57.5492 94.1751 57.6998 95.3463 57.5946 96.5093C57.4893 97.6723 57.1305 98.8013 56.5412 99.8232ZM146.304 46.3255C146.449 46.3255 146.595 46.3255 146.742 46.3255C146.801 47.4913 146.605 48.656 146.167 49.7452C145.729 50.8344 145.059 51.824 144.198 52.6509C143.39 53.429 142.429 54.0459 141.37 54.4659C140.311 54.8859 139.176 55.1007 138.03 55.0978C137.893 55.0978 137.759 55.0978 137.622 55.0978C137.672 54.4504 137.708 53.7973 137.735 53.1443C138.105 51.2283 139.165 49.4971 140.73 48.2514C142.295 47.0057 144.266 46.3243 146.301 46.3255H146.304ZM137.11 32.0406C137.704 31.0199 138.514 30.1294 139.488 29.4261C140.463 28.7228 141.58 28.2224 142.769 27.9568C143.164 29.0591 143.315 30.2285 143.21 31.3898C143.105 32.5511 142.747 33.6785 142.16 34.6994C141.572 35.7203 140.768 36.612 139.799 37.3172C138.829 38.0224 137.716 38.5254 136.532 38.7938C136.389 38.1284 136.233 37.4629 136.064 36.7975C135.913 35.1477 136.277 33.4921 137.11 32.0406ZM129.383 16.7576C129.659 15.6208 130.18 14.5517 130.913 13.6186C131.645 12.6856 132.573 11.9092 133.637 11.3391C134.333 12.2944 134.812 13.3787 135.044 14.5221C135.276 15.6654 135.256 16.8427 134.984 17.9781C134.713 19.1135 134.196 20.1819 133.467 21.1146C132.739 22.0473 131.814 22.8237 130.753 23.3938C130.432 22.8102 130.099 22.2303 129.756 21.6542C129.122 20.0945 128.993 18.3887 129.383 16.7576ZM124.683 52.6623C123.823 51.8355 123.152 50.8459 122.714 49.7567C122.276 48.6675 122.08 47.5027 122.14 46.3369C122.285 46.3369 122.431 46.3369 122.577 46.3369C123.724 46.334 124.859 46.5488 125.918 46.9688C126.976 47.3888 127.938 48.0057 128.746 48.7838C129.606 49.6105 130.277 50.6002 130.715 51.6894C131.153 52.7786 131.349 53.9434 131.29 55.1092C131.144 55.1092 130.992 55.1092 130.852 55.1092C129.706 55.1122 128.57 54.8975 127.511 54.4775C126.453 54.0575 125.491 53.4405 124.683 52.6623ZM127.903 69.3998C126.715 69.1349 125.599 68.6345 124.626 67.9309C123.653 67.2273 122.844 66.3362 122.253 65.3149C121.662 64.2937 121.301 63.1651 121.194 62.0021C121.087 60.8391 121.235 59.6674 121.63 58.5628C122.818 58.8276 123.934 59.328 124.907 60.0316C125.881 60.7352 126.689 61.6264 127.28 62.6476C127.871 63.6688 128.232 64.7974 128.339 65.9604C128.447 67.1235 128.298 68.2951 127.903 69.3998ZM130.423 40.4593C129.269 40.8374 128.045 40.9796 126.83 40.8766C125.615 40.7737 124.436 40.428 123.37 39.8617C122.303 39.2954 121.373 38.5213 120.638 37.5892C119.903 36.6571 119.381 35.5878 119.105 34.4504C120.258 34.0728 121.482 33.9309 122.697 34.0341C123.912 34.1372 125.09 34.483 126.157 35.0492C127.223 35.6154 128.154 36.3894 128.889 37.3213C129.624 38.2531 130.146 39.3221 130.423 40.4593ZM115.53 5.83505C116.731 6.04104 117.872 6.48565 118.882 7.14018C119.892 7.79472 120.747 8.64465 121.392 9.63513C122.038 10.6256 122.459 11.7347 122.63 12.8907C122.8 14.0468 122.715 15.2242 122.381 16.3469C121.181 16.141 120.039 15.6963 119.029 15.0418C118.019 14.3873 117.164 13.5374 116.519 12.5469C115.873 11.5564 115.452 10.4473 115.282 9.29127C115.111 8.13521 115.196 6.95782 115.53 5.83505ZM112.772 23.8245C113.773 23.1567 114.908 22.6973 116.105 22.4758C117.302 22.2542 118.535 22.2756 119.723 22.5384C120.911 22.8013 122.029 23.2997 123.003 24.0017C123.977 24.7036 124.787 25.5934 125.38 26.6136C124.38 27.2813 123.244 27.7408 122.047 27.9623C120.85 28.1838 119.617 28.1625 118.429 27.8996C117.241 27.6368 116.124 27.1383 115.15 26.4364C114.175 25.7345 113.365 24.8447 112.772 23.8245ZM117.621 70.184C118.686 70.7513 119.616 71.5261 120.349 72.4585C121.082 73.3909 121.603 74.4601 121.877 75.5972C122.152 76.7342 122.175 77.9138 121.944 79.0597C121.713 80.2057 121.234 81.2925 120.537 82.2502C119.472 81.6821 118.544 80.9066 117.811 79.9737C117.079 79.0409 116.559 77.9713 116.284 76.8341C116.01 75.6969 115.988 74.5173 116.219 73.3714C116.451 72.2254 116.93 71.1387 117.627 70.1812L117.621 70.184ZM96.3816 99.8232C95.7924 98.8019 95.4334 97.6737 95.3275 96.5113C95.2217 95.349 95.3715 94.1783 95.7672 93.0747C96.1629 91.9712 96.7957 90.9593 97.6249 90.1043C98.454 89.2493 99.4611 88.5702 100.581 88.1107C101.171 89.1327 101.529 90.2616 101.635 91.4246C101.74 92.5876 101.589 93.7588 101.192 94.8626C100.795 95.9663 100.161 96.9781 99.3304 97.8326C98.4997 98.6871 97.4911 99.3652 96.3697 99.8232H96.3816ZM104.328 109.865C103.181 109.484 102.128 108.879 101.238 108.088C100.348 107.297 99.6396 106.337 99.1575 105.27C99.7989 105.025 100.435 104.768 101.067 104.5C103.099 103.97 105.262 104.162 107.158 105.041C109.053 105.919 110.552 107.425 111.378 109.28C110.309 109.841 109.13 110.182 107.916 110.283C106.702 110.383 105.479 110.241 104.325 109.865H104.328ZM112.966 86.622C112.9 87.7871 112.58 88.9262 112.028 89.9663C111.475 91.0063 110.702 91.9246 109.758 92.6622C108.896 91.8367 108.225 90.8474 107.787 89.7581C107.349 88.6688 107.155 87.5037 107.216 86.338C107.277 85.1722 107.594 84.0318 108.144 82.9903C108.694 81.9487 109.466 81.0291 110.41 80.2909C111.272 81.1184 111.943 82.1089 112.381 83.1992C112.819 84.2894 113.014 85.4553 112.954 86.622H112.966ZM120.755 100.231C120.6 100.231 120.444 100.231 120.287 100.231C119.07 100.168 117.88 99.8618 116.794 99.3329C115.708 98.804 114.749 98.0638 113.979 97.1596C114.494 96.7774 115.003 96.3896 115.504 95.9932C117.308 94.914 119.462 94.5031 121.56 94.8376C123.659 95.1721 125.557 96.2291 126.899 97.8098C126.09 98.5814 125.129 99.1924 124.073 99.6079C123.017 100.023 121.885 100.235 120.743 100.231H120.755ZM132.838 86.7361C132.192 86.8795 131.53 86.9522 130.867 86.9528C129.088 86.9494 127.352 86.426 125.893 85.4528C126.268 84.9642 126.636 84.4689 126.998 83.967C128.414 82.4374 130.368 81.4595 132.488 81.2192C134.609 80.9789 136.747 81.493 138.498 82.6637C137.901 83.6834 137.088 84.5724 136.111 85.2737C135.135 85.975 134.016 86.4731 132.826 86.7361H132.838ZM141.023 70.4635C139.962 71.0285 138.789 71.3744 137.58 71.479C136.371 71.5836 135.153 71.4446 134.003 71.0709C134.243 70.4492 134.473 69.8228 134.691 69.1916C135.637 67.3915 137.232 65.9806 139.181 65.2198C141.13 64.4591 143.301 64.4 145.291 65.0536C145.011 66.1911 144.486 67.2599 143.748 68.1916C143.011 69.1232 142.079 69.8971 141.011 70.4635H141.023Z" fill="#A8A8A8"/>
</g>
<defs>
<clipPath id="clip0_1066_90">
<rect width="76" height="116" fill="white" transform="translate(0.206055)"/>
</clipPath>
</defs>
</svg>
